{"glyphs":{"0":{"ha":772,"x_min":39,"x_max":736,"o":"m 328 -17 q 112 48 185 -17 q 39 269 39 113 q 60 476 39 356 q 143 773 90 665 q 270 925 196 881 q 446 969 344 969 q 663 904 589 969 q 736 681 736 839 q 715 476 736 596 q 631 181 685 289 q 503 28 576 72 q 328 -17 429 -17 m 328 139 q 416 169 383 139 q 469 258 449 199 q 510 428 489 318 q 538 599 531 543 q 546 690 546 654 q 523 784 546 754 q 446 814 500 814 q 357 784 390 814 q 303 694 324 754 q 264 525 283 633 q 234 350 242 404 q 226 263 226 296 q 250 169 226 199 q 328 139 274 139 z "},"1":{"ha":772,"x_min":33,"x_max":679,"o":"m 61 156 l 285 156 l 385 722 l 160 722 l 181 840 q 341 879 244 847 q 517 953 438 911 l 615 953 l 475 156 l 679 156 l 651 0 l 33 0 l 61 156 z "},"2":{"ha":772,"x_min":-25,"x_max":761,"o":"m -17 50 q 44 194 -4 129 q 152 308 92 260 q 308 422 213 357 q 447 522 396 481 q 533 613 499 563 q 567 721 567 663 q 540 787 567 760 q 458 814 513 814 q 351 782 390 814 q 299 682 313 750 l 288 625 l 99 625 q 216 888 113 807 q 467 969 319 969 q 698 898 635 969 q 761 732 761 826 q 708 540 761 624 q 584 399 656 456 q 407 278 513 343 q 311 214 326 225 q 265 169 278 188 l 669 169 l 640 0 l -25 0 l -17 50 z "},"3":{"ha":772,"x_min":6,"x_max":746,"o":"m 329 -17 q 88 44 171 -17 q 6 213 6 106 q 14 294 6 250 l 207 294 q 200 235 200 254 q 233 163 200 188 q 326 139 265 139 q 445 181 399 139 q 492 306 492 224 q 360 407 492 407 l 289 407 l 315 563 l 390 563 q 501 606 454 563 q 547 728 547 649 q 520 792 547 771 q 444 814 493 814 q 346 784 385 814 q 297 696 307 754 l 293 669 l 100 669 l 107 708 q 168 845 119 786 q 291 937 217 904 q 453 969 365 969 q 667 911 589 969 q 746 746 746 853 q 554 494 746 572 l 553 489 q 650 417 614 467 q 686 294 686 368 q 638 131 686 201 q 509 22 590 60 q 329 -17 428 -17 z "},"4":{"ha":772,"x_min":-21,"x_max":717,"o":"m 386 203 l -21 203 l 4 358 q 189 633 104 483 q 353 969 274 783 l 564 969 q 442 731 517 857 q 293 502 367 604 q 179 358 219 400 l 413 358 l 447 556 q 528 686 485 607 q 599 828 571 765 l 686 828 l 603 358 l 717 358 l 690 203 l 576 203 l 540 0 l 350 0 l 386 203 z "},"5":{"ha":772,"x_min":14,"x_max":756,"o":"m 332 -17 q 99 49 183 -17 q 14 231 14 114 q 19 296 14 264 l 215 296 q 211 254 211 274 q 241 169 211 200 q 326 139 271 139 q 410 163 371 139 q 474 236 450 188 q 499 353 499 285 q 468 440 499 410 q 386 469 438 469 q 312 451 344 469 q 250 403 279 433 l 74 425 l 204 953 l 756 953 l 726 783 l 343 783 l 293 572 q 367 606 329 593 q 454 619 404 619 q 631 558 565 619 q 697 375 697 496 q 649 167 697 256 q 517 31 600 78 q 332 -17 435 -17 z "},"6":{"ha":772,"x_min":38,"x_max":740,"o":"m 350 -17 q 117 53 196 -17 q 38 283 38 122 q 54 454 38 357 q 200 853 100 736 q 460 969 300 969 q 671 909 601 969 q 740 744 740 849 q 733 671 740 713 l 543 671 q 549 722 549 710 q 454 815 549 815 q 359 783 394 815 q 303 692 324 750 q 264 535 283 633 q 293 558 268 538 q 363 594 318 578 q 457 610 408 610 q 645 546 583 610 q 707 367 707 482 q 659 167 707 254 q 530 31 611 79 q 350 -17 449 -17 m 342 139 q 463 198 418 139 q 507 344 507 257 q 480 428 507 399 q 397 458 453 458 q 276 401 322 458 q 229 254 229 344 q 258 170 229 201 q 342 139 286 139 z "},"7":{"ha":772,"x_min":94,"x_max":817,"o":"m 94 0 q 258 420 132 215 q 553 783 385 625 l 101 783 l 132 953 l 817 953 l 794 826 q 497 462 624 654 q 335 71 369 269 q 324 0 324 3 l 94 0 z "},"8":{"ha":772,"x_min":3,"x_max":746,"o":"m 326 -17 q 82 44 161 -17 q 3 207 3 104 q 53 378 3 304 q 199 489 103 451 q 128 560 151 517 q 104 658 104 604 q 147 813 104 742 q 268 927 189 885 q 451 969 347 969 q 671 906 596 969 q 746 740 746 843 q 701 593 746 660 q 575 489 657 526 q 692 300 692 433 q 651 142 692 214 q 527 26 610 69 q 326 -17 444 -17 m 400 563 q 508 605 467 563 q 550 722 550 647 q 523 792 550 768 q 446 817 496 817 q 338 774 379 817 q 296 656 296 731 q 400 563 296 563 m 325 136 q 448 183 399 136 q 497 306 497 231 q 465 384 497 357 q 374 411 433 411 q 250 365 297 411 q 203 240 203 319 q 234 163 203 190 q 325 136 265 136 z "},"9":{"ha":772,"x_min":31,"x_max":733,"o":"m 311 -17 q 100 44 169 -17 q 31 208 31 104 q 38 282 31 240 l 228 282 q 222 231 222 243 q 317 138 222 138 q 412 170 376 138 q 467 261 447 203 q 507 418 488 319 q 478 395 503 415 q 408 359 453 375 q 314 343 363 343 q 126 407 188 343 q 64 586 64 471 q 112 786 64 699 q 241 922 160 874 q 421 969 322 969 q 654 900 575 969 q 733 669 733 831 q 717 499 733 597 q 571 100 671 217 q 311 -17 471 -17 m 374 494 q 495 551 449 494 q 542 699 542 608 q 513 783 542 751 q 429 814 485 814 q 308 755 353 814 q 264 608 264 696 q 291 524 264 554 q 374 494 318 494 z "},"\u0000":{"ha":0,"x_min":0,"x_max":0,"o":""},"\r":{"ha":386,"x_min":0,"x_max":0,"o":""}," ":{"ha":386,"x_min":0,"x_max":0,"o":""},"A":{"ha":1003,"x_min":-75,"x_max":921,"o":"m -75 0 l 464 953 l 717 953 l 921 0 l 715 0 l 678 182 l 240 182 l 140 0 l -75 0 m 644 350 l 597 592 q 581 689 592 621 q 568 779 571 757 l 561 779 q 516 689 550 757 q 465 592 482 621 l 335 350 l 644 350 z "},"Á":{"ha":1003,"x_min":-75,"x_max":921,"o":"m 0 0 m -75 0 l 464 953 l 717 953 l 921 0 l 715 0 l 678 182 l 240 182 l 140 0 l -75 0 m 644 350 l 597 592 q 581 689 592 621 q 568 779 571 757 l 561 779 q 516 689 550 757 q 465 592 482 621 l 335 350 l 644 350 m 525 1022 l 667 1206 l 858 1206 l 860 1201 l 678 1022 l 525 1022 z "},"Ă":{"ha":1003,"x_min":-75,"x_max":921,"o":"m 0 0 m -75 0 l 464 953 l 717 953 l 921 0 l 715 0 l 678 182 l 240 182 l 140 0 l -75 0 m 644 350 l 597 592 q 581 689 592 621 q 568 779 571 757 l 561 779 q 516 689 550 757 q 465 592 482 621 l 335 350 l 644 350 m 601 1015 q 442 1059 492 1015 q 392 1171 392 1103 q 394 1206 392 1194 l 519 1206 q 540 1158 519 1178 q 606 1139 560 1139 q 680 1160 650 1139 q 718 1206 710 1181 l 843 1206 q 813 1126 835 1165 q 756 1061 790 1088 q 601 1015 694 1015 z "},"Ắ":{"ha":1003,"x_min":-75,"x_max":921,"o":"m 0 0 m -75 0 l 464 953 l 717 953 l 921 0 l 715 0 l 678 182 l 240 182 l 140 0 l -75 0 m 644 350 l 597 592 q 581 689 592 621 q 568 779 571 757 l 561 779 q 516 689 550 757 q 465 592 482 621 l 335 350 l 644 350 m 601 1015 q 442 1059 492 1015 q 392 1171 392 1103 q 394 1206 392 1194 l 519 1206 q 540 1158 519 1178 q 606 1139 560 1139 q 680 1160 650 1139 q 718 1206 710 1181 l 843 1206 q 813 1126 835 1165 q 756 1061 790 1088 q 601 1015 694 1015 m 533 1206 l 675 1389 l 867 1389 l 868 1385 l 686 1206 l 533 1206 z "},"Ặ":{"ha":1003,"x_min":-75,"x_max":921,"o":"m 0 0 m -75 0 l 464 953 l 717 953 l 921 0 l 715 0 l 678 182 l 240 182 l 140 0 l -75 0 m 644 350 l 597 592 q 581 689 592 621 q 568 779 571 757 l 561 779 q 516 689 550 757 q 465 592 482 621 l 335 350 l 644 350 m 601 1015 q 442 1059 492 1015 q 392 1171 392 1103 q 394 1206 392 1194 l 519 1206 q 540 1158 519 1178 q 606 1139 560 1139 q 680 1160 650 1139 q 718 1206 710 1181 l 843 1206 q 813 1126 835 1165 q 756 1061 790 1088 q 601 1015 694 1015 m 301 -240 l 333 -60 l 521 -60 l 489 -240 l 301 -240 z "},"Ằ":{"ha":1003,"x_min":-75,"x_max":921,"o":"m 0 0 m -75 0 l 464 953 l 717 953 l 921 0 l 715 0 l 678 182 l 240 182 l 140 0 l -75 0 m 644 350 l 597 592 q 581 689 592 621 q 568 779 571 757 l 561 779 q 516 689 550 757 q 465 592 482 621 l 335 350 l 644 350 m 601 1015 q 442 1059 492 1015 q 392 1171 392 1103 q 394 1206 392 1194 l 519 1206 q 540 1158 519 1178 q 606 1139 560 1139 q 680 1160 650 1139 q 718 1206 710 1181 l 843 1206 q 813 1126 835 1165 q 756 1061 790 1088 q 601 1015 694 1015 m 567 1206 l 449 1385 l 450 1389 l 628 1389 l 706 1206 l 567 1206 z "},"Ẳ":{"ha":1003,"x_min":-75,"x_max":921,"o":"m 0 0 m -75 0 l 464 953 l 717 953 l 921 0 l 715 0 l 678 182 l 240 182 l 140 0 l -75 0 m 644 350 l 597 592 q 581 689 592 621 q 568 779 571 757 l 561 779 q 516 689 550 757 q 465 592 482 621 l 335 350 l 644 350 m 601 1015 q 442 1059 492 1015 q 392 1171 392 1103 q 394 1206 392 1194 l 519 1206 q 540 1158 519 1178 q 606 1139 560 1139 q 680 1160 650 1139 q 718 1206 710 1181 l 843 1206 q 813 1126 835 1165 q 756 1061 790 1088 q 601 1015 694 1015 m 576 1281 l 596 1281 q 633 1288 622 1281 q 644 1313 644 1296 q 634 1329 644 1325 q 600 1333 624 1333 l 519 1333 l 531 1394 q 649 1406 586 1406 q 752 1389 707 1406 q 797 1333 797 1372 q 759 1267 797 1289 q 664 1240 721 1244 l 657 1206 l 563 1206 l 576 1281 z "},"Ẵ":{"ha":1003,"x_min":-75,"x_max":921,"o":"m 0 0 m -75 0 l 464 953 l 717 953 l 921 0 l 715 0 l 678 182 l 240 182 l 140 0 l -75 0 m 644 350 l 597 592 q 581 689 592 621 q 568 779 571 757 l 561 779 q 516 689 550 757 q 465 592 482 621 l 335 350 l 644 350 m 601 1015 q 442 1059 492 1015 q 392 1171 392 1103 q 394 1206 392 1194 l 519 1206 q 540 1158 519 1178 q 606 1139 560 1139 q 680 1160 650 1139 q 718 1206 710 1181 l 843 1206 q 813 1126 835 1165 q 756 1061 790 1088 q 601 1015 694 1015 m 393 1258 q 445 1380 406 1332 q 550 1428 485 1428 q 594 1422 574 1428 q 646 1401 614 1415 q 693 1383 674 1389 q 733 1376 713 1376 q 767 1388 754 1376 q 790 1428 781 1400 l 888 1428 q 835 1306 875 1354 q 728 1258 794 1258 q 685 1265 706 1258 q 633 1285 665 1271 q 586 1303 606 1297 q 546 1310 567 1310 q 512 1298 525 1310 q 489 1258 499 1286 l 393 1258 z "},"Ǎ":{"ha":1003,"x_min":-75,"x_max":921,"o":"m 0 0 m -75 0 l 464 953 l 717 953 l 921 0 l 715 0 l 678 182 l 240 182 l 140 0 l -75 0 m 644 350 l 597 592 q 581 689 592 621 q 568 779 571 757 l 561 779 q 516 689 550 757 q 465 592 482 621 l 335 350 l 644 350 m 517 1018 l 403 1206 l 551 1206 l 614 1110 l 700 1206 l 864 1206 l 686 1018 l 517 1018 z "},"Â":{"ha":1003,"x_min":-75,"x_max":921,"o":"m 0 0 m -75 0 l 464 953 l 717 953 l 921 0 l 715 0 l 678 182 l 240 182 l 140 0 l -75 0 m 644 350 l 597 592 q 581 689 592 621 q 568 779 571 757 l 561 779 q 516 689 550 757 q 465 592 482 621 l 335 350 l 644 350 m 361 1018 l 539 1206 l 708 1206 l 822 1018 l 675 1018 l 613 1114 l 526 1018 l 361 1018 z "},"Ấ":{"ha":1003,"x_min":-75,"x_max":1089,"o":"m 0 0 m -75 0 l 464 953 l 717 953 l 921 0 l 715 0 l 678 182 l 240 182 l 140 0 l -75 0 m 644 350 l 597 592 q 581 689 592 621 q 568 779 571 757 l 561 779 q 516 689 550 757 q 465 592 482 621 l 335 350 l 644 350 m 361 1018 l 539 1206 l 708 1206 l 822 1018 l 675 1018 l 613 1114 l 526 1018 l 361 1018 m 754 1154 l 896 1338 l 1088 1338 l 1089 1333 l 907 1154 l 754 1154 z "},"Ậ":{"ha":1003,"x_min":-75,"x_max":921,"o":"m 0 0 m -75 0 l 464 953 l 717 953 l 921 0 l 715 0 l 678 182 l 240 182 l 140 0 l -75 0 m 644 350 l 597 592 q 581 689 592 621 q 568 779 571 757 l 561 779 q 516 689 550 757 q 465 592 482 621 l 335 350 l 644 350 m 361 1018 l 539 1206 l 708 1206 l 822 1018 l 675 1018 l 613 1114 l 526 1018 l 361 1018 m 301 -240 l 333 -60 l 521 -60 l 489 -240 l 301 -240 z "},"Ầ":{"ha":1003,"x_min":-75,"x_max":956,"o":"m 0 0 m -75 0 l 464 953 l 717 953 l 921 0 l 715 0 l 678 182 l 240 182 l 140 0 l -75 0 m 644 350 l 597 592 q 581 689 592 621 q 568 779 571 757 l 561 779 q 516 689 550 757 q 465 592 482 621 l 335 350 l 644 350 m 361 1018 l 539 1206 l 708 1206 l 822 1018 l 675 1018 l 613 1114 l 526 1018 l 361 1018 m 817 1154 l 699 1333 l 700 1338 l 878 1338 l 956 1154 l 817 1154 z "},"Ẩ":{"ha":1003,"x_min":-75,"x_max":1018,"o":"m 0 0 m -75 0 l 464 953 l 717 953 l 921 0 l 715 0 l 678 182 l 240 182 l 140 0 l -75 0 m 644 350 l 597 592 q 581 689 592 621 q 568 779 571 757 l 561 779 q 516 689 550 757 q 465 592 482 621 l 335 350 l 644 350 m 361 1018 l 539 1206 l 708 1206 l 822 1018 l 675 1018 l 613 1114 l 526 1018 l 361 1018 m 797 1229 l 817 1229 q 854 1237 843 1229 q 865 1261 865 1244 q 855 1278 865 1274 q 821 1282 844 1282 l 740 1282 l 751 1343 q 869 1354 807 1354 q 973 1338 928 1354 q 1018 1282 1018 1321 q 980 1215 1018 1238 q 885 1189 942 1193 l 878 1154 l 783 1154 l 797 1229 z "},"Ẫ":{"ha":1003,"x_min":-75,"x_max":921,"o":"m 0 0 m -75 0 l 464 953 l 717 953 l 921 0 l 715 0 l 678 182 l 240 182 l 140 0 l -75 0 m 644 350 l 597 592 q 581 689 592 621 q 568 779 571 757 l 561 779 q 516 689 550 757 q 465 592 482 621 l 335 350 l 644 350 m 361 1018 l 539 1206 l 708 1206 l 822 1018 l 675 1018 l 613 1114 l 526 1018 l 361 1018 m 403 1258 q 455 1380 415 1332 q 560 1428 494 1428 q 603 1422 583 1428 q 656 1401 624 1415 q 703 1383 683 1389 q 743 1376 722 1376 q 777 1388 764 1376 q 800 1428 790 1400 l 897 1428 q 844 1306 885 1354 q 738 1258 804 1258 q 695 1265 715 1258 q 643 1285 675 1271 q 596 1303 615 1297 q 556 1310 576 1310 q 522 1298 535 1310 q 499 1258 508 1286 l 403 1258 z "},"Ȁ":{"ha":1003,"x_min":-75,"x_max":921,"o":"m 0 0 m -75 0 l 464 953 l 717 953 l 921 0 l 715 0 l 678 182 l 240 182 l 140 0 l -75 0 m 644 350 l 597 592 q 581 689 592 621 q 568 779 571 757 l 561 779 q 516 689 550 757 q 465 592 482 621 l 335 350 l 644 350 m 435 1022 l 317 1201 l 319 1206 l 504 1206 l 581 1022 l 435 1022 m 678 1022 l 560 1201 l 563 1206 l 747 1206 l 824 1022 l 678 1022 z "},"Ä":{"ha":1003,"x_min":-75,"x_max":921,"o":"m 0 0 m -75 0 l 464 953 l 717 953 l 921 0 l 715 0 l 678 182 l 240 182 l 140 0 l -75 0 m 644 350 l 597 592 q 581 689 592 621 q 568 779 571 757 l 561 779 q 516 689 550 757 q 465 592 482 621 l 335 350 l 644 350 m 379 1042 l 407 1206 l 571 1206 l 542 1042 l 379 1042 m 669 1042 l 699 1206 l 864 1206 l 835 1042 l 669 1042 z "},"Ạ":{"ha":1003,"x_min":-75,"x_max":921,"o":"m 0 0 m -75 0 l 464 953 l 717 953 l 921 0 l 715 0 l 678 182 l 240 182 l 140 0 l -75 0 m 644 350 l 597 592 q 581 689 592 621 q 568 779 571 757 l 561 779 q 516 689 550 757 q 465 592 482 621 l 335 350 l 644 350 m 301 -240 l 333 -60 l 521 -60 l 489 -240 l 301 -240 z "},"À":{"ha":1003,"x_min":-75,"x_max":921,"o":"m 0 0 m -75 0 l 464 953 l 717 953 l 921 0 l 715 0 l 678 182 l 240 182 l 140 0 l -75 0 m 644 350 l 597 592 q 581 689 592 621 q 568 779 571 757 l 561 779 q 516 689 550 757 q 465 592 482 621 l 335 350 l 644 350 m 532 1022 l 414 1201 l 415 1206 l 593 1206 l 671 1022 l 532 1022 z "},"Ả":{"ha":1003,"x_min":-75,"x_max":921,"o":"m 0 0 m -75 0 l 464 953 l 717 953 l 921 0 l 715 0 l 678 182 l 240 182 l 140 0 l -75 0 m 644 350 l 597 592 q 581 689 592 621 q 568 779 571 757 l 561 779 q 516 689 550 757 q 465 592 482 621 l 335 350 l 644 350 m 569 1097 l 589 1097 q 626 1105 615 1097 q 638 1129 638 1113 q 627 1146 638 1142 q 593 1150 617 1150 l 513 1150 l 524 1211 q 642 1222 579 1222 q 745 1206 700 1222 q 790 1150 790 1189 q 752 1083 790 1106 q 657 1057 714 1061 l 650 1022 l 556 1022 l 569 1097 z "},"Ȃ":{"ha":1003,"x_min":-75,"x_max":921,"o":"m 0 0 m -75 0 l 464 953 l 717 953 l 921 0 l 715 0 l 678 182 l 240 182 l 140 0 l -75 0 m 644 350 l 597 592 q 581 689 592 621 q 568 779 571 757 l 561 779 q 516 689 550 757 q 465 592 482 621 l 335 350 l 644 350 m 376 1015 q 449 1151 390 1096 q 633 1206 508 1206 q 737 1182 693 1206 q 803 1120 781 1158 q 826 1040 826 1082 q 825 1015 826 1024 l 700 1015 q 678 1061 701 1040 q 611 1082 656 1082 q 538 1061 567 1082 q 501 1015 508 1040 l 376 1015 z "},"Ā":{"ha":1003,"x_min":-75,"x_max":921,"o":"m 0 0 m -75 0 l 464 953 l 717 953 l 921 0 l 715 0 l 678 182 l 240 182 l 140 0 l -75 0 m 644 350 l 597 592 q 581 689 592 621 q 568 779 571 757 l 561 779 q 516 689 550 757 q 465 592 482 621 l 335 350 l 644 350 m 397 1050 l 418 1172 l 842 1172 l 821 1050 l 397 1050 z "},"Ą":{"ha":1003,"x_min":-75,"x_max":921,"o":"m 771 -253 q 674 -227 713 -253 q 636 -146 636 -201 q 658 -66 636 -101 q 715 0 679 -31 l 678 182 l 240 182 l 140 0 l -75 0 l 464 953 l 717 953 l 921 0 l 842 0 q 806 -49 821 -21 q 792 -104 792 -76 q 808 -142 792 -128 q 861 -157 825 -157 l 894 -157 l 881 -233 q 771 -253 818 -253 m 644 350 l 597 592 q 581 689 592 621 q 568 779 571 757 l 561 779 q 516 689 550 757 q 465 592 482 621 l 335 350 l 644 350 z "},"Å":{"ha":1003,"x_min":-75,"x_max":921,"o":"m 0 0 m -75 0 l 464 953 l 717 953 l 921 0 l 715 0 l 678 182 l 240 182 l 140 0 l -75 0 m 644 350 l 597 592 q 581 689 592 621 q 568 779 571 757 l 561 779 q 516 689 550 757 q 465 592 482 621 l 335 350 l 644 350 m 597 974 q 506 1006 539 974 q 472 1090 472 1039 q 517 1206 472 1157 q 632 1254 563 1254 q 724 1221 692 1254 q 757 1135 757 1188 q 711 1021 757 1068 q 597 974 665 974 m 604 1053 q 656 1074 633 1053 q 678 1125 678 1096 q 663 1161 678 1147 q 625 1175 649 1175 q 574 1153 594 1175 q 553 1100 553 1132 q 567 1066 553 1079 q 604 1053 581 1053 z "},"Ǻ":{"ha":1003,"x_min":-75,"x_max":921,"o":"m 549 1196 l 690 1379 l 882 1379 l 883 1375 l 701 1196 l 549 1196 m 464 953 q 457 996 457 968 q 502 1111 457 1063 q 617 1160 547 1160 q 709 1126 676 1160 q 742 1040 742 1093 q 717 953 742 993 l 921 0 l 715 0 l 678 182 l 240 182 l 140 0 l -75 0 l 464 953 m 589 958 q 640 980 618 958 q 663 1031 663 1001 q 648 1067 663 1053 q 610 1081 633 1081 q 558 1059 579 1081 q 538 1006 538 1038 q 551 972 538 985 q 589 958 565 958 m 644 350 l 597 592 q 581 689 592 621 q 568 779 571 757 l 561 779 q 516 689 550 757 q 465 592 482 621 l 335 350 l 644 350 z "},"Ã":{"ha":1003,"x_min":-75,"x_max":921,"o":"m 0 0 m -75 0 l 464 953 l 717 953 l 921 0 l 715 0 l 678 182 l 240 182 l 140 0 l -75 0 m 644 350 l 597 592 q 581 689 592 621 q 568 779 571 757 l 561 779 q 516 689 550 757 q 465 592 482 621 l 335 350 l 644 350 m 372 1036 q 424 1158 385 1110 q 529 1206 464 1206 q 573 1199 553 1206 q 625 1179 593 1193 q 672 1160 653 1167 q 713 1154 692 1154 q 747 1166 733 1154 q 769 1206 760 1178 l 867 1206 q 814 1084 854 1132 q 707 1036 774 1036 q 665 1042 685 1036 q 613 1063 644 1049 q 565 1081 585 1075 q 525 1088 546 1088 q 491 1076 504 1088 q 468 1036 478 1064 l 372 1036 z "},"Æ":{"ha":1389,"x_min":-86,"x_max":1392,"o":"m -86 0 l 542 953 l 1392 953 l 1361 782 l 824 782 l 843 572 l 1264 572 l 1233 401 l 858 401 l 879 171 l 1263 171 l 1232 0 l 701 0 l 686 182 l 247 182 l 132 0 l -86 0 m 354 350 l 672 350 l 638 782 l 631 782 l 354 350 z "},"Ǽ":{"ha":1389,"x_min":-86,"x_max":1392,"o":"m 0 0 m -86 0 l 542 953 l 1392 953 l 1361 782 l 824 782 l 843 572 l 1264 572 l 1233 401 l 858 401 l 879 171 l 1263 171 l 1232 0 l 701 0 l 686 182 l 247 182 l 132 0 l -86 0 m 354 350 l 672 350 l 638 782 l 631 782 l 354 350 m 738 1022 l 879 1206 l 1071 1206 l 1072 1201 l 890 1022 l 738 1022 z "},"B":{"ha":1003,"x_min":13,"x_max":956,"o":"m 181 953 l 643 953 q 873 896 790 953 q 956 729 956 839 q 899 580 956 644 q 757 500 842 515 l 757 494 q 863 417 822 472 q 903 286 903 363 q 853 128 903 192 q 723 32 804 64 q 544 0 642 0 l 13 0 l 181 953 m 603 572 q 706 607 672 572 q 740 690 740 642 q 712 758 740 735 q 640 782 683 782 l 353 782 l 317 572 l 603 572 m 542 171 q 653 204 608 171 q 697 299 697 238 q 666 376 697 347 q 571 404 635 404 l 286 404 l 246 171 l 542 171 z "},"C":{"ha":1003,"x_min":47,"x_max":976,"o":"m 449 -17 q 47 356 47 -17 q 98 642 47 508 q 250 860 149 775 q 399 941 314 913 q 588 969 485 969 q 869 894 763 969 q 976 675 976 819 q 969 599 976 643 l 763 599 q 767 640 767 619 q 716 758 767 718 q 581 799 665 799 q 374 719 453 799 q 271 497 296 639 q 254 361 254 406 q 456 154 254 154 q 635 207 563 154 q 726 353 708 260 l 926 353 q 838 148 906 231 q 669 24 769 65 q 449 -17 568 -17 z "},"Ć":{"ha":1003,"x_min":47,"x_max":976,"o":"m 47 0 m 449 -17 q 47 356 47 -17 q 98 642 47 508 q 250 860 149 775 q 399 941 314 913 q 588 969 485 969 q 869 894 763 969 q 976 675 976 819 q 969 599 976 643 l 763 599 q 767 640 767 619 q 716 758 767 718 q 581 799 665 799 q 374 719 453 799 q 271 497 296 639 q 254 361 254 406 q 456 154 254 154 q 635 207 563 154 q 726 353 708 260 l 926 353 q 838 148 906 231 q 669 24 769 65 q 449 -17 568 -17 m 524 1022 l 665 1206 l 857 1206 l 858 1201 l 676 1022 l 524 1022 z "},"Č":{"ha":1003,"x_min":47,"x_max":976,"o":"m 47 0 m 449 -17 q 47 356 47 -17 q 98 642 47 508 q 250 860 149 775 q 399 941 314 913 q 588 969 485 969 q 869 894 763 969 q 976 675 976 819 q 969 599 976 643 l 763 599 q 767 640 767 619 q 716 758 767 718 q 581 799 665 799 q 374 719 453 799 q 271 497 296 639 q 254 361 254 406 q 456 154 254 154 q 635 207 563 154 q 726 353 708 260 l 926 353 q 838 148 906 231 q 669 24 769 65 q 449 -17 568 -17 m 515 1018 l 401 1206 l 550 1206 l 613 1110 l 699 1206 l 863 1206 l 685 1018 l 515 1018 z "},"Ç":{"ha":1003,"x_min":47,"x_max":976,"o":"m 763 599 q 767 640 767 619 q 716 758 767 718 q 581 799 665 799 q 374 719 453 799 q 271 497 296 639 q 254 361 254 406 q 456 154 254 154 q 635 207 563 154 q 726 353 708 260 l 926 353 q 778 88 897 182 q 488 -15 658 -6 l 478 -46 q 565 -72 532 -49 q 599 -136 599 -94 q 532 -226 599 -200 q 388 -253 465 -253 q 246 -242 310 -253 l 258 -174 l 381 -174 q 431 -165 414 -174 q 449 -133 449 -156 q 437 -113 449 -119 q 396 -107 425 -107 l 339 -107 l 369 -12 q 47 356 47 21 q 98 642 47 508 q 250 860 149 775 q 399 941 314 913 q 588 969 485 969 q 869 894 763 969 q 976 675 976 819 q 969 599 976 643 l 763 599 z "},"Ĉ":{"ha":1003,"x_min":47,"x_max":976,"o":"m 47 0 m 449 -17 q 47 356 47 -17 q 98 642 47 508 q 250 860 149 775 q 399 941 314 913 q 588 969 485 969 q 869 894 763 969 q 976 675 976 819 q 969 599 976 643 l 763 599 q 767 640 767 619 q 716 758 767 718 q 581 799 665 799 q 374 719 453 799 q 271 497 296 639 q 254 361 254 406 q 456 154 254 154 q 635 207 563 154 q 726 353 708 260 l 926 353 q 838 148 906 231 q 669 24 769 65 q 449 -17 568 -17 m 360 1018 l 538 1206 l 707 1206 l 821 1018 l 674 1018 l 611 1114 l 525 1018 l 360 1018 z "},"Ċ":{"ha":1003,"x_min":47,"x_max":976,"o":"m 47 0 m 449 -17 q 47 356 47 -17 q 98 642 47 508 q 250 860 149 775 q 399 941 314 913 q 588 969 485 969 q 869 894 763 969 q 976 675 976 819 q 969 599 976 643 l 763 599 q 767 640 767 619 q 716 758 767 718 q 581 799 665 799 q 374 719 453 799 q 271 497 296 639 q 254 361 254 406 q 456 154 254 154 q 635 207 563 154 q 726 353 708 260 l 926 353 q 838 148 906 231 q 669 24 769 65 q 449 -17 568 -17 m 507 1026 l 539 1207 l 726 1207 l 694 1026 l 507 1026 z "},"D":{"ha":1003,"x_min":13,"x_max":960,"o":"m 181 953 l 561 953 q 857 859 754 953 q 960 578 960 765 q 920 337 960 450 q 804 144 881 224 q 644 38 738 75 q 435 0 550 0 l 13 0 l 181 953 m 424 171 q 631 246 550 171 q 736 456 713 321 q 751 579 751 543 q 699 729 751 676 q 544 782 646 782 l 351 782 l 244 171 l 424 171 z "},"Ǳ":{"ha":1851,"x_min":13,"x_max":1894,"o":"m 13 0 m 181 953 l 561 953 q 857 859 754 953 q 960 578 960 765 q 920 337 960 450 q 804 144 881 224 q 644 38 738 75 q 435 0 550 0 l 13 0 l 181 953 m 424 171 q 631 246 550 171 q 736 456 713 321 q 751 579 751 543 q 699 729 751 676 q 544 782 646 782 l 351 782 l 244 171 l 424 171 m 950 0 l 967 94 l 1553 782 l 1122 782 l 1153 953 l 1894 953 l 1878 857 l 1292 171 l 1769 171 l 1739 0 l 950 0 z "},"Ǆ":{"ha":1851,"x_min":13,"x_max":1894,"o":"m 13 0 m 181 953 l 561 953 q 857 859 754 953 q 960 578 960 765 q 920 337 960 450 q 804 144 881 224 q 644 38 738 75 q 435 0 550 0 l 13 0 l 181 953 m 424 171 q 631 246 550 171 q 736 456 713 321 q 751 579 751 543 q 699 729 751 676 q 544 782 646 782 l 351 782 l 244 171 l 424 171 m 950 0 l 967 94 l 1553 782 l 1122 782 l 1153 953 l 1894 953 l 1878 857 l 1292 171 l 1769 171 l 1739 0 l 950 0 m 1421 1018 l 1307 1206 l 1456 1206 l 1518 1110 l 1604 1206 l 1768 1206 l 1590 1018 l 1421 1018 z "},"Ð":{"ha":1003,"x_min":3,"x_max":960,"o":"m 561 953 q 857 859 754 953 q 960 578 960 765 q 920 337 960 450 q 804 144 881 224 q 644 38 738 75 q 435 0 550 0 l 13 0 l 89 433 l 3 433 l 22 551 l 110 551 l 181 953 l 561 953 m 736 456 q 751 579 751 543 q 699 729 751 676 q 544 782 646 782 l 351 782 l 311 551 l 504 551 l 483 433 l 290 433 l 244 171 l 424 171 q 631 246 550 171 q 736 456 713 321 z "},"Ď":{"ha":1003,"x_min":13,"x_max":960,"o":"m 13 0 m 181 953 l 561 953 q 857 859 754 953 q 960 578 960 765 q 920 337 960 450 q 804 144 881 224 q 644 38 738 75 q 435 0 550 0 l 13 0 l 181 953 m 424 171 q 631 246 550 171 q 736 456 713 321 q 751 579 751 543 q 699 729 751 676 q 544 782 646 782 l 351 782 l 244 171 l 424 171 m 481 1018 l 367 1206 l 515 1206 l 578 1110 l 664 1206 l 828 1206 l 650 1018 l 481 1018 z "},"Đ":{"ha":1003,"x_min":3,"x_max":960,"o":"m 3 0 m 561 953 q 857 859 754 953 q 960 578 960 765 q 920 337 960 450 q 804 144 881 224 q 644 38 738 75 q 435 0 550 0 l 13 0 l 89 433 l 3 433 l 22 551 l 110 551 l 181 953 l 561 953 m 736 456 q 751 579 751 543 q 699 729 751 676 q 544 782 646 782 l 351 782 l 311 551 l 504 551 l 483 433 l 290 433 l 244 171 l 424 171 q 631 246 550 171 q 736 456 713 321 z "},"Ḍ":{"ha":1003,"x_min":13,"x_max":960,"o":"m 13 0 m 181 953 l 561 953 q 857 859 754 953 q 960 578 960 765 q 920 337 960 450 q 804 144 881 224 q 644 38 738 75 q 435 0 550 0 l 13 0 l 181 953 m 424 171 q 631 246 550 171 q 736 456 713 321 q 751 579 751 543 q 699 729 751 676 q 544 782 646 782 l 351 782 l 244 171 l 424 171 m 301 -240 l 333 -60 l 521 -60 l 489 -240 l 301 -240 z "},"ǲ":{"ha":1697,"x_min":13,"x_max":1718,"o":"m 13 0 m 181 953 l 561 953 q 857 859 754 953 q 960 578 960 765 q 920 337 960 450 q 804 144 881 224 q 644 38 738 75 q 435 0 550 0 l 13 0 l 181 953 m 424 171 q 631 246 550 171 q 736 456 713 321 q 751 579 751 543 q 699 729 751 676 q 544 782 646 782 l 351 782 l 244 171 l 424 171 m 968 0 l 983 85 l 1400 575 l 1089 575 l 1117 731 l 1718 731 l 1703 647 l 1283 156 l 1629 156 l 1601 0 l 968 0 z "},"ǅ":{"ha":1697,"x_min":13,"x_max":1718,"o":"m 13 0 m 181 953 l 561 953 q 857 859 754 953 q 960 578 960 765 q 920 337 960 450 q 804 144 881 224 q 644 38 738 75 q 435 0 550 0 l 13 0 l 181 953 m 424 171 q 631 246 550 171 q 736 456 713 321 q 751 579 751 543 q 699 729 751 676 q 544 782 646 782 l 351 782 l 244 171 l 424 171 m 968 0 l 983 85 l 1400 575 l 1089 575 l 1117 731 l 1718 731 l 1703 647 l 1283 156 l 1629 156 l 1601 0 l 968 0 m 1344 817 l 1231 1004 l 1379 1004 l 1442 908 l 1528 1004 l 1692 1004 l 1514 817 l 1344 817 z "},"E":{"ha":926,"x_min":13,"x_max":929,"o":"m 13 0 l 181 953 l 929 953 l 899 782 l 351 782 l 315 572 l 801 572 l 771 401 l 285 401 l 244 171 l 800 171 l 769 0 l 13 0 z "},"É":{"ha":926,"x_min":13,"x_max":929,"o":"m 13 0 m 13 0 l 181 953 l 929 953 l 899 782 l 351 782 l 315 572 l 801 572 l 771 401 l 285 401 l 244 171 l 800 171 l 769 0 l 13 0 m 493 1022 l 635 1206 l 826 1206 l 828 1201 l 646 1022 l 493 1022 z "},"Ĕ":{"ha":926,"x_min":13,"x_max":929,"o":"m 13 0 m 13 0 l 181 953 l 929 953 l 899 782 l 351 782 l 315 572 l 801 572 l 771 401 l 285 401 l 244 171 l 800 171 l 769 0 l 13 0 m 569 1015 q 410 1059 460 1015 q 360 1171 360 1103 q 363 1206 360 1194 l 488 1206 q 508 1158 488 1178 q 574 1139 528 1139 q 648 1160 618 1139 q 686 1206 678 1181 l 811 1206 q 781 1126 803 1165 q 724 1061 758 1088 q 569 1015 663 1015 z "},"Ě":{"ha":926,"x_min":13,"x_max":929,"o":"m 13 0 m 13 0 l 181 953 l 929 953 l 899 782 l 351 782 l 315 572 l 801 572 l 771 401 l 285 401 l 244 171 l 800 171 l 769 0 l 13 0 m 485 1018 l 371 1206 l 519 1206 l 582 1110 l 668 1206 l 832 1206 l 654 1018 l 485 1018 z "},"Ê":{"ha":926,"x_min":13,"x_max":929,"o":"m 13 0 m 13 0 l 181 953 l 929 953 l 899 782 l 351 782 l 315 572 l 801 572 l 771 401 l 285 401 l 244 171 l 800 171 l 769 0 l 13 0 m 329 1018 l 507 1206 l 676 1206 l 790 1018 l 643 1018 l 581 1114 l 494 1018 l 329 1018 z "},"Ế":{"ha":926,"x_min":13,"x_max":1057,"o":"m 13 0 m 13 0 l 181 953 l 929 953 l 899 782 l 351 782 l 315 572 l 801 572 l 771 401 l 285 401 l 244 171 l 800 171 l 769 0 l 13 0 m 329 1018 l 507 1206 l 676 1206 l 790 1018 l 643 1018 l 581 1114 l 494 1018 l 329 1018 m 722 1154 l 864 1338 l 1056 1338 l 1057 1333 l 875 1154 l 722 1154 z "},"Ệ":{"ha":926,"x_min":13,"x_max":929,"o":"m 13 0 m 13 0 l 181 953 l 929 953 l 899 782 l 351 782 l 315 572 l 801 572 l 771 401 l 285 401 l 244 171 l 800 171 l 769 0 l 13 0 m 329 1018 l 507 1206 l 676 1206 l 790 1018 l 643 1018 l 581 1114 l 494 1018 l 329 1018 m 264 -240 l 296 -60 l 483 -60 l 451 -240 l 264 -240 z "},"Ề":{"ha":926,"x_min":13,"x_max":929,"o":"m 13 0 m 13 0 l 181 953 l 929 953 l 899 782 l 351 782 l 315 572 l 801 572 l 771 401 l 285 401 l 244 171 l 800 171 l 769 0 l 13 0 m 329 1018 l 507 1206 l 676 1206 l 790 1018 l 643 1018 l 581 1114 l 494 1018 l 329 1018 m 785 1154 l 667 1333 l 668 1338 l 846 1338 l 924 1154 l 785 1154 z "},"Ể":{"ha":926,"x_min":13,"x_max":986,"o":"m 13 0 m 13 0 l 181 953 l 929 953 l 899 782 l 351 782 l 315 572 l 801 572 l 771 401 l 285 401 l 244 171 l 800 171 l 769 0 l 13 0 m 329 1018 l 507 1206 l 676 1206 l 790 1018 l 643 1018 l 581 1114 l 494 1018 l 329 1018 m 765 1229 l 785 1229 q 822 1237 811 1229 q 833 1261 833 1244 q 823 1278 833 1274 q 789 1282 813 1282 l 708 1282 l 719 1343 q 838 1354 775 1354 q 941 1338 896 1354 q 986 1282 986 1321 q 948 1215 986 1238 q 853 1189 910 1193 l 846 1154 l 751 1154 l 765 1229 z "},"Ễ":{"ha":926,"x_min":13,"x_max":929,"o":"m 13 0 m 13 0 l 181 953 l 929 953 l 899 782 l 351 782 l 315 572 l 801 572 l 771 401 l 285 401 l 244 171 l 800 171 l 769 0 l 13 0 m 329 1018 l 507 1206 l 676 1206 l 790 1018 l 643 1018 l 581 1114 l 494 1018 l 329 1018 m 371 1258 q 423 1380 383 1332 q 528 1428 463 1428 q 572 1422 551 1428 q 624 1401 592 1415 q 671 1383 651 1389 q 711 1376 690 1376 q 745 1388 732 1376 q 768 1428 758 1400 l 865 1428 q 813 1306 853 1354 q 706 1258 772 1258 q 663 1265 683 1258 q 611 1285 643 1271 q 564 1303 583 1297 q 524 1310 544 1310 q 490 1298 503 1310 q 467 1258 476 1286 l 371 1258 z "},"Ȅ":{"ha":926,"x_min":13,"x_max":929,"o":"m 13 0 m 13 0 l 181 953 l 929 953 l 899 782 l 351 782 l 315 572 l 801 572 l 771 401 l 285 401 l 244 171 l 800 171 l 769 0 l 13 0 m 403 1022 l 285 1201 l 288 1206 l 472 1206 l 549 1022 l 403 1022 m 646 1022 l 528 1201 l 531 1206 l 715 1206 l 792 1022 l 646 1022 z "},"Ë":{"ha":926,"x_min":13,"x_max":929,"o":"m 13 0 m 13 0 l 181 953 l 929 953 l 899 782 l 351 782 l 315 572 l 801 572 l 771 401 l 285 401 l 244 171 l 800 171 l 769 0 l 13 0 m 347 1042 l 375 1206 l 539 1206 l 510 1042 l 347 1042 m 638 1042 l 667 1206 l 832 1206 l 803 1042 l 638 1042 z "},"Ė":{"ha":926,"x_min":13,"x_max":929,"o":"m 13 0 m 13 0 l 181 953 l 929 953 l 899 782 l 351 782 l 315 572 l 801 572 l 771 401 l 285 401 l 244 171 l 800 171 l 769 0 l 13 0 m 476 1026 l 508 1207 l 696 1207 l 664 1026 l 476 1026 z "},"Ẹ":{"ha":926,"x_min":13,"x_max":929,"o":"m 13 0 m 13 0 l 181 953 l 929 953 l 899 782 l 351 782 l 315 572 l 801 572 l 771 401 l 285 401 l 244 171 l 800 171 l 769 0 l 13 0 m 264 -240 l 296 -60 l 483 -60 l 451 -240 l 264 -240 z "},"È":{"ha":926,"x_min":13,"x_max":929,"o":"m 13 0 m 13 0 l 181 953 l 929 953 l 899 782 l 351 782 l 315 572 l 801 572 l 771 401 l 285 401 l 244 171 l 800 171 l 769 0 l 13 0 m 500 1022 l 382 1201 l 383 1206 l 561 1206 l 639 1022 l 500 1022 z "},"Ẻ":{"ha":926,"x_min":13,"x_max":929,"o":"m 13 0 m 13 0 l 181 953 l 929 953 l 899 782 l 351 782 l 315 572 l 801 572 l 771 401 l 285 401 l 244 171 l 800 171 l 769 0 l 13 0 m 538 1097 l 557 1097 q 594 1105 583 1097 q 606 1129 606 1113 q 595 1146 606 1142 q 561 1150 585 1150 l 481 1150 l 492 1211 q 610 1222 547 1222 q 713 1206 668 1222 q 758 1150 758 1189 q 720 1083 758 1106 q 625 1057 682 1061 l 618 1022 l 524 1022 l 538 1097 z "},"Ȇ":{"ha":926,"x_min":13,"x_max":929,"o":"m 13 0 m 13 0 l 181 953 l 929 953 l 899 782 l 351 782 l 315 572 l 801 572 l 771 401 l 285 401 l 244 171 l 800 171 l 769 0 l 13 0 m 344 1015 q 417 1151 358 1096 q 601 1206 476 1206 q 705 1182 661 1206 q 772 1120 749 1158 q 794 1040 794 1082 q 793 1015 794 1024 l 668 1015 q 647 1061 669 1040 q 579 1082 624 1082 q 506 1061 535 1082 q 469 1015 476 1040 l 344 1015 z "},"Ē":{"ha":926,"x_min":13,"x_max":929,"o":"m 13 0 m 13 0 l 181 953 l 929 953 l 899 782 l 351 782 l 315 572 l 801 572 l 771 401 l 285 401 l 244 171 l 800 171 l 769 0 l 13 0 m 365 1050 l 386 1172 l 810 1172 l 789 1050 l 365 1050 z "},"Ę":{"ha":926,"x_min":13,"x_max":929,"o":"m 625 -253 q 534 -230 572 -253 q 496 -158 496 -207 q 617 0 496 -62 l 13 0 l 181 953 l 929 953 l 899 782 l 351 782 l 315 572 l 801 572 l 771 401 l 285 401 l 244 171 l 800 171 l 769 0 q 688 -51 725 -18 q 651 -114 651 -83 q 667 -144 651 -132 q 708 -157 682 -157 l 742 -157 l 728 -233 q 625 -253 669 -253 z "},"Ẽ":{"ha":926,"x_min":13,"x_max":929,"o":"m 13 0 m 13 0 l 181 953 l 929 953 l 899 782 l 351 782 l 315 572 l 801 572 l 771 401 l 285 401 l 244 171 l 800 171 l 769 0 l 13 0 m 340 1036 q 392 1158 353 1110 q 497 1206 432 1206 q 541 1199 521 1206 q 593 1179 561 1193 q 640 1160 621 1167 q 681 1154 660 1154 q 715 1166 701 1154 q 738 1206 728 1178 l 835 1206 q 782 1084 822 1132 q 675 1036 742 1036 q 633 1042 653 1036 q 581 1063 613 1049 q 533 1081 553 1075 q 493 1088 514 1088 q 459 1076 472 1088 q 436 1036 446 1064 l 340 1036 z "},"F":{"ha":849,"x_min":13,"x_max":871,"o":"m 13 0 l 181 953 l 871 953 l 840 782 l 351 782 l 310 547 l 747 547 l 718 376 l 281 376 l 214 0 l 13 0 z "},"G":{"ha":1081,"x_min":47,"x_max":1031,"o":"m 817 628 q 818 653 818 636 q 760 759 818 719 q 619 799 703 799 q 383 721 471 799 q 271 497 294 643 q 254 361 254 396 q 465 154 254 154 q 669 208 582 154 q 774 353 757 263 l 486 353 l 515 518 l 1006 518 l 914 0 l 775 0 l 775 106 q 624 14 700 44 q 449 -17 549 -17 q 47 358 47 -17 q 96 633 47 506 q 239 842 144 760 q 405 937 310 904 q 615 969 500 969 q 913 897 796 969 q 1031 688 1031 825 q 1025 628 1031 656 l 817 628 z "},"Ǵ":{"ha":1081,"x_min":47,"x_max":1031,"o":"m 47 0 m 817 628 q 818 653 818 636 q 760 759 818 719 q 619 799 703 799 q 383 721 471 799 q 271 497 294 643 q 254 361 254 396 q 465 154 254 154 q 669 208 582 154 q 774 353 757 263 l 486 353 l 515 518 l 1006 518 l 914 0 l 775 0 l 775 106 q 624 14 700 44 q 449 -17 549 -17 q 47 358 47 -17 q 96 633 47 506 q 239 842 144 760 q 405 937 310 904 q 615 969 500 969 q 913 897 796 969 q 1031 688 1031 825 q 1025 628 1031 656 l 817 628 m 556 1022 l 697 1206 l 889 1206 l 890 1201 l 708 1022 l 556 1022 z "},"Ğ":{"ha":1081,"x_min":47,"x_max":1031,"o":"m 47 0 m 817 628 q 818 653 818 636 q 760 759 818 719 q 619 799 703 799 q 383 721 471 799 q 271 497 294 643 q 254 361 254 396 q 465 154 254 154 q 669 208 582 154 q 774 353 757 263 l 486 353 l 515 518 l 1006 518 l 914 0 l 775 0 l 775 106 q 624 14 700 44 q 449 -17 549 -17 q 47 358 47 -17 q 96 633 47 506 q 239 842 144 760 q 405 937 310 904 q 615 969 500 969 q 913 897 796 969 q 1031 688 1031 825 q 1025 628 1031 656 l 817 628 m 632 1015 q 472 1059 522 1015 q 422 1171 422 1103 q 425 1206 422 1194 l 550 1206 q 570 1158 550 1178 q 636 1139 590 1139 q 710 1160 681 1139 q 749 1206 740 1181 l 874 1206 q 843 1126 865 1165 q 786 1061 821 1088 q 632 1015 725 1015 z "},"Ǧ":{"ha":1081,"x_min":47,"x_max":1031,"o":"m 47 0 m 817 628 q 818 653 818 636 q 760 759 818 719 q 619 799 703 799 q 383 721 471 799 q 271 497 294 643 q 254 361 254 396 q 465 154 254 154 q 669 208 582 154 q 774 353 757 263 l 486 353 l 515 518 l 1006 518 l 914 0 l 775 0 l 775 106 q 624 14 700 44 q 449 -17 549 -17 q 47 358 47 -17 q 96 633 47 506 q 239 842 144 760 q 405 937 310 904 q 615 969 500 969 q 913 897 796 969 q 1031 688 1031 825 q 1025 628 1031 656 l 817 628 m 547 1018 l 433 1206 l 582 1206 l 644 1110 l 731 1206 l 894 1206 l 717 1018 l 547 1018 z "},"Ĝ":{"ha":1081,"x_min":47,"x_max":1031,"o":"m 47 0 m 817 628 q 818 653 818 636 q 760 759 818 719 q 619 799 703 799 q 383 721 471 799 q 271 497 294 643 q 254 361 254 396 q 465 154 254 154 q 669 208 582 154 q 774 353 757 263 l 486 353 l 515 518 l 1006 518 l 914 0 l 775 0 l 775 106 q 624 14 700 44 q 449 -17 549 -17 q 47 358 47 -17 q 96 633 47 506 q 239 842 144 760 q 405 937 310 904 q 615 969 500 969 q 913 897 796 969 q 1031 688 1031 825 q 1025 628 1031 656 l 817 628 m 392 1018 l 569 1206 l 739 1206 l 853 1018 l 706 1018 l 643 1114 l 557 1018 l 392 1018 z "},"Ģ":{"ha":1081,"x_min":47,"x_max":1031,"o":"m 47 0 m 817 628 q 818 653 818 636 q 760 759 818 719 q 619 799 703 799 q 383 721 471 799 q 271 497 294 643 q 254 361 254 396 q 465 154 254 154 q 669 208 582 154 q 774 353 757 263 l 486 353 l 515 518 l 1006 518 l 914 0 l 775 0 l 775 106 q 624 14 700 44 q 449 -17 549 -17 q 47 358 47 -17 q 96 633 47 506 q 239 842 144 760 q 405 937 310 904 q 615 969 500 969 q 913 897 796 969 q 1031 688 1031 825 q 1025 628 1031 656 l 817 628 m 326 -319 l 418 -192 l 346 -192 l 371 -56 l 563 -56 l 542 -175 l 428 -319 l 326 -319 z "},"Ġ":{"ha":1081,"x_min":47,"x_max":1031,"o":"m 47 0 m 817 628 q 818 653 818 636 q 760 759 818 719 q 619 799 703 799 q 383 721 471 799 q 271 497 294 643 q 254 361 254 396 q 465 154 254 154 q 669 208 582 154 q 774 353 757 263 l 486 353 l 515 518 l 1006 518 l 914 0 l 775 0 l 775 106 q 624 14 700 44 q 449 -17 549 -17 q 47 358 47 -17 q 96 633 47 506 q 239 842 144 760 q 405 937 310 904 q 615 969 500 969 q 913 897 796 969 q 1031 688 1031 825 q 1025 628 1031 656 l 817 628 m 539 1026 l 571 1207 l 758 1207 l 726 1026 l 539 1026 z "},"H":{"ha":1003,"x_min":13,"x_max":997,"o":"m 13 0 l 181 953 l 382 953 l 315 575 l 729 575 l 796 953 l 997 953 l 829 0 l 628 0 l 699 401 l 285 401 l 214 0 l 13 0 z "},"Ħ":{"ha":1003,"x_min":13,"x_max":1058,"o":"m 13 0 l 136 704 l 53 704 l 75 831 l 158 831 l 181 953 l 382 953 l 360 831 l 774 831 l 796 953 l 997 953 l 975 831 l 1058 831 l 1036 704 l 953 704 l 829 0 l 628 0 l 699 401 l 285 401 l 214 0 l 13 0 m 315 575 l 729 575 l 751 704 l 338 704 l 315 575 z "},"Ĥ":{"ha":1003,"x_min":13,"x_max":997,"o":"m 13 0 m 13 0 l 181 953 l 382 953 l 315 575 l 729 575 l 796 953 l 997 953 l 829 0 l 628 0 l 699 401 l 285 401 l 214 0 l 13 0 m 360 1018 l 538 1206 l 707 1206 l 821 1018 l 674 1018 l 611 1114 l 525 1018 l 360 1018 z "},"Ḥ":{"ha":1003,"x_min":13,"x_max":997,"o":"m 13 0 m 13 0 l 181 953 l 382 953 l 315 575 l 729 575 l 796 953 l 997 953 l 829 0 l 628 0 l 699 401 l 285 401 l 214 0 l 13 0 m 301 -240 l 333 -60 l 521 -60 l 489 -240 l 301 -240 z "},"I":{"ha":386,"x_min":13,"x_max":382,"o":"m 13 0 l 181 953 l 382 953 l 214 0 l 13 0 z "},"Ĳ":{"ha":1158,"x_min":13,"x_max":1158,"o":"m 13 0 m 13 0 l 181 953 l 382 953 l 214 0 l 13 0 m 690 -17 q 459 39 539 -17 q 379 201 379 94 q 396 328 379 251 l 596 328 q 582 243 582 274 q 606 174 582 196 q 689 153 631 153 q 788 184 750 153 q 835 271 825 215 l 956 953 l 1158 953 l 1038 268 q 924 56 1013 128 q 690 -17 836 -17 z "},"Í":{"ha":386,"x_min":13,"x_max":551,"o":"m 13 0 m 13 0 l 181 953 l 382 953 l 214 0 l 13 0 m 217 1022 l 358 1206 l 550 1206 l 551 1201 l 369 1022 l 217 1022 z "},"Ĭ":{"ha":386,"x_min":13,"x_max":535,"o":"m 13 0 m 13 0 l 181 953 l 382 953 l 214 0 l 13 0 m 293 1015 q 133 1059 183 1015 q 83 1171 83 1103 q 86 1206 83 1194 l 211 1206 q 231 1158 211 1178 q 297 1139 251 1139 q 372 1160 342 1139 q 410 1206 401 1181 l 535 1206 q 504 1126 526 1165 q 447 1061 482 1088 q 293 1015 386 1015 z "},"Ǐ":{"ha":386,"x_min":13,"x_max":556,"o":"m 13 0 m 13 0 l 181 953 l 382 953 l 214 0 l 13 0 m 208 1018 l 94 1206 l 243 1206 l 306 1110 l 392 1206 l 556 1206 l 378 1018 l 208 1018 z "},"Î":{"ha":386,"x_min":13,"x_max":514,"o":"m 13 0 m 13 0 l 181 953 l 382 953 l 214 0 l 13 0 m 53 1018 l 231 1206 l 400 1206 l 514 1018 l 367 1018 l 304 1114 l 218 1018 l 53 1018 z "},"Ȉ":{"ha":386,"x_min":8,"x_max":515,"o":"m 8 0 m 13 0 l 181 953 l 382 953 l 214 0 l 13 0 m 126 1022 l 8 1201 l 11 1206 l 196 1206 l 272 1022 l 126 1022 m 369 1022 l 251 1201 l 254 1206 l 439 1206 l 515 1022 l 369 1022 z "},"Ï":{"ha":386,"x_min":13,"x_max":556,"o":"m 13 0 m 13 0 l 181 953 l 382 953 l 214 0 l 13 0 m 71 1042 l 99 1206 l 263 1206 l 233 1042 l 71 1042 m 361 1042 l 390 1206 l 556 1206 l 526 1042 l 361 1042 z "},"İ":{"ha":386,"x_min":13,"x_max":419,"o":"m 13 0 m 13 0 l 181 953 l 382 953 l 214 0 l 13 0 m 200 1026 l 232 1207 l 419 1207 l 388 1026 l 200 1026 z "},"Ị":{"ha":386,"x_min":-22,"x_max":382,"o":"m 0 0 m 13 0 l 181 953 l 382 953 l 214 0 l 13 0 m -22 -240 l 10 -60 l 197 -60 l 165 -240 l -22 -240 z "},"Ì":{"ha":386,"x_min":13,"x_max":382,"o":"m 13 0 m 13 0 l 181 953 l 382 953 l 214 0 l 13 0 m 224 1022 l 106 1201 l 107 1206 l 285 1206 l 363 1022 l 224 1022 z "},"Ỉ":{"ha":386,"x_min":13,"x_max":482,"o":"m 13 0 m 13 0 l 181 953 l 382 953 l 214 0 l 13 0 m 261 1097 l 281 1097 q 318 1105 307 1097 q 329 1129 329 1113 q 319 1146 329 1142 q 285 1150 308 1150 l 204 1150 l 215 1211 q 333 1222 271 1222 q 437 1206 392 1222 q 482 1150 482 1189 q 444 1083 482 1106 q 349 1057 406 1061 l 342 1022 l 247 1022 l 261 1097 z "},"Ȋ":{"ha":386,"x_min":13,"x_max":518,"o":"m 13 0 m 13 0 l 181 953 l 382 953 l 214 0 l 13 0 m 68 1015 q 141 1151 82 1096 q 325 1206 200 1206 q 428 1182 385 1206 q 495 1120 472 1158 q 518 1040 518 1082 q 517 1015 518 1024 l 392 1015 q 370 1061 393 1040 q 303 1082 347 1082 q 229 1061 258 1082 q 193 1015 200 1040 l 68 1015 z "},"Ī":{"ha":386,"x_min":13,"x_max":533,"o":"m 13 0 m 13 0 l 181 953 l 382 953 l 214 0 l 13 0 m 89 1050 l 110 1172 l 533 1172 l 513 1050 l 89 1050 z "},"Į":{"ha":386,"x_min":-35,"x_max":382,"o":"m 183 0 q 140 -52 158 -21 q 121 -115 121 -83 q 134 -153 121 -139 q 176 -168 147 -168 l 210 -168 l 196 -244 q 93 -264 138 -264 q 2 -238 39 -264 q -35 -157 -35 -212 q -9 -72 -35 -108 q 58 0 17 -35 l 13 0 l 181 953 l 382 953 l 214 0 l 183 0 z "},"Ĩ":{"ha":386,"x_min":13,"x_max":558,"o":"m 13 0 m 13 0 l 181 953 l 382 953 l 214 0 l 13 0 m 64 1036 q 116 1158 76 1110 q 221 1206 156 1206 q 265 1199 244 1206 q 317 1179 285 1193 q 364 1160 344 1167 q 404 1154 383 1154 q 438 1166 425 1154 q 461 1206 451 1178 l 558 1206 q 506 1084 546 1132 q 399 1036 465 1036 q 356 1042 376 1036 q 304 1063 336 1049 q 257 1081 276 1075 q 217 1088 238 1088 q 183 1076 196 1088 q 160 1036 169 1064 l 64 1036 z "},"J":{"ha":772,"x_min":-7,"x_max":772,"o":"m 304 -17 q 73 39 153 -17 q -7 201 -7 94 q 10 328 -7 251 l 210 328 q 196 243 196 274 q 220 174 196 196 q 303 153 244 153 q 401 184 364 153 q 449 271 439 215 l 569 953 l 772 953 l 651 268 q 538 56 626 128 q 304 -17 450 -17 z "},"Ĵ":{"ha":772,"x_min":-7,"x_max":903,"o":"m 0 0 m 304 -17 q 73 39 153 -17 q -7 201 -7 94 q 10 328 -7 251 l 210 328 q 196 243 196 274 q 220 174 196 196 q 303 153 244 153 q 401 184 364 153 q 449 271 439 215 l 569 953 l 772 953 l 651 268 q 538 56 626 128 q 304 -17 450 -17 m 442 1018 l 619 1206 l 789 1206 l 903 1018 l 756 1018 l 693 1114 l 607 1018 l 442 1018 z "},"K":{"ha":1003,"x_min":13,"x_max":1067,"o":"m 13 0 l 181 953 l 382 953 l 303 504 l 801 953 l 1067 953 l 628 563 l 904 0 l 676 0 l 474 426 l 260 258 l 214 0 l 13 0 z "},"Ķ":{"ha":1003,"x_min":13,"x_max":1067,"o":"m 13 0 m 13 0 l 181 953 l 382 953 l 303 504 l 801 953 l 1067 953 l 628 563 l 904 0 l 676 0 l 474 426 l 260 258 l 214 0 l 13 0 m 288 -319 l 379 -192 l 307 -192 l 332 -56 l 524 -56 l 503 -175 l 389 -319 l 288 -319 z "},"L":{"ha":849,"x_min":13,"x_max":758,"o":"m 13 0 l 181 953 l 382 953 l 244 175 l 758 175 l 728 0 l 13 0 z "},"Ǉ":{"ha":1621,"x_min":13,"x_max":1621,"o":"m 13 0 m 13 0 l 181 953 l 382 953 l 244 175 l 758 175 l 728 0 l 13 0 m 1153 -17 q 922 39 1001 -17 q 842 201 842 94 q 858 328 842 251 l 1058 328 q 1044 243 1044 274 q 1069 174 1044 196 q 1151 153 1093 153 q 1250 184 1213 153 q 1297 271 1288 215 l 1418 953 l 1621 953 l 1500 268 q 1387 56 1475 128 q 1153 -17 1299 -17 z "},"Ĺ":{"ha":849,"x_min":13,"x_max":758,"o":"m 13 0 m 13 0 l 181 953 l 382 953 l 244 175 l 758 175 l 728 0 l 13 0 m 217 1022 l 358 1206 l 550 1206 l 551 1201 l 369 1022 l 217 1022 z "},"Ľ":{"ha":849,"x_min":13,"x_max":758,"o":"m 13 0 l 181 953 l 382 953 l 244 175 l 758 175 l 728 0 l 13 0 m 479 614 l 582 776 l 508 776 l 539 953 l 731 953 l 703 793 l 579 614 l 479 614 z "},"Ļ":{"ha":849,"x_min":13,"x_max":758,"o":"m 13 0 m 13 0 l 181 953 l 382 953 l 244 175 l 758 175 l 728 0 l 13 0 m 221 -319 l 313 -192 l 240 -192 l 265 -56 l 457 -56 l 436 -175 l 322 -319 l 221 -319 z "},"Ŀ":{"ha":849,"x_min":13,"x_max":758,"o":"m 13 0 m 13 0 l 181 953 l 382 953 l 244 175 l 758 175 l 728 0 l 13 0 m 469 540 l 504 731 l 696 731 l 661 540 l 469 540 z "},"ǈ":{"ha":1235,"x_min":13,"x_max":1233,"o":"m 13 0 m 13 0 l 181 953 l 382 953 l 244 175 l 758 175 l 728 0 l 13 0 m 1013 832 l 1043 1004 l 1233 1004 l 1203 832 l 1013 832 m 836 -253 q 760 -246 801 -253 q 696 -231 719 -239 l 718 -97 l 790 -97 q 860 -37 849 -97 l 996 731 l 1186 731 l 1047 -57 q 982 -197 1033 -140 q 836 -253 931 -253 z "},"Ł":{"ha":849,"x_min":-29,"x_max":758,"o":"m 13 0 l 72 342 l -29 281 l -4 422 l 97 483 l 181 953 l 382 953 l 322 617 l 542 746 l 517 604 l 297 475 l 244 175 l 758 175 l 728 0 l 13 0 z "},"M":{"ha":1157,"x_min":13,"x_max":1151,"o":"m 181 953 l 481 953 l 521 428 q 526 313 524 389 q 528 213 528 238 l 535 213 q 569 316 543 239 q 611 428 596 393 l 838 953 l 1151 953 l 983 0 l 782 0 l 889 607 q 908 695 897 649 q 924 760 919 742 l 917 760 l 867 644 l 590 0 l 392 0 l 347 644 l 339 760 l 332 760 q 324 686 331 742 q 314 607 318 631 l 207 0 l 13 0 l 181 953 z "},"N":{"ha":1003,"x_min":13,"x_max":997,"o":"m 181 953 l 376 953 l 649 414 q 672 363 660 390 q 688 325 683 335 l 694 325 l 706 406 l 801 953 l 997 953 l 829 0 l 633 0 l 361 543 q 335 598 346 574 q 322 631 325 622 l 315 631 q 311 596 314 621 q 304 547 308 571 l 208 0 l 13 0 l 181 953 z "},"Ǌ":{"ha":1775,"x_min":13,"x_max":1775,"o":"m 13 0 m 181 953 l 376 953 l 649 414 q 672 363 660 390 q 688 325 683 335 l 694 325 l 706 406 l 801 953 l 997 953 l 829 0 l 633 0 l 361 543 q 335 598 346 574 q 322 631 325 622 l 315 631 q 311 596 314 621 q 304 547 308 571 l 208 0 l 13 0 l 181 953 m 1307 -17 q 1076 39 1156 -17 q 996 201 996 94 q 1013 328 996 251 l 1213 328 q 1199 243 1199 274 q 1223 174 1199 196 q 1306 153 1247 153 q 1404 184 1367 153 q 1451 271 1442 215 l 1572 953 l 1775 953 l 1654 268 q 1541 56 1629 128 q 1307 -17 1453 -17 z "},"Ń":{"ha":1003,"x_min":13,"x_max":997,"o":"m 13 0 m 181 953 l 376 953 l 649 414 q 672 363 660 390 q 688 325 683 335 l 694 325 l 706 406 l 801 953 l 997 953 l 829 0 l 633 0 l 361 543 q 335 598 346 574 q 322 631 325 622 l 315 631 q 311 596 314 621 q 304 547 308 571 l 208 0 l 13 0 l 181 953 m 544 1022 l 686 1206 l 878 1206 l 879 1201 l 697 1022 l 544 1022 z "},"Ň":{"ha":1003,"x_min":13,"x_max":997,"o":"m 13 0 m 181 953 l 376 953 l 649 414 q 672 363 660 390 q 688 325 683 335 l 694 325 l 706 406 l 801 953 l 997 953 l 829 0 l 633 0 l 361 543 q 335 598 346 574 q 322 631 325 622 l 315 631 q 311 596 314 621 q 304 547 308 571 l 208 0 l 13 0 l 181 953 m 536 1018 l 422 1206 l 571 1206 l 633 1110 l 719 1206 l 883 1206 l 706 1018 l 536 1018 z "},"Ņ":{"ha":1003,"x_min":13,"x_max":997,"o":"m 13 0 m 181 953 l 376 953 l 649 414 q 672 363 660 390 q 688 325 683 335 l 694 325 l 706 406 l 801 953 l 997 953 l 829 0 l 633 0 l 361 543 q 335 598 346 574 q 322 631 325 622 l 315 631 q 311 596 314 621 q 304 547 308 571 l 208 0 l 13 0 l 181 953 m 288 -319 l 379 -192 l 307 -192 l 332 -56 l 524 -56 l 503 -175 l 389 -319 l 288 -319 z "},"Ṅ":{"ha":1003,"x_min":13,"x_max":997,"o":"m 13 0 m 181 953 l 376 953 l 649 414 q 672 363 660 390 q 688 325 683 335 l 694 325 l 706 406 l 801 953 l 997 953 l 829 0 l 633 0 l 361 543 q 335 598 346 574 q 322 631 325 622 l 315 631 q 311 596 314 621 q 304 547 308 571 l 208 0 l 13 0 l 181 953 m 528 1026 l 560 1207 l 747 1207 l 715 1026 l 528 1026 z "},"Ŋ":{"ha":1003,"x_min":13,"x_max":997,"o":"m 608 -253 q 533 -246 574 -253 q 468 -231 492 -239 l 490 -97 l 557 -97 q 626 -37 615 -97 l 633 0 l 361 543 q 335 598 346 574 q 322 631 325 622 l 315 631 q 311 596 314 621 q 304 547 308 571 l 208 0 l 13 0 l 181 953 l 376 953 l 649 414 q 672 363 660 390 q 688 325 683 335 l 694 325 l 706 406 l 801 953 l 997 953 l 819 -57 q 754 -197 806 -140 q 608 -253 703 -253 z "},"Ɲ":{"ha":1003,"x_min":-153,"x_max":997,"o":"m -12 -253 q -88 -246 -47 -253 q -153 -231 -129 -239 l -131 -97 l -64 -97 q 6 -37 -6 -97 l 181 953 l 376 953 l 649 414 q 672 363 660 390 q 688 325 683 335 l 694 325 l 706 406 l 801 953 l 997 953 l 829 0 l 633 0 l 361 543 q 335 598 346 574 q 322 631 325 622 l 315 631 q 311 596 314 621 q 304 547 308 571 l 199 -57 q 133 -197 185 -140 q -12 -253 82 -253 z "},"ǋ":{"ha":1389,"x_min":13,"x_max":1388,"o":"m 13 0 m 181 953 l 376 953 l 649 414 q 672 363 660 390 q 688 325 683 335 l 694 325 l 706 406 l 801 953 l 997 953 l 829 0 l 633 0 l 361 543 q 335 598 346 574 q 322 631 325 622 l 315 631 q 311 596 314 621 q 304 547 308 571 l 208 0 l 13 0 l 181 953 m 1167 832 l 1197 1004 l 1388 1004 l 1357 832 l 1167 832 m 990 -253 q 915 -246 956 -253 q 850 -231 874 -239 l 872 -97 l 944 -97 q 1014 -37 1003 -97 l 1150 731 l 1340 731 l 1201 -57 q 1136 -197 1188 -140 q 990 -253 1085 -253 z "},"Ñ":{"ha":1003,"x_min":13,"x_max":997,"o":"m 13 0 m 181 953 l 376 953 l 649 414 q 672 363 660 390 q 688 325 683 335 l 694 325 l 706 406 l 801 953 l 997 953 l 829 0 l 633 0 l 361 543 q 335 598 346 574 q 322 631 325 622 l 315 631 q 311 596 314 621 q 304 547 308 571 l 208 0 l 13 0 l 181 953 m 392 1036 q 444 1158 404 1110 q 549 1206 483 1206 q 592 1199 572 1206 q 644 1179 613 1193 q 692 1160 672 1167 q 732 1154 711 1154 q 766 1166 753 1154 q 789 1206 779 1178 l 886 1206 q 833 1084 874 1132 q 726 1036 793 1036 q 684 1042 704 1036 q 632 1063 664 1049 q 585 1081 604 1075 q 544 1088 565 1088 q 510 1076 524 1088 q 488 1036 497 1064 l 392 1036 z "},"O":{"ha":1081,"x_min":47,"x_max":1038,"o":"m 482 -17 q 160 76 272 -17 q 47 357 47 169 q 56 481 47 421 q 233 839 90 708 q 600 969 375 969 q 924 876 810 969 q 1038 596 1038 782 q 1029 478 1038 536 q 938 215 1008 326 q 750 44 867 104 q 482 -17 633 -17 m 479 154 q 704 233 618 154 q 814 456 790 313 q 829 581 829 542 q 772 742 829 685 q 601 799 714 799 q 378 719 464 799 q 269 497 293 640 q 254 372 254 408 q 311 210 254 267 q 479 154 368 154 z "},"Ó":{"ha":1081,"x_min":47,"x_max":1038,"o":"m 47 0 m 482 -17 q 160 76 272 -17 q 47 357 47 169 q 56 481 47 421 q 233 839 90 708 q 600 969 375 969 q 924 876 810 969 q 1038 596 1038 782 q 1029 478 1038 536 q 938 215 1008 326 q 750 44 867 104 q 482 -17 633 -17 m 479 154 q 704 233 618 154 q 814 456 790 313 q 829 581 829 542 q 772 742 829 685 q 601 799 714 799 q 378 719 464 799 q 269 497 293 640 q 254 372 254 408 q 311 210 254 267 q 479 154 368 154 m 528 1022 l 669 1206 l 861 1206 l 863 1201 l 681 1022 l 528 1022 z "},"Ŏ":{"ha":1081,"x_min":47,"x_max":1038,"o":"m 47 0 m 482 -17 q 160 76 272 -17 q 47 357 47 169 q 56 481 47 421 q 233 839 90 708 q 600 969 375 969 q 924 876 810 969 q 1038 596 1038 782 q 1029 478 1038 536 q 938 215 1008 326 q 750 44 867 104 q 482 -17 633 -17 m 479 154 q 704 233 618 154 q 814 456 790 313 q 829 581 829 542 q 772 742 829 685 q 601 799 714 799 q 378 719 464 799 q 269 497 293 640 q 254 372 254 408 q 311 210 254 267 q 479 154 368 154 m 604 1015 q 444 1059 494 1015 q 394 1171 394 1103 q 397 1206 394 1194 l 522 1206 q 542 1158 522 1178 q 608 1139 563 1139 q 683 1160 653 1139 q 721 1206 713 1181 l 846 1206 q 815 1126 838 1165 q 758 1061 793 1088 q 604 1015 697 1015 z "},"Ǒ":{"ha":1081,"x_min":47,"x_max":1038,"o":"m 47 0 m 482 -17 q 160 76 272 -17 q 47 357 47 169 q 56 481 47 421 q 233 839 90 708 q 600 969 375 969 q 924 876 810 969 q 1038 596 1038 782 q 1029 478 1038 536 q 938 215 1008 326 q 750 44 867 104 q 482 -17 633 -17 m 479 154 q 704 233 618 154 q 814 456 790 313 q 829 581 829 542 q 772 742 829 685 q 601 799 714 799 q 378 719 464 799 q 269 497 293 640 q 254 372 254 408 q 311 210 254 267 q 479 154 368 154 m 519 1018 l 406 1206 l 554 1206 l 617 1110 l 703 1206 l 867 1206 l 689 1018 l 519 1018 z "},"Ô":{"ha":1081,"x_min":47,"x_max":1038,"o":"m 47 0 m 482 -17 q 160 76 272 -17 q 47 357 47 169 q 56 481 47 421 q 233 839 90 708 q 600 969 375 969 q 924 876 810 969 q 1038 596 1038 782 q 1029 478 1038 536 q 938 215 1008 326 q 750 44 867 104 q 482 -17 633 -17 m 479 154 q 704 233 618 154 q 814 456 790 313 q 829 581 829 542 q 772 742 829 685 q 601 799 714 799 q 378 719 464 799 q 269 497 293 640 q 254 372 254 408 q 311 210 254 267 q 479 154 368 154 m 364 1018 l 542 1206 l 711 1206 l 825 1018 l 678 1018 l 615 1114 l 529 1018 l 364 1018 z "},"Ố":{"ha":1081,"x_min":47,"x_max":1092,"o":"m 47 0 m 482 -17 q 160 76 272 -17 q 47 357 47 169 q 56 481 47 421 q 233 839 90 708 q 600 969 375 969 q 924 876 810 969 q 1038 596 1038 782 q 1029 478 1038 536 q 938 215 1008 326 q 750 44 867 104 q 482 -17 633 -17 m 479 154 q 704 233 618 154 q 814 456 790 313 q 829 581 829 542 q 772 742 829 685 q 601 799 714 799 q 378 719 464 799 q 269 497 293 640 q 254 372 254 408 q 311 210 254 267 q 479 154 368 154 m 364 1018 l 542 1206 l 711 1206 l 825 1018 l 678 1018 l 615 1114 l 529 1018 l 364 1018 m 757 1154 l 899 1338 l 1090 1338 l 1092 1333 l 910 1154 l 757 1154 z "},"Ộ":{"ha":1081,"x_min":47,"x_max":1038,"o":"m 47 0 m 482 -17 q 160 76 272 -17 q 47 357 47 169 q 56 481 47 421 q 233 839 90 708 q 600 969 375 969 q 924 876 810 969 q 1038 596 1038 782 q 1029 478 1038 536 q 938 215 1008 326 q 750 44 867 104 q 482 -17 633 -17 m 479 154 q 704 233 618 154 q 814 456 790 313 q 829 581 829 542 q 772 742 829 685 q 601 799 714 799 q 378 719 464 799 q 269 497 293 640 q 254 372 254 408 q 311 210 254 267 q 479 154 368 154 m 364 1018 l 542 1206 l 711 1206 l 825 1018 l 678 1018 l 615 1114 l 529 1018 l 364 1018 m 340 -240 l 372 -60 l 560 -60 l 528 -240 l 340 -240 z "},"Ồ":{"ha":1081,"x_min":47,"x_max":1038,"o":"m 47 0 m 482 -17 q 160 76 272 -17 q 47 357 47 169 q 56 481 47 421 q 233 839 90 708 q 600 969 375 969 q 924 876 810 969 q 1038 596 1038 782 q 1029 478 1038 536 q 938 215 1008 326 q 750 44 867 104 q 482 -17 633 -17 m 479 154 q 704 233 618 154 q 814 456 790 313 q 829 581 829 542 q 772 742 829 685 q 601 799 714 799 q 378 719 464 799 q 269 497 293 640 q 254 372 254 408 q 311 210 254 267 q 479 154 368 154 m 364 1018 l 542 1206 l 711 1206 l 825 1018 l 678 1018 l 615 1114 l 529 1018 l 364 1018 m 819 1154 l 701 1333 l 703 1338 l 881 1338 l 958 1154 l 819 1154 z "},"Ổ":{"ha":1081,"x_min":47,"x_max":1038,"o":"m 47 0 m 482 -17 q 160 76 272 -17 q 47 357 47 169 q 56 481 47 421 q 233 839 90 708 q 600 969 375 969 q 924 876 810 969 q 1038 596 1038 782 q 1029 478 1038 536 q 938 215 1008 326 q 750 44 867 104 q 482 -17 633 -17 m 479 154 q 704 233 618 154 q 814 456 790 313 q 829 581 829 542 q 772 742 829 685 q 601 799 714 799 q 378 719 464 799 q 269 497 293 640 q 254 372 254 408 q 311 210 254 267 q 479 154 368 154 m 364 1018 l 542 1206 l 711 1206 l 825 1018 l 678 1018 l 615 1114 l 529 1018 l 364 1018 m 800 1229 l 819 1229 q 857 1237 846 1229 q 868 1261 868 1244 q 858 1278 868 1274 q 824 1282 847 1282 l 743 1282 l 754 1343 q 872 1354 810 1354 q 976 1338 931 1354 q 1021 1282 1021 1321 q 983 1215 1021 1238 q 888 1189 944 1193 l 881 1154 l 786 1154 l 800 1229 z "},"Ỗ":{"ha":1081,"x_min":47,"x_max":1038,"o":"m 47 0 m 482 -17 q 160 76 272 -17 q 47 357 47 169 q 56 481 47 421 q 233 839 90 708 q 600 969 375 969 q 924 876 810 969 q 1038 596 1038 782 q 1029 478 1038 536 q 938 215 1008 326 q 750 44 867 104 q 482 -17 633 -17 m 479 154 q 704 233 618 154 q 814 456 790 313 q 829 581 829 542 q 772 742 829 685 q 601 799 714 799 q 378 719 464 799 q 269 497 293 640 q 254 372 254 408 q 311 210 254 267 q 479 154 368 154 m 364 1018 l 542 1206 l 711 1206 l 825 1018 l 678 1018 l 615 1114 l 529 1018 l 364 1018 m 406 1258 q 458 1380 418 1332 q 563 1428 497 1428 q 606 1422 586 1428 q 658 1401 626 1415 q 706 1383 686 1389 q 746 1376 725 1376 q 780 1388 767 1376 q 803 1428 793 1400 l 900 1428 q 847 1306 888 1354 q 740 1258 807 1258 q 698 1265 718 1258 q 646 1285 678 1271 q 599 1303 618 1297 q 558 1310 579 1310 q 524 1298 538 1310 q 501 1258 511 1286 l 406 1258 z "},"Ȍ":{"ha":1081,"x_min":47,"x_max":1038,"o":"m 47 0 m 482 -17 q 160 76 272 -17 q 47 357 47 169 q 56 481 47 421 q 233 839 90 708 q 600 969 375 969 q 924 876 810 969 q 1038 596 1038 782 q 1029 478 1038 536 q 938 215 1008 326 q 750 44 867 104 q 482 -17 633 -17 m 479 154 q 704 233 618 154 q 814 456 790 313 q 829 581 829 542 q 772 742 829 685 q 601 799 714 799 q 378 719 464 799 q 269 497 293 640 q 254 372 254 408 q 311 210 254 267 q 479 154 368 154 m 438 1022 l 319 1201 l 322 1206 l 507 1206 l 583 1022 l 438 1022 m 681 1022 l 563 1201 l 565 1206 l 750 1206 l 826 1022 l 681 1022 z "},"Ö":{"ha":1081,"x_min":47,"x_max":1038,"o":"m 47 0 m 482 -17 q 160 76 272 -17 q 47 357 47 169 q 56 481 47 421 q 233 839 90 708 q 600 969 375 969 q 924 876 810 969 q 1038 596 1038 782 q 1029 478 1038 536 q 938 215 1008 326 q 750 44 867 104 q 482 -17 633 -17 m 479 154 q 704 233 618 154 q 814 456 790 313 q 829 581 829 542 q 772 742 829 685 q 601 799 714 799 q 378 719 464 799 q 269 497 293 640 q 254 372 254 408 q 311 210 254 267 q 479 154 368 154 m 382 1042 l 410 1206 l 574 1206 l 544 1042 l 382 1042 m 672 1042 l 701 1206 l 867 1206 l 838 1042 l 672 1042 z "},"Ọ":{"ha":1081,"x_min":47,"x_max":1038,"o":"m 47 0 m 482 -17 q 160 76 272 -17 q 47 357 47 169 q 56 481 47 421 q 233 839 90 708 q 600 969 375 969 q 924 876 810 969 q 1038 596 1038 782 q 1029 478 1038 536 q 938 215 1008 326 q 750 44 867 104 q 482 -17 633 -17 m 479 154 q 704 233 618 154 q 814 456 790 313 q 829 581 829 542 q 772 742 829 685 q 601 799 714 799 q 378 719 464 799 q 269 497 293 640 q 254 372 254 408 q 311 210 254 267 q 479 154 368 154 m 340 -240 l 372 -60 l 560 -60 l 528 -240 l 340 -240 z "},"Ò":{"ha":1081,"x_min":47,"x_max":1038,"o":"m 47 0 m 482 -17 q 160 76 272 -17 q 47 357 47 169 q 56 481 47 421 q 233 839 90 708 q 600 969 375 969 q 924 876 810 969 q 1038 596 1038 782 q 1029 478 1038 536 q 938 215 1008 326 q 750 44 867 104 q 482 -17 633 -17 m 479 154 q 704 233 618 154 q 814 456 790 313 q 829 581 829 542 q 772 742 829 685 q 601 799 714 799 q 378 719 464 799 q 269 497 293 640 q 254 372 254 408 q 311 210 254 267 q 479 154 368 154 m 535 1022 l 417 1201 l 418 1206 l 596 1206 l 674 1022 l 535 1022 z "},"Ỏ":{"ha":1081,"x_min":47,"x_max":1038,"o":"m 47 0 m 482 -17 q 160 76 272 -17 q 47 357 47 169 q 56 481 47 421 q 233 839 90 708 q 600 969 375 969 q 924 876 810 969 q 1038 596 1038 782 q 1029 478 1038 536 q 938 215 1008 326 q 750 44 867 104 q 482 -17 633 -17 m 479 154 q 704 233 618 154 q 814 456 790 313 q 829 581 829 542 q 772 742 829 685 q 601 799 714 799 q 378 719 464 799 q 269 497 293 640 q 254 372 254 408 q 311 210 254 267 q 479 154 368 154 m 572 1097 l 592 1097 q 629 1105 618 1097 q 640 1129 640 1113 q 630 1146 640 1142 q 596 1150 619 1150 l 515 1150 l 526 1211 q 644 1222 582 1222 q 748 1206 703 1222 q 793 1150 793 1189 q 755 1083 793 1106 q 660 1057 717 1061 l 653 1022 l 558 1022 l 572 1097 z "},"Ơ":{"ha":1081,"x_min":47,"x_max":1232,"o":"m 1232 1150 l 1218 1075 q 1144 890 1197 958 q 994 790 1090 822 q 1038 596 1038 708 q 1029 478 1038 536 q 938 215 1008 326 q 750 44 867 104 q 482 -17 633 -17 q 160 76 272 -17 q 47 357 47 169 q 56 481 47 421 q 233 839 90 708 q 600 969 375 969 q 933 867 822 969 q 1074 960 1032 892 l 992 960 l 1026 1150 l 1232 1150 m 814 456 q 829 581 829 542 q 772 742 829 685 q 601 799 714 799 q 378 719 464 799 q 269 497 293 640 q 254 372 254 408 q 311 210 254 267 q 479 154 368 154 q 704 233 618 154 q 814 456 790 313 z "},"Ớ":{"ha":1081,"x_min":47,"x_max":1232,"o":"m 47 0 m 1232 1150 l 1218 1075 q 1144 890 1197 958 q 994 790 1090 822 q 1038 596 1038 708 q 1029 478 1038 536 q 938 215 1008 326 q 750 44 867 104 q 482 -17 633 -17 q 160 76 272 -17 q 47 357 47 169 q 56 481 47 421 q 233 839 90 708 q 600 969 375 969 q 933 867 822 969 q 1074 960 1032 892 l 992 960 l 1026 1150 l 1232 1150 m 814 456 q 829 581 829 542 q 772 742 829 685 q 601 799 714 799 q 378 719 464 799 q 269 497 293 640 q 254 372 254 408 q 311 210 254 267 q 479 154 368 154 q 704 233 618 154 q 814 456 790 313 m 528 1022 l 669 1206 l 861 1206 l 863 1201 l 681 1022 l 528 1022 z "},"Ợ":{"ha":1081,"x_min":47,"x_max":1232,"o":"m 47 0 m 1232 1150 l 1218 1075 q 1144 890 1197 958 q 994 790 1090 822 q 1038 596 1038 708 q 1029 478 1038 536 q 938 215 1008 326 q 750 44 867 104 q 482 -17 633 -17 q 160 76 272 -17 q 47 357 47 169 q 56 481 47 421 q 233 839 90 708 q 600 969 375 969 q 933 867 822 969 q 1074 960 1032 892 l 992 960 l 1026 1150 l 1232 1150 m 814 456 q 829 581 829 542 q 772 742 829 685 q 601 799 714 799 q 378 719 464 799 q 269 497 293 640 q 254 372 254 408 q 311 210 254 267 q 479 154 368 154 q 704 233 618 154 q 814 456 790 313 m 340 -240 l 372 -60 l 560 -60 l 528 -240 l 340 -240 z "},"Ờ":{"ha":1081,"x_min":47,"x_max":1232,"o":"m 47 0 m 1232 1150 l 1218 1075 q 1144 890 1197 958 q 994 790 1090 822 q 1038 596 1038 708 q 1029 478 1038 536 q 938 215 1008 326 q 750 44 867 104 q 482 -17 633 -17 q 160 76 272 -17 q 47 357 47 169 q 56 481 47 421 q 233 839 90 708 q 600 969 375 969 q 933 867 822 969 q 1074 960 1032 892 l 992 960 l 1026 1150 l 1232 1150 m 814 456 q 829 581 829 542 q 772 742 829 685 q 601 799 714 799 q 378 719 464 799 q 269 497 293 640 q 254 372 254 408 q 311 210 254 267 q 479 154 368 154 q 704 233 618 154 q 814 456 790 313 m 535 1022 l 417 1201 l 418 1206 l 596 1206 l 674 1022 l 535 1022 z "},"Ở":{"ha":1081,"x_min":47,"x_max":1232,"o":"m 47 0 m 1232 1150 l 1218 1075 q 1144 890 1197 958 q 994 790 1090 822 q 1038 596 1038 708 q 1029 478 1038 536 q 938 215 1008 326 q 750 44 867 104 q 482 -17 633 -17 q 160 76 272 -17 q 47 357 47 169 q 56 481 47 421 q 233 839 90 708 q 600 969 375 969 q 933 867 822 969 q 1074 960 1032 892 l 992 960 l 1026 1150 l 1232 1150 m 814 456 q 829 581 829 542 q 772 742 829 685 q 601 799 714 799 q 378 719 464 799 q 269 497 293 640 q 254 372 254 408 q 311 210 254 267 q 479 154 368 154 q 704 233 618 154 q 814 456 790 313 m 572 1097 l 592 1097 q 629 1105 618 1097 q 640 1129 640 1113 q 630 1146 640 1142 q 596 1150 619 1150 l 515 1150 l 526 1211 q 644 1222 582 1222 q 748 1206 703 1222 q 793 1150 793 1189 q 755 1083 793 1106 q 660 1057 717 1061 l 653 1022 l 558 1022 l 572 1097 z "},"Ỡ":{"ha":1081,"x_min":47,"x_max":1232,"o":"m 47 0 m 1232 1150 l 1218 1075 q 1144 890 1197 958 q 994 790 1090 822 q 1038 596 1038 708 q 1029 478 1038 536 q 938 215 1008 326 q 750 44 867 104 q 482 -17 633 -17 q 160 76 272 -17 q 47 357 47 169 q 56 481 47 421 q 233 839 90 708 q 600 969 375 969 q 933 867 822 969 q 1074 960 1032 892 l 992 960 l 1026 1150 l 1232 1150 m 814 456 q 829 581 829 542 q 772 742 829 685 q 601 799 714 799 q 378 719 464 799 q 269 497 293 640 q 254 372 254 408 q 311 210 254 267 q 479 154 368 154 q 704 233 618 154 q 814 456 790 313 m 375 1036 q 427 1158 388 1110 q 532 1206 467 1206 q 576 1199 556 1206 q 628 1179 596 1193 q 675 1160 656 1167 q 715 1154 694 1154 q 749 1166 736 1154 q 772 1206 763 1178 l 869 1206 q 817 1084 857 1132 q 710 1036 776 1036 q 667 1042 688 1036 q 615 1063 647 1049 q 568 1081 588 1075 q 528 1088 549 1088 q 494 1076 507 1088 q 471 1036 481 1064 l 375 1036 z "},"Ő":{"ha":1081,"x_min":47,"x_max":1038,"o":"m 47 0 m 482 -17 q 160 76 272 -17 q 47 357 47 169 q 56 481 47 421 q 233 839 90 708 q 600 969 375 969 q 924 876 810 969 q 1038 596 1038 782 q 1029 478 1038 536 q 938 215 1008 326 q 750 44 867 104 q 482 -17 633 -17 m 479 154 q 704 233 618 154 q 814 456 790 313 q 829 581 829 542 q 772 742 829 685 q 601 799 714 799 q 378 719 464 799 q 269 497 293 640 q 254 372 254 408 q 311 210 254 267 q 479 154 368 154 m 406 1022 l 546 1206 l 736 1206 l 738 1201 l 556 1022 l 406 1022 m 653 1022 l 794 1206 l 985 1206 l 986 1201 l 804 1022 l 653 1022 z "},"Ȏ":{"ha":1081,"x_min":47,"x_max":1038,"o":"m 47 0 m 482 -17 q 160 76 272 -17 q 47 357 47 169 q 56 481 47 421 q 233 839 90 708 q 600 969 375 969 q 924 876 810 969 q 1038 596 1038 782 q 1029 478 1038 536 q 938 215 1008 326 q 750 44 867 104 q 482 -17 633 -17 m 479 154 q 704 233 618 154 q 814 456 790 313 q 829 581 829 542 q 772 742 829 685 q 601 799 714 799 q 378 719 464 799 q 269 497 293 640 q 254 372 254 408 q 311 210 254 267 q 479 154 368 154 m 379 1015 q 452 1151 393 1096 q 636 1206 511 1206 q 740 1182 696 1206 q 806 1120 783 1158 q 829 1040 829 1082 q 828 1015 829 1024 l 703 1015 q 681 1061 704 1040 q 614 1082 658 1082 q 540 1061 569 1082 q 504 1015 511 1040 l 379 1015 z "},"Ō":{"ha":1081,"x_min":47,"x_max":1038,"o":"m 47 0 m 482 -17 q 160 76 272 -17 q 47 357 47 169 q 56 481 47 421 q 233 839 90 708 q 600 969 375 969 q 924 876 810 969 q 1038 596 1038 782 q 1029 478 1038 536 q 938 215 1008 326 q 750 44 867 104 q 482 -17 633 -17 m 479 154 q 704 233 618 154 q 814 456 790 313 q 829 581 829 542 q 772 742 829 685 q 601 799 714 799 q 378 719 464 799 q 269 497 293 640 q 254 372 254 408 q 311 210 254 267 q 479 154 368 154 m 400 1050 l 421 1172 l 844 1172 l 824 1050 l 400 1050 z "},"Ǫ":{"ha":1081,"x_min":47,"x_max":1038,"o":"m 600 969 q 924 876 810 969 q 1038 596 1038 782 q 1029 478 1038 536 q 915 183 1006 303 q 678 14 825 63 l 678 11 q 634 -41 653 -10 q 615 -104 615 -72 q 628 -142 615 -128 q 671 -157 642 -157 l 704 -157 l 690 -233 q 588 -253 632 -253 q 497 -227 533 -253 q 460 -146 460 -201 q 522 -15 460 -78 q 482 -17 510 -17 q 160 76 272 -17 q 47 357 47 169 q 56 481 47 421 q 233 839 90 708 q 600 969 375 969 m 814 456 q 829 581 829 542 q 772 742 829 685 q 601 799 714 799 q 378 719 464 799 q 269 497 293 640 q 254 372 254 408 q 311 210 254 267 q 479 154 368 154 q 704 233 618 154 q 814 456 790 313 z "},"Ø":{"ha":1081,"x_min":-31,"x_max":1113,"o":"m 131 104 q 47 357 47 199 q 97 636 47 507 q 243 849 147 765 q 401 938 310 907 q 600 969 492 969 q 876 908 769 969 l 982 1021 l 1113 1021 l 951 849 q 1038 596 1038 754 q 996 338 1038 458 q 874 135 954 218 q 703 22 803 61 q 482 -17 604 -17 q 204 44 308 -17 l 100 -68 l -31 -68 l 131 104 m 744 765 q 611 799 692 799 q 382 719 469 799 q 269 497 294 640 q 254 372 254 408 q 275 260 254 308 l 744 765 m 471 154 q 701 233 613 154 q 814 456 789 313 q 829 581 829 542 q 807 693 829 647 l 338 188 q 471 154 388 154 z "},"Ǿ":{"ha":1081,"x_min":-31,"x_max":1113,"o":"m 0 0 m 131 104 q 47 357 47 199 q 97 636 47 507 q 243 849 147 765 q 401 938 310 907 q 600 969 492 969 q 876 908 769 969 l 982 1021 l 1113 1021 l 951 849 q 1038 596 1038 754 q 996 338 1038 458 q 874 135 954 218 q 703 22 803 61 q 482 -17 604 -17 q 204 44 308 -17 l 100 -68 l -31 -68 l 131 104 m 744 765 q 611 799 692 799 q 382 719 469 799 q 269 497 294 640 q 254 372 254 408 q 275 260 254 308 l 744 765 m 471 154 q 701 233 613 154 q 814 456 789 313 q 829 581 829 542 q 807 693 829 647 l 338 188 q 471 154 388 154 m 583 1022 l 725 1206 l 917 1206 l 918 1201 l 736 1022 l 583 1022 z "},"Õ":{"ha":1081,"x_min":47,"x_max":1038,"o":"m 47 0 m 482 -17 q 160 76 272 -17 q 47 357 47 169 q 56 481 47 421 q 233 839 90 708 q 600 969 375 969 q 924 876 810 969 q 1038 596 1038 782 q 1029 478 1038 536 q 938 215 1008 326 q 750 44 867 104 q 482 -17 633 -17 m 479 154 q 704 233 618 154 q 814 456 790 313 q 829 581 829 542 q 772 742 829 685 q 601 799 714 799 q 378 719 464 799 q 269 497 293 640 q 254 372 254 408 q 311 210 254 267 q 479 154 368 154 m 375 1036 q 427 1158 388 1110 q 532 1206 467 1206 q 576 1199 556 1206 q 628 1179 596 1193 q 675 1160 656 1167 q 715 1154 694 1154 q 749 1166 736 1154 q 772 1206 763 1178 l 869 1206 q 817 1084 857 1132 q 710 1036 776 1036 q 667 1042 688 1036 q 615 1063 647 1049 q 568 1081 588 1075 q 528 1088 549 1088 q 494 1076 507 1088 q 471 1036 481 1064 l 375 1036 z "},"Œ":{"ha":1389,"x_min":43,"x_max":1388,"o":"m 361 -17 q 126 70 208 -17 q 43 322 43 157 q 58 476 43 389 q 214 842 97 715 q 500 969 331 969 q 750 878 664 969 l 764 953 l 1388 953 l 1357 782 l 935 782 l 899 572 l 1260 572 l 1229 401 l 868 401 l 828 171 l 1258 171 l 1228 0 l 596 0 l 608 74 q 361 -17 500 -17 m 413 154 q 582 230 514 154 q 681 476 650 306 q 693 603 693 550 q 539 799 693 799 q 360 720 425 799 q 265 476 294 642 q 251 344 251 393 q 290 201 251 249 q 413 154 329 154 z "},"P":{"ha":926,"x_min":13,"x_max":907,"o":"m 181 953 l 551 953 q 823 885 739 953 q 907 688 907 818 q 801 422 907 515 q 511 328 696 328 l 272 328 l 214 0 l 13 0 l 181 953 m 508 499 q 648 540 596 499 q 700 663 700 582 q 558 782 700 782 l 351 782 l 301 499 l 508 499 z "},"Þ":{"ha":926,"x_min":13,"x_max":881,"o":"m 181 953 l 382 953 l 356 804 l 525 804 q 797 737 713 804 q 881 539 881 669 q 775 273 881 367 q 485 179 669 179 l 246 179 l 214 0 l 13 0 l 181 953 m 482 350 q 622 392 569 350 q 674 514 674 433 q 532 633 674 633 l 325 633 l 275 350 l 482 350 z "},"Q":{"ha":1081,"x_min":47,"x_max":1038,"o":"m 497 -15 l 482 -17 q 160 76 272 -17 q 47 357 47 169 q 95 630 47 504 q 236 839 143 756 q 397 936 304 903 q 600 969 489 969 q 924 876 810 969 q 1038 596 1038 782 q 951 246 1038 400 q 704 25 864 92 l 883 -181 l 640 -181 l 497 -15 m 471 154 q 701 233 613 154 q 814 456 789 313 q 829 581 829 542 q 774 742 829 685 q 611 799 719 799 q 382 719 469 799 q 269 497 294 640 q 254 372 254 408 q 309 210 254 267 q 471 154 364 154 z "},"R":{"ha":1003,"x_min":13,"x_max":961,"o":"m 181 953 l 617 953 q 875 884 789 953 q 961 689 961 815 q 899 494 961 572 q 740 385 838 417 l 867 0 l 654 0 l 549 356 l 276 356 l 214 0 l 13 0 l 181 953 m 592 524 q 711 564 669 524 q 753 674 753 604 q 720 753 753 725 q 624 782 688 782 l 351 782 l 306 524 l 592 524 z "},"Ŕ":{"ha":1003,"x_min":13,"x_max":961,"o":"m 13 0 m 181 953 l 617 953 q 875 884 789 953 q 961 689 961 815 q 899 494 961 572 q 740 385 838 417 l 867 0 l 654 0 l 549 356 l 276 356 l 214 0 l 13 0 l 181 953 m 592 524 q 711 564 669 524 q 753 674 753 604 q 720 753 753 725 q 624 782 688 782 l 351 782 l 306 524 l 592 524 m 481 1022 l 622 1206 l 814 1206 l 815 1201 l 633 1022 l 481 1022 z "},"Ř":{"ha":1003,"x_min":13,"x_max":961,"o":"m 13 0 m 181 953 l 617 953 q 875 884 789 953 q 961 689 961 815 q 899 494 961 572 q 740 385 838 417 l 867 0 l 654 0 l 549 356 l 276 356 l 214 0 l 13 0 l 181 953 m 592 524 q 711 564 669 524 q 753 674 753 604 q 720 753 753 725 q 624 782 688 782 l 351 782 l 306 524 l 592 524 m 472 1018 l 358 1206 l 507 1206 l 569 1110 l 656 1206 l 819 1206 l 642 1018 l 472 1018 z "},"Ŗ":{"ha":1003,"x_min":13,"x_max":961,"o":"m 13 0 m 181 953 l 617 953 q 875 884 789 953 q 961 689 961 815 q 899 494 961 572 q 740 385 838 417 l 867 0 l 654 0 l 549 356 l 276 356 l 214 0 l 13 0 l 181 953 m 592 524 q 711 564 669 524 q 753 674 753 604 q 720 753 753 725 q 624 782 688 782 l 351 782 l 306 524 l 592 524 m 288 -319 l 379 -192 l 307 -192 l 332 -56 l 524 -56 l 503 -175 l 389 -319 l 288 -319 z "},"Ȑ":{"ha":1003,"x_min":13,"x_max":961,"o":"m 13 0 m 181 953 l 617 953 q 875 884 789 953 q 961 689 961 815 q 899 494 961 572 q 740 385 838 417 l 867 0 l 654 0 l 549 356 l 276 356 l 214 0 l 13 0 l 181 953 m 592 524 q 711 564 669 524 q 753 674 753 604 q 720 753 753 725 q 624 782 688 782 l 351 782 l 306 524 l 592 524 m 390 1022 l 272 1201 l 275 1206 l 460 1206 l 536 1022 l 390 1022 m 633 1022 l 515 1201 l 518 1206 l 703 1206 l 779 1022 l 633 1022 z "},"Ṛ":{"ha":1003,"x_min":13,"x_max":961,"o":"m 13 0 m 181 953 l 617 953 q 875 884 789 953 q 961 689 961 815 q 899 494 961 572 q 740 385 838 417 l 867 0 l 654 0 l 549 356 l 276 356 l 214 0 l 13 0 l 181 953 m 592 524 q 711 564 669 524 q 753 674 753 604 q 720 753 753 725 q 624 782 688 782 l 351 782 l 306 524 l 592 524 m 301 -240 l 333 -60 l 521 -60 l 489 -240 l 301 -240 z "},"Ȓ":{"ha":1003,"x_min":13,"x_max":961,"o":"m 13 0 m 181 953 l 617 953 q 875 884 789 953 q 961 689 961 815 q 899 494 961 572 q 740 385 838 417 l 867 0 l 654 0 l 549 356 l 276 356 l 214 0 l 13 0 l 181 953 m 592 524 q 711 564 669 524 q 753 674 753 604 q 720 753 753 725 q 624 782 688 782 l 351 782 l 306 524 l 592 524 m 332 1015 q 405 1151 346 1096 q 589 1206 464 1206 q 692 1182 649 1206 q 759 1120 736 1158 q 782 1040 782 1082 q 781 1015 782 1024 l 656 1015 q 634 1061 657 1040 q 567 1082 611 1082 q 493 1061 522 1082 q 457 1015 464 1040 l 332 1015 z "},"S":{"ha":926,"x_min":22,"x_max":888,"o":"m 431 -17 q 137 48 251 -17 q 22 232 22 113 q 33 310 22 268 l 238 310 q 233 290 236 304 q 231 265 231 275 q 278 184 231 214 q 415 154 326 154 q 577 186 526 154 q 628 271 628 218 q 601 330 628 306 q 535 370 575 354 q 425 407 494 386 q 267 463 328 436 q 164 539 207 489 q 121 667 121 589 q 173 833 121 765 q 315 935 225 901 q 517 969 404 969 q 785 913 683 969 q 888 742 888 856 q 881 672 888 715 l 681 672 q 685 703 685 690 q 642 773 685 747 q 525 799 600 799 q 380 772 432 799 q 328 697 328 744 q 353 646 328 667 q 415 612 378 625 q 521 578 451 599 q 684 521 621 549 q 793 442 747 493 q 839 313 839 392 q 781 124 839 197 q 631 17 724 50 q 431 -17 539 -17 z "},"Ś":{"ha":926,"x_min":22,"x_max":888,"o":"m 22 0 m 431 -17 q 137 48 251 -17 q 22 232 22 113 q 33 310 22 268 l 238 310 q 233 290 236 304 q 231 265 231 275 q 278 184 231 214 q 415 154 326 154 q 577 186 526 154 q 628 271 628 218 q 601 330 628 306 q 535 370 575 354 q 425 407 494 386 q 267 463 328 436 q 164 539 207 489 q 121 667 121 589 q 173 833 121 765 q 315 935 225 901 q 517 969 404 969 q 785 913 683 969 q 888 742 888 856 q 881 672 888 715 l 681 672 q 685 703 685 690 q 642 773 685 747 q 525 799 600 799 q 380 772 432 799 q 328 697 328 744 q 353 646 328 667 q 415 612 378 625 q 521 578 451 599 q 684 521 621 549 q 793 442 747 493 q 839 313 839 392 q 781 124 839 197 q 631 17 724 50 q 431 -17 539 -17 m 507 1022 l 649 1206 l 840 1206 l 842 1201 l 660 1022 l 507 1022 z "},"Ꞌ":{"ha":310,"x_min":46,"x_max":349,"o":"m 46 288 l 163 953 l 349 953 l 319 786 l 172 288 l 46 288 z "},"Š":{"ha":926,"x_min":22,"x_max":888,"o":"m 22 0 m 431 -17 q 137 48 251 -17 q 22 232 22 113 q 33 310 22 268 l 238 310 q 233 290 236 304 q 231 265 231 275 q 278 184 231 214 q 415 154 326 154 q 577 186 526 154 q 628 271 628 218 q 601 330 628 306 q 535 370 575 354 q 425 407 494 386 q 267 463 328 436 q 164 539 207 489 q 121 667 121 589 q 173 833 121 765 q 315 935 225 901 q 517 969 404 969 q 785 913 683 969 q 888 742 888 856 q 881 672 888 715 l 681 672 q 685 703 685 690 q 642 773 685 747 q 525 799 600 799 q 380 772 432 799 q 328 697 328 744 q 353 646 328 667 q 415 612 378 625 q 521 578 451 599 q 684 521 621 549 q 793 442 747 493 q 839 313 839 392 q 781 124 839 197 q 631 17 724 50 q 431 -17 539 -17 m 499 1018 l 385 1206 l 533 1206 l 596 1110 l 682 1206 l 846 1206 l 668 1018 l 499 1018 z "},"Ş":{"ha":926,"x_min":22,"x_max":888,"o":"m 382 -253 q 240 -242 304 -253 l 253 -174 l 375 -174 q 426 -165 408 -174 q 443 -133 443 -156 q 431 -113 443 -119 q 390 -107 419 -107 l 333 -107 l 364 -14 q 116 60 210 -3 q 22 232 22 124 q 33 310 22 268 l 238 310 q 233 290 236 304 q 231 265 231 275 q 278 184 231 214 q 415 154 326 154 q 577 186 526 154 q 628 271 628 218 q 601 330 628 306 q 535 370 575 354 q 425 407 494 386 q 267 463 328 436 q 164 539 207 489 q 121 667 121 589 q 173 833 121 765 q 315 935 225 901 q 517 969 404 969 q 785 913 683 969 q 888 742 888 856 q 881 672 888 715 l 681 672 q 685 703 685 690 q 642 773 685 747 q 525 799 600 799 q 380 772 432 799 q 328 697 328 744 q 353 646 328 667 q 415 612 378 625 q 521 578 451 599 q 684 521 621 549 q 793 442 747 493 q 839 313 839 392 q 737 77 839 157 q 482 -14 635 -3 l 472 -46 q 560 -72 526 -49 q 593 -136 593 -94 q 526 -226 593 -200 q 382 -253 460 -253 z "},"Ŝ":{"ha":926,"x_min":22,"x_max":888,"o":"m 22 0 m 431 -17 q 137 48 251 -17 q 22 232 22 113 q 33 310 22 268 l 238 310 q 233 290 236 304 q 231 265 231 275 q 278 184 231 214 q 415 154 326 154 q 577 186 526 154 q 628 271 628 218 q 601 330 628 306 q 535 370 575 354 q 425 407 494 386 q 267 463 328 436 q 164 539 207 489 q 121 667 121 589 q 173 833 121 765 q 315 935 225 901 q 517 969 404 969 q 785 913 683 969 q 888 742 888 856 q 881 672 888 715 l 681 672 q 685 703 685 690 q 642 773 685 747 q 525 799 600 799 q 380 772 432 799 q 328 697 328 744 q 353 646 328 667 q 415 612 378 625 q 521 578 451 599 q 684 521 621 549 q 793 442 747 493 q 839 313 839 392 q 781 124 839 197 q 631 17 724 50 q 431 -17 539 -17 m 343 1018 l 521 1206 l 690 1206 l 804 1018 l 657 1018 l 594 1114 l 508 1018 l 343 1018 z "},"Ș":{"ha":926,"x_min":22,"x_max":888,"o":"m 22 0 m 431 -17 q 137 48 251 -17 q 22 232 22 113 q 33 310 22 268 l 238 310 q 233 290 236 304 q 231 265 231 275 q 278 184 231 214 q 415 154 326 154 q 577 186 526 154 q 628 271 628 218 q 601 330 628 306 q 535 370 575 354 q 425 407 494 386 q 267 463 328 436 q 164 539 207 489 q 121 667 121 589 q 173 833 121 765 q 315 935 225 901 q 517 969 404 969 q 785 913 683 969 q 888 742 888 856 q 881 672 888 715 l 681 672 q 685 703 685 690 q 642 773 685 747 q 525 799 600 799 q 380 772 432 799 q 328 697 328 744 q 353 646 328 667 q 415 612 378 625 q 521 578 451 599 q 684 521 621 549 q 793 442 747 493 q 839 313 839 392 q 781 124 839 197 q 631 17 724 50 q 431 -17 539 -17 m 250 -319 l 342 -192 l 269 -192 l 294 -56 l 486 -56 l 465 -175 l 351 -319 l 250 -319 z "},"Ṣ":{"ha":926,"x_min":22,"x_max":888,"o":"m 22 0 m 431 -17 q 137 48 251 -17 q 22 232 22 113 q 33 310 22 268 l 238 310 q 233 290 236 304 q 231 265 231 275 q 278 184 231 214 q 415 154 326 154 q 577 186 526 154 q 628 271 628 218 q 601 330 628 306 q 535 370 575 354 q 425 407 494 386 q 267 463 328 436 q 164 539 207 489 q 121 667 121 589 q 173 833 121 765 q 315 935 225 901 q 517 969 404 969 q 785 913 683 969 q 888 742 888 856 q 881 672 888 715 l 681 672 q 685 703 685 690 q 642 773 685 747 q 525 799 600 799 q 380 772 432 799 q 328 697 328 744 q 353 646 328 667 q 415 612 378 625 q 521 578 451 599 q 684 521 621 549 q 793 442 747 493 q 839 313 839 392 q 781 124 839 197 q 631 17 724 50 q 431 -17 539 -17 m 264 -240 l 296 -60 l 483 -60 l 451 -240 l 264 -240 z "},"ẞ":{"ha":1108,"x_min":13,"x_max":1036,"o":"m 108 543 q 286 861 144 753 q 651 969 428 969 q 853 939 765 969 q 988 853 940 908 q 1036 722 1036 797 q 988 579 1036 646 q 869 488 939 513 l 869 482 q 972 416 936 463 q 1008 303 1008 369 q 961 142 1008 211 q 832 37 914 74 q 647 0 750 0 l 332 0 l 364 174 l 661 174 q 763 212 724 174 q 801 297 801 250 q 767 361 801 338 q 669 385 732 385 l 400 385 l 431 558 l 696 558 q 762 578 732 558 q 808 629 792 599 q 824 689 824 660 q 776 769 824 740 q 636 799 728 799 q 413 733 494 799 q 308 533 331 668 l 214 0 l 13 0 l 108 543 z "},"Ə":{"ha":1053,"x_min":65,"x_max":1018,"o":"m 469 -17 q 170 77 275 -17 q 65 343 65 171 q 76 460 65 393 l 88 526 l 807 526 q 813 597 813 560 q 753 756 813 704 q 571 808 694 808 q 392 761 464 808 q 303 619 319 714 l 104 619 q 283 897 138 813 q 606 969 403 969 q 911 872 804 969 q 1018 597 1018 775 q 978 347 1018 482 q 874 136 938 213 q 710 20 808 57 q 469 -17 611 -17 m 501 146 q 681 201 615 146 q 779 379 746 257 l 274 379 q 268 321 268 351 q 330 188 268 231 q 501 146 392 146 z "},"T":{"ha":849,"x_min":88,"x_max":908,"o":"m 244 0 l 382 779 l 88 779 l 118 953 l 908 953 l 878 779 l 583 779 l 446 0 l 244 0 z "},"Ŧ":{"ha":849,"x_min":88,"x_max":908,"o":"m 244 0 l 331 489 l 207 489 l 229 615 l 353 615 l 382 779 l 88 779 l 118 953 l 908 953 l 878 779 l 583 779 l 554 615 l 678 615 l 656 489 l 532 489 l 446 0 l 244 0 z "},"Ť":{"ha":849,"x_min":88,"x_max":908,"o":"m 88 0 m 244 0 l 382 779 l 88 779 l 118 953 l 908 953 l 878 779 l 583 779 l 446 0 l 244 0 m 432 1018 l 318 1206 l 467 1206 l 529 1110 l 615 1206 l 779 1206 l 601 1018 l 432 1018 z "},"Ţ":{"ha":849,"x_min":88,"x_max":908,"o":"m 908 953 l 878 779 l 583 779 l 446 0 l 403 0 l 388 -46 q 475 -72 442 -49 q 508 -136 508 -94 q 442 -226 508 -200 q 297 -253 375 -253 q 156 -242 219 -253 l 168 -174 l 290 -174 q 341 -165 324 -174 q 358 -133 358 -156 q 347 -113 358 -119 q 306 -107 335 -107 l 249 -107 l 283 0 l 244 0 l 382 779 l 88 779 l 118 953 l 908 953 z "},"Ț":{"ha":849,"x_min":88,"x_max":908,"o":"m 88 0 m 244 0 l 382 779 l 88 779 l 118 953 l 908 953 l 878 779 l 583 779 l 446 0 l 244 0 m 196 -319 l 288 -192 l 215 -192 l 240 -56 l 432 -56 l 411 -175 l 297 -319 l 196 -319 z "},"Ṭ":{"ha":849,"x_min":88,"x_max":908,"o":"m 88 0 m 244 0 l 382 779 l 88 779 l 118 953 l 908 953 l 878 779 l 583 779 l 446 0 l 244 0 m 210 -240 l 242 -60 l 429 -60 l 397 -240 l 210 -240 z "},"U":{"ha":1003,"x_min":75,"x_max":1003,"o":"m 450 -17 q 172 58 269 -17 q 75 278 75 132 q 83 365 75 319 l 186 953 l 388 953 l 283 364 q 278 310 278 331 q 453 154 278 154 q 615 208 551 154 q 697 364 679 261 l 801 953 l 1003 953 l 897 354 q 450 -17 832 -17 z "},"Ú":{"ha":1003,"x_min":75,"x_max":1003,"o":"m 75 0 m 450 -17 q 172 58 269 -17 q 75 278 75 132 q 83 365 75 319 l 186 953 l 388 953 l 283 364 q 278 310 278 331 q 453 154 278 154 q 615 208 551 154 q 697 364 679 261 l 801 953 l 1003 953 l 897 354 q 450 -17 832 -17 m 544 1022 l 686 1206 l 878 1206 l 879 1201 l 697 1022 l 544 1022 z "},"Ŭ":{"ha":1003,"x_min":75,"x_max":1003,"o":"m 75 0 m 450 -17 q 172 58 269 -17 q 75 278 75 132 q 83 365 75 319 l 186 953 l 388 953 l 283 364 q 278 310 278 331 q 453 154 278 154 q 615 208 551 154 q 697 364 679 261 l 801 953 l 1003 953 l 897 354 q 450 -17 832 -17 m 621 1015 q 461 1059 511 1015 q 411 1171 411 1103 q 414 1206 411 1194 l 539 1206 q 559 1158 539 1178 q 625 1139 579 1139 q 699 1160 669 1139 q 738 1206 729 1181 l 863 1206 q 832 1126 854 1165 q 775 1061 810 1088 q 621 1015 714 1015 z "},"Ǔ":{"ha":1003,"x_min":75,"x_max":1003,"o":"m 75 0 m 450 -17 q 172 58 269 -17 q 75 278 75 132 q 83 365 75 319 l 186 953 l 388 953 l 283 364 q 278 310 278 331 q 453 154 278 154 q 615 208 551 154 q 697 364 679 261 l 801 953 l 1003 953 l 897 354 q 450 -17 832 -17 m 536 1018 l 422 1206 l 571 1206 l 633 1110 l 719 1206 l 883 1206 l 706 1018 l 536 1018 z "},"Û":{"ha":1003,"x_min":75,"x_max":1003,"o":"m 75 0 m 450 -17 q 172 58 269 -17 q 75 278 75 132 q 83 365 75 319 l 186 953 l 388 953 l 283 364 q 278 310 278 331 q 453 154 278 154 q 615 208 551 154 q 697 364 679 261 l 801 953 l 1003 953 l 897 354 q 450 -17 832 -17 m 381 1018 l 558 1206 l 728 1206 l 842 1018 l 694 1018 l 632 1114 l 546 1018 l 381 1018 z "},"Ȕ":{"ha":1003,"x_min":75,"x_max":1003,"o":"m 75 0 m 450 -17 q 172 58 269 -17 q 75 278 75 132 q 83 365 75 319 l 186 953 l 388 953 l 283 364 q 278 310 278 331 q 453 154 278 154 q 615 208 551 154 q 697 364 679 261 l 801 953 l 1003 953 l 897 354 q 450 -17 832 -17 m 454 1022 l 336 1201 l 339 1206 l 524 1206 l 600 1022 l 454 1022 m 697 1022 l 579 1201 l 582 1206 l 767 1206 l 843 1022 l 697 1022 z "},"Ü":{"ha":1003,"x_min":75,"x_max":1003,"o":"m 75 0 m 450 -17 q 172 58 269 -17 q 75 278 75 132 q 83 365 75 319 l 186 953 l 388 953 l 283 364 q 278 310 278 331 q 453 154 278 154 q 615 208 551 154 q 697 364 679 261 l 801 953 l 1003 953 l 897 354 q 450 -17 832 -17 m 399 1042 l 426 1206 l 590 1206 l 561 1042 l 399 1042 m 689 1042 l 718 1206 l 883 1206 l 854 1042 l 689 1042 z "},"Ǘ":{"ha":1003,"x_min":75,"x_max":1003,"o":"m 75 0 m 450 -17 q 172 58 269 -17 q 75 278 75 132 q 83 365 75 319 l 186 953 l 388 953 l 283 364 q 278 310 278 331 q 453 154 278 154 q 615 208 551 154 q 697 364 679 261 l 801 953 l 1003 953 l 897 354 q 450 -17 832 -17 m 399 1042 l 426 1206 l 590 1206 l 561 1042 l 399 1042 m 689 1042 l 718 1206 l 883 1206 l 854 1042 l 689 1042 m 586 1254 l 728 1438 l 919 1438 l 921 1433 l 739 1254 l 586 1254 z "},"Ǚ":{"ha":1003,"x_min":75,"x_max":1003,"o":"m 75 0 m 450 -17 q 172 58 269 -17 q 75 278 75 132 q 83 365 75 319 l 186 953 l 388 953 l 283 364 q 278 310 278 331 q 453 154 278 154 q 615 208 551 154 q 697 364 679 261 l 801 953 l 1003 953 l 897 354 q 450 -17 832 -17 m 399 1042 l 426 1206 l 590 1206 l 561 1042 l 399 1042 m 689 1042 l 718 1206 l 883 1206 l 854 1042 l 689 1042 m 578 1250 l 464 1438 l 613 1438 l 675 1342 l 761 1438 l 925 1438 l 747 1250 l 578 1250 z "},"Ǜ":{"ha":1003,"x_min":75,"x_max":1003,"o":"m 75 0 m 450 -17 q 172 58 269 -17 q 75 278 75 132 q 83 365 75 319 l 186 953 l 388 953 l 283 364 q 278 310 278 331 q 453 154 278 154 q 615 208 551 154 q 697 364 679 261 l 801 953 l 1003 953 l 897 354 q 450 -17 832 -17 m 399 1042 l 426 1206 l 590 1206 l 561 1042 l 399 1042 m 689 1042 l 718 1206 l 883 1206 l 854 1042 l 689 1042 m 593 1254 l 475 1433 l 476 1438 l 654 1438 l 732 1254 l 593 1254 z "},"Ǖ":{"ha":1003,"x_min":75,"x_max":1003,"o":"m 75 0 m 450 -17 q 172 58 269 -17 q 75 278 75 132 q 83 365 75 319 l 186 953 l 388 953 l 283 364 q 278 310 278 331 q 453 154 278 154 q 615 208 551 154 q 697 364 679 261 l 801 953 l 1003 953 l 897 354 q 450 -17 832 -17 m 399 1042 l 426 1206 l 590 1206 l 561 1042 l 399 1042 m 689 1042 l 718 1206 l 883 1206 l 854 1042 l 689 1042 m 458 1282 l 479 1404 l 903 1404 l 882 1282 l 458 1282 z "},"Ụ":{"ha":1003,"x_min":75,"x_max":1003,"o":"m 75 0 m 450 -17 q 172 58 269 -17 q 75 278 75 132 q 83 365 75 319 l 186 953 l 388 953 l 283 364 q 278 310 278 331 q 453 154 278 154 q 615 208 551 154 q 697 364 679 261 l 801 953 l 1003 953 l 897 354 q 450 -17 832 -17 m 301 -240 l 333 -60 l 521 -60 l 489 -240 l 301 -240 z "},"Ù":{"ha":1003,"x_min":75,"x_max":1003,"o":"m 75 0 m 450 -17 q 172 58 269 -17 q 75 278 75 132 q 83 365 75 319 l 186 953 l 388 953 l 283 364 q 278 310 278 331 q 453 154 278 154 q 615 208 551 154 q 697 364 679 261 l 801 953 l 1003 953 l 897 354 q 450 -17 832 -17 m 551 1022 l 433 1201 l 435 1206 l 613 1206 l 690 1022 l 551 1022 z "},"Ủ":{"ha":1003,"x_min":75,"x_max":1003,"o":"m 75 0 m 450 -17 q 172 58 269 -17 q 75 278 75 132 q 83 365 75 319 l 186 953 l 388 953 l 283 364 q 278 310 278 331 q 453 154 278 154 q 615 208 551 154 q 697 364 679 261 l 801 953 l 1003 953 l 897 354 q 450 -17 832 -17 m 589 1097 l 608 1097 q 646 1105 635 1097 q 657 1129 657 1113 q 647 1146 657 1142 q 613 1150 636 1150 l 532 1150 l 543 1211 q 661 1222 599 1222 q 765 1206 719 1222 q 810 1150 810 1189 q 772 1083 810 1106 q 676 1057 733 1061 l 669 1022 l 575 1022 l 589 1097 z "},"Ư":{"ha":1003,"x_min":75,"x_max":1210,"o":"m 1210 1206 l 1196 1131 q 1125 951 1176 1018 q 985 850 1074 883 l 897 354 q 450 -17 832 -17 q 172 58 269 -17 q 75 278 75 132 q 83 365 75 319 l 186 953 l 388 953 l 283 364 q 278 310 278 331 q 453 154 278 154 q 615 208 551 154 q 697 364 679 261 l 801 953 l 988 953 q 1051 1015 1031 978 l 969 1015 l 1004 1206 l 1210 1206 z "},"Ứ":{"ha":1003,"x_min":75,"x_max":1210,"o":"m 75 0 m 1210 1206 l 1196 1131 q 1125 951 1176 1018 q 985 850 1074 883 l 897 354 q 450 -17 832 -17 q 172 58 269 -17 q 75 278 75 132 q 83 365 75 319 l 186 953 l 388 953 l 283 364 q 278 310 278 331 q 453 154 278 154 q 615 208 551 154 q 697 364 679 261 l 801 953 l 988 953 q 1051 1015 1031 978 l 969 1015 l 1004 1206 l 1210 1206 m 544 1022 l 686 1206 l 878 1206 l 879 1201 l 697 1022 l 544 1022 z "},"Ự":{"ha":1003,"x_min":75,"x_max":1210,"o":"m 75 0 m 1210 1206 l 1196 1131 q 1125 951 1176 1018 q 985 850 1074 883 l 897 354 q 450 -17 832 -17 q 172 58 269 -17 q 75 278 75 132 q 83 365 75 319 l 186 953 l 388 953 l 283 364 q 278 310 278 331 q 453 154 278 154 q 615 208 551 154 q 697 364 679 261 l 801 953 l 988 953 q 1051 1015 1031 978 l 969 1015 l 1004 1206 l 1210 1206 m 301 -240 l 333 -60 l 521 -60 l 489 -240 l 301 -240 z "},"Ừ":{"ha":1003,"x_min":75,"x_max":1210,"o":"m 75 0 m 1210 1206 l 1196 1131 q 1125 951 1176 1018 q 985 850 1074 883 l 897 354 q 450 -17 832 -17 q 172 58 269 -17 q 75 278 75 132 q 83 365 75 319 l 186 953 l 388 953 l 283 364 q 278 310 278 331 q 453 154 278 154 q 615 208 551 154 q 697 364 679 261 l 801 953 l 988 953 q 1051 1015 1031 978 l 969 1015 l 1004 1206 l 1210 1206 m 551 1022 l 433 1201 l 435 1206 l 613 1206 l 690 1022 l 551 1022 z "},"Ử":{"ha":1003,"x_min":75,"x_max":1210,"o":"m 75 0 m 1210 1206 l 1196 1131 q 1125 951 1176 1018 q 985 850 1074 883 l 897 354 q 450 -17 832 -17 q 172 58 269 -17 q 75 278 75 132 q 83 365 75 319 l 186 953 l 388 953 l 283 364 q 278 310 278 331 q 453 154 278 154 q 615 208 551 154 q 697 364 679 261 l 801 953 l 988 953 q 1051 1015 1031 978 l 969 1015 l 1004 1206 l 1210 1206 m 589 1097 l 608 1097 q 646 1105 635 1097 q 657 1129 657 1113 q 647 1146 657 1142 q 613 1150 636 1150 l 532 1150 l 543 1211 q 661 1222 599 1222 q 765 1206 719 1222 q 810 1150 810 1189 q 772 1083 810 1106 q 676 1057 733 1061 l 669 1022 l 575 1022 l 589 1097 z "},"Ữ":{"ha":1003,"x_min":75,"x_max":1210,"o":"m 75 0 m 1210 1206 l 1196 1131 q 1125 951 1176 1018 q 985 850 1074 883 l 897 354 q 450 -17 832 -17 q 172 58 269 -17 q 75 278 75 132 q 83 365 75 319 l 186 953 l 388 953 l 283 364 q 278 310 278 331 q 453 154 278 154 q 615 208 551 154 q 697 364 679 261 l 801 953 l 988 953 q 1051 1015 1031 978 l 969 1015 l 1004 1206 l 1210 1206 m 392 1036 q 444 1158 404 1110 q 549 1206 483 1206 q 592 1199 572 1206 q 644 1179 613 1193 q 692 1160 672 1167 q 732 1154 711 1154 q 766 1166 753 1154 q 789 1206 779 1178 l 886 1206 q 833 1084 874 1132 q 726 1036 793 1036 q 684 1042 704 1036 q 632 1063 664 1049 q 585 1081 604 1075 q 544 1088 565 1088 q 510 1076 524 1088 q 488 1036 497 1064 l 392 1036 z "},"Ű":{"ha":1003,"x_min":75,"x_max":1003,"o":"m 75 0 m 450 -17 q 172 58 269 -17 q 75 278 75 132 q 83 365 75 319 l 186 953 l 388 953 l 283 364 q 278 310 278 331 q 453 154 278 154 q 615 208 551 154 q 697 364 679 261 l 801 953 l 1003 953 l 897 354 q 450 -17 832 -17 m 422 1022 l 563 1206 l 753 1206 l 754 1201 l 572 1022 l 422 1022 m 669 1022 l 811 1206 l 1001 1206 l 1003 1201 l 821 1022 l 669 1022 z "},"Ȗ":{"ha":1003,"x_min":75,"x_max":1003,"o":"m 75 0 m 450 -17 q 172 58 269 -17 q 75 278 75 132 q 83 365 75 319 l 186 953 l 388 953 l 283 364 q 278 310 278 331 q 453 154 278 154 q 615 208 551 154 q 697 364 679 261 l 801 953 l 1003 953 l 897 354 q 450 -17 832 -17 m 396 1015 q 469 1151 410 1096 q 653 1206 528 1206 q 756 1182 713 1206 q 823 1120 800 1158 q 846 1040 846 1082 q 844 1015 846 1024 l 719 1015 q 698 1061 721 1040 q 631 1082 675 1082 q 557 1061 586 1082 q 521 1015 528 1040 l 396 1015 z "},"Ū":{"ha":1003,"x_min":75,"x_max":1003,"o":"m 75 0 m 450 -17 q 172 58 269 -17 q 75 278 75 132 q 83 365 75 319 l 186 953 l 388 953 l 283 364 q 278 310 278 331 q 453 154 278 154 q 615 208 551 154 q 697 364 679 261 l 801 953 l 1003 953 l 897 354 q 450 -17 832 -17 m 417 1050 l 438 1172 l 861 1172 l 840 1050 l 417 1050 z "},"Ų":{"ha":1003,"x_min":75,"x_max":1003,"o":"m 513 -253 q 422 -227 458 -253 q 385 -146 385 -201 q 446 -17 385 -75 q 171 59 267 -15 q 75 278 75 133 q 83 365 75 319 l 186 953 l 388 953 l 283 364 q 278 310 278 331 q 453 154 278 154 q 615 208 551 154 q 697 364 679 261 l 801 953 l 1003 953 l 897 354 q 589 -1 844 57 q 554 -51 568 -24 q 540 -104 540 -78 q 553 -142 540 -128 q 596 -157 567 -157 l 629 -157 l 615 -233 q 513 -253 557 -253 z "},"Ů":{"ha":1003,"x_min":75,"x_max":1003,"o":"m 75 0 m 450 -17 q 172 58 269 -17 q 75 278 75 132 q 83 365 75 319 l 186 953 l 388 953 l 283 364 q 278 310 278 331 q 453 154 278 154 q 615 208 551 154 q 697 364 679 261 l 801 953 l 1003 953 l 897 354 q 450 -17 832 -17 m 617 974 q 525 1006 558 974 q 492 1090 492 1039 q 537 1206 492 1157 q 651 1254 582 1254 q 744 1221 711 1254 q 776 1135 776 1188 q 731 1021 776 1068 q 617 974 685 974 m 624 1053 q 675 1074 653 1053 q 697 1125 697 1096 q 683 1161 697 1147 q 644 1175 668 1175 q 593 1153 614 1175 q 572 1100 572 1132 q 586 1066 572 1079 q 624 1053 600 1053 z "},"Ũ":{"ha":1003,"x_min":75,"x_max":1003,"o":"m 75 0 m 450 -17 q 172 58 269 -17 q 75 278 75 132 q 83 365 75 319 l 186 953 l 388 953 l 283 364 q 278 310 278 331 q 453 154 278 154 q 615 208 551 154 q 697 364 679 261 l 801 953 l 1003 953 l 897 354 q 450 -17 832 -17 m 392 1036 q 444 1158 404 1110 q 549 1206 483 1206 q 592 1199 572 1206 q 644 1179 613 1193 q 692 1160 672 1167 q 732 1154 711 1154 q 766 1166 753 1154 q 789 1206 779 1178 l 886 1206 q 833 1084 874 1132 q 726 1036 793 1036 q 684 1042 704 1036 q 632 1063 664 1049 q 585 1081 604 1075 q 544 1088 565 1088 q 510 1076 524 1088 q 488 1036 497 1064 l 392 1036 z "},"V":{"ha":926,"x_min":99,"x_max":1013,"o":"m 99 953 l 304 953 l 392 431 q 409 318 400 379 q 422 233 418 257 l 429 233 q 470 319 440 257 q 526 431 500 381 l 796 953 l 1013 953 l 500 0 l 275 0 l 99 953 z "},"W":{"ha":1311,"x_min":92,"x_max":1394,"o":"m 92 953 l 281 953 l 321 367 q 323 288 322 328 q 324 233 324 249 l 331 233 q 349 295 335 249 q 372 367 363 342 l 615 953 l 858 953 l 894 367 q 897 290 897 331 q 897 233 897 249 l 904 233 q 921 292 908 247 q 946 367 933 338 l 1190 953 l 1394 953 l 974 0 l 747 0 l 706 607 q 702 688 703 649 q 701 742 701 728 l 696 742 q 678 679 692 726 q 653 607 664 632 l 392 0 l 165 0 l 92 953 z "},"Ẃ":{"ha":1311,"x_min":92,"x_max":1394,"o":"m 92 0 m 92 953 l 281 953 l 321 367 q 323 288 322 328 q 324 233 324 249 l 331 233 q 349 295 335 249 q 372 367 363 342 l 615 953 l 858 953 l 894 367 q 897 290 897 331 q 897 233 897 249 l 904 233 q 921 292 908 247 q 946 367 933 338 l 1190 953 l 1394 953 l 974 0 l 747 0 l 706 607 q 702 688 703 649 q 701 742 701 728 l 696 742 q 678 679 692 726 q 653 607 664 632 l 392 0 l 165 0 l 92 953 m 699 1022 l 840 1206 l 1032 1206 l 1033 1201 l 851 1022 l 699 1022 z "},"Ŵ":{"ha":1311,"x_min":92,"x_max":1394,"o":"m 92 0 m 92 953 l 281 953 l 321 367 q 323 288 322 328 q 324 233 324 249 l 331 233 q 349 295 335 249 q 372 367 363 342 l 615 953 l 858 953 l 894 367 q 897 290 897 331 q 897 233 897 249 l 904 233 q 921 292 908 247 q 946 367 933 338 l 1190 953 l 1394 953 l 974 0 l 747 0 l 706 607 q 702 688 703 649 q 701 742 701 728 l 696 742 q 678 679 692 726 q 653 607 664 632 l 392 0 l 165 0 l 92 953 m 535 1018 l 713 1206 l 882 1206 l 996 1018 l 849 1018 l 786 1114 l 700 1018 l 535 1018 z "},"Ẅ":{"ha":1311,"x_min":92,"x_max":1394,"o":"m 92 0 m 92 953 l 281 953 l 321 367 q 323 288 322 328 q 324 233 324 249 l 331 233 q 349 295 335 249 q 372 367 363 342 l 615 953 l 858 953 l 894 367 q 897 290 897 331 q 897 233 897 249 l 904 233 q 921 292 908 247 q 946 367 933 338 l 1190 953 l 1394 953 l 974 0 l 747 0 l 706 607 q 702 688 703 649 q 701 742 701 728 l 696 742 q 678 679 692 726 q 653 607 664 632 l 392 0 l 165 0 l 92 953 m 553 1042 l 581 1206 l 744 1206 l 715 1042 l 553 1042 m 843 1042 l 872 1206 l 1038 1206 l 1008 1042 l 843 1042 z "},"Ẁ":{"ha":1311,"x_min":92,"x_max":1394,"o":"m 92 0 m 92 953 l 281 953 l 321 367 q 323 288 322 328 q 324 233 324 249 l 331 233 q 349 295 335 249 q 372 367 363 342 l 615 953 l 858 953 l 894 367 q 897 290 897 331 q 897 233 897 249 l 904 233 q 921 292 908 247 q 946 367 933 338 l 1190 953 l 1394 953 l 974 0 l 747 0 l 706 607 q 702 688 703 649 q 701 742 701 728 l 696 742 q 678 679 692 726 q 653 607 664 632 l 392 0 l 165 0 l 92 953 m 706 1022 l 588 1201 l 589 1206 l 767 1206 l 844 1022 l 706 1022 z "},"X":{"ha":926,"x_min":-83,"x_max":978,"o":"m -83 0 l 350 507 l 114 953 l 340 953 l 483 664 l 490 664 l 732 953 l 978 953 l 582 492 l 840 0 l 615 0 l 449 332 l 442 332 l 164 0 l -83 0 z "},"Y":{"ha":926,"x_min":86,"x_max":1013,"o":"m 282 0 l 350 385 l 86 953 l 293 953 l 472 564 l 479 564 l 792 953 l 1013 953 l 551 385 l 483 0 l 282 0 z "},"Ý":{"ha":926,"x_min":86,"x_max":1013,"o":"m 86 0 m 282 0 l 350 385 l 86 953 l 293 953 l 472 564 l 479 564 l 792 953 l 1013 953 l 551 385 l 483 0 l 282 0 m 507 1022 l 649 1206 l 840 1206 l 842 1201 l 660 1022 l 507 1022 z "},"Ŷ":{"ha":926,"x_min":86,"x_max":1013,"o":"m 86 0 m 282 0 l 350 385 l 86 953 l 293 953 l 472 564 l 479 564 l 792 953 l 1013 953 l 551 385 l 483 0 l 282 0 m 343 1018 l 521 1206 l 690 1206 l 804 1018 l 657 1018 l 594 1114 l 508 1018 l 343 1018 z "},"Ÿ":{"ha":926,"x_min":86,"x_max":1013,"o":"m 86 0 m 282 0 l 350 385 l 86 953 l 293 953 l 472 564 l 479 564 l 792 953 l 1013 953 l 551 385 l 483 0 l 282 0 m 361 1042 l 389 1206 l 553 1206 l 524 1042 l 361 1042 m 651 1042 l 681 1206 l 846 1206 l 817 1042 l 651 1042 z "},"Ỵ":{"ha":926,"x_min":86,"x_max":1013,"o":"m 86 0 m 282 0 l 350 385 l 86 953 l 293 953 l 472 564 l 479 564 l 792 953 l 1013 953 l 551 385 l 483 0 l 282 0 m 247 -240 l 279 -60 l 467 -60 l 435 -240 l 247 -240 z "},"Ỳ":{"ha":926,"x_min":86,"x_max":1013,"o":"m 86 0 m 282 0 l 350 385 l 86 953 l 293 953 l 472 564 l 479 564 l 792 953 l 1013 953 l 551 385 l 483 0 l 282 0 m 514 1022 l 396 1201 l 397 1206 l 575 1206 l 653 1022 l 514 1022 z "},"Ỷ":{"ha":926,"x_min":86,"x_max":1013,"o":"m 86 0 m 282 0 l 350 385 l 86 953 l 293 953 l 472 564 l 479 564 l 792 953 l 1013 953 l 551 385 l 483 0 l 282 0 m 551 1097 l 571 1097 q 608 1105 597 1097 q 619 1129 619 1113 q 609 1146 619 1142 q 575 1150 599 1150 l 494 1150 l 506 1211 q 624 1222 561 1222 q 727 1206 682 1222 q 772 1150 772 1189 q 734 1083 772 1106 q 639 1057 696 1061 l 632 1022 l 538 1022 l 551 1097 z "},"Ȳ":{"ha":926,"x_min":86,"x_max":1013,"o":"m 86 0 m 282 0 l 350 385 l 86 953 l 293 953 l 472 564 l 479 564 l 792 953 l 1013 953 l 551 385 l 483 0 l 282 0 m 379 1050 l 400 1172 l 824 1172 l 803 1050 l 379 1050 z "},"Ỹ":{"ha":926,"x_min":86,"x_max":1013,"o":"m 86 0 m 282 0 l 350 385 l 86 953 l 293 953 l 472 564 l 479 564 l 792 953 l 1013 953 l 551 385 l 483 0 l 282 0 m 354 1036 q 406 1158 367 1110 q 511 1206 446 1206 q 555 1199 535 1206 q 607 1179 575 1193 q 654 1160 635 1167 q 694 1154 674 1154 q 728 1166 715 1154 q 751 1206 742 1178 l 849 1206 q 796 1084 836 1132 q 689 1036 756 1036 q 647 1042 667 1036 q 594 1063 626 1049 q 547 1081 567 1075 q 507 1088 528 1088 q 473 1076 486 1088 q 450 1036 460 1064 l 354 1036 z "},"Z":{"ha":849,"x_min":-53,"x_max":892,"o":"m -53 0 l -36 94 l 550 782 l 119 782 l 150 953 l 892 953 l 875 857 l 289 171 l 767 171 l 736 0 l -53 0 z "},"Ź":{"ha":849,"x_min":-53,"x_max":892,"o":"m 0 0 m -53 0 l -36 94 l 550 782 l 119 782 l 150 953 l 892 953 l 875 857 l 289 171 l 767 171 l 736 0 l -53 0 m 426 1022 l 568 1206 l 760 1206 l 761 1201 l 579 1022 l 426 1022 z "},"Ž":{"ha":849,"x_min":-53,"x_max":892,"o":"m 0 0 m -53 0 l -36 94 l 550 782 l 119 782 l 150 953 l 892 953 l 875 857 l 289 171 l 767 171 l 736 0 l -53 0 m 418 1018 l 304 1206 l 453 1206 l 515 1110 l 601 1206 l 765 1206 l 588 1018 l 418 1018 z "},"Ż":{"ha":849,"x_min":-53,"x_max":892,"o":"m 0 0 m -53 0 l -36 94 l 550 782 l 119 782 l 150 953 l 892 953 l 875 857 l 289 171 l 767 171 l 736 0 l -53 0 m 410 1026 l 442 1207 l 629 1207 l 597 1026 l 410 1026 z "},"Ẓ":{"ha":849,"x_min":-53,"x_max":892,"o":"m 0 0 m -53 0 l -36 94 l 550 782 l 119 782 l 150 953 l 892 953 l 875 857 l 289 171 l 767 171 l 736 0 l -53 0 m 225 -240 l 257 -60 l 444 -60 l 413 -240 l 225 -240 z "},"a":{"ha":821,"x_min":24,"x_max":769,"o":"m 672 176 q 684 149 672 158 q 713 139 696 139 l 753 139 l 729 6 q 615 -17 682 -17 q 527 14 561 -17 q 488 96 493 44 l 479 96 q 383 13 440 42 q 263 -17 326 -17 q 88 58 153 -17 q 24 272 24 132 q 58 489 24 379 q 167 673 93 599 q 350 747 240 747 q 474 722 424 747 q 557 646 524 696 l 565 646 l 608 731 l 769 731 l 711 397 q 672 176 672 178 m 336 149 q 444 199 401 149 q 505 318 486 249 q 524 447 524 388 q 407 588 524 588 q 296 537 338 588 q 238 417 254 486 q 221 283 221 347 q 336 149 221 149 z "},"á":{"ha":821,"x_min":24,"x_max":769,"o":"m 24 0 m 672 176 q 684 149 672 158 q 713 139 696 139 l 753 139 l 729 6 q 615 -17 682 -17 q 527 14 561 -17 q 488 96 493 44 l 479 96 q 383 13 440 42 q 263 -17 326 -17 q 88 58 153 -17 q 24 272 24 132 q 58 489 24 379 q 167 673 93 599 q 350 747 240 747 q 474 722 424 747 q 557 646 524 696 l 565 646 l 608 731 l 769 731 l 711 397 q 672 176 672 178 m 336 149 q 444 199 401 149 q 505 318 486 249 q 524 447 524 388 q 407 588 524 588 q 296 537 338 588 q 238 417 254 486 q 221 283 221 347 q 336 149 221 149 m 336 821 l 478 1004 l 669 1004 l 671 1000 l 489 821 l 336 821 z "},"ă":{"ha":821,"x_min":24,"x_max":769,"o":"m 24 0 m 672 176 q 684 149 672 158 q 713 139 696 139 l 753 139 l 729 6 q 615 -17 682 -17 q 527 14 561 -17 q 488 96 493 44 l 479 96 q 383 13 440 42 q 263 -17 326 -17 q 88 58 153 -17 q 24 272 24 132 q 58 489 24 379 q 167 673 93 599 q 350 747 240 747 q 474 722 424 747 q 557 646 524 696 l 565 646 l 608 731 l 769 731 l 711 397 q 672 176 672 178 m 336 149 q 444 199 401 149 q 505 318 486 249 q 524 447 524 388 q 407 588 524 588 q 296 537 338 588 q 238 417 254 486 q 221 283 221 347 q 336 149 221 149 m 413 814 q 253 858 303 814 q 203 969 203 901 q 206 1004 203 993 l 331 1004 q 351 957 331 976 q 417 938 371 938 q 491 958 461 938 q 529 1004 521 979 l 654 1004 q 624 925 646 964 q 567 860 601 886 q 413 814 506 814 z "},"ắ":{"ha":821,"x_min":24,"x_max":769,"o":"m 24 0 m 672 176 q 684 149 672 158 q 713 139 696 139 l 753 139 l 729 6 q 615 -17 682 -17 q 527 14 561 -17 q 488 96 493 44 l 479 96 q 383 13 440 42 q 263 -17 326 -17 q 88 58 153 -17 q 24 272 24 132 q 58 489 24 379 q 167 673 93 599 q 350 747 240 747 q 474 722 424 747 q 557 646 524 696 l 565 646 l 608 731 l 769 731 l 711 397 q 672 176 672 178 m 336 149 q 444 199 401 149 q 505 318 486 249 q 524 447 524 388 q 407 588 524 588 q 296 537 338 588 q 238 417 254 486 q 221 283 221 347 q 336 149 221 149 m 413 814 q 253 858 303 814 q 203 969 203 901 q 206 1004 203 993 l 331 1004 q 351 957 331 976 q 417 938 371 938 q 491 958 461 938 q 529 1004 521 979 l 654 1004 q 624 925 646 964 q 567 860 601 886 q 413 814 506 814 m 344 1004 l 486 1188 l 678 1188 l 679 1183 l 497 1004 l 344 1004 z "},"ặ":{"ha":821,"x_min":24,"x_max":769,"o":"m 24 0 m 672 176 q 684 149 672 158 q 713 139 696 139 l 753 139 l 729 6 q 615 -17 682 -17 q 527 14 561 -17 q 488 96 493 44 l 479 96 q 383 13 440 42 q 263 -17 326 -17 q 88 58 153 -17 q 24 272 24 132 q 58 489 24 379 q 167 673 93 599 q 350 747 240 747 q 474 722 424 747 q 557 646 524 696 l 565 646 l 608 731 l 769 731 l 711 397 q 672 176 672 178 m 336 149 q 444 199 401 149 q 505 318 486 249 q 524 447 524 388 q 407 588 524 588 q 296 537 338 588 q 238 417 254 486 q 221 283 221 347 q 336 149 221 149 m 413 814 q 253 858 303 814 q 203 969 203 901 q 206 1004 203 993 l 331 1004 q 351 957 331 976 q 417 938 371 938 q 491 958 461 938 q 529 1004 521 979 l 654 1004 q 624 925 646 964 q 567 860 601 886 q 413 814 506 814 m 154 -240 l 186 -60 l 374 -60 l 342 -240 l 154 -240 z "},"ằ":{"ha":821,"x_min":24,"x_max":769,"o":"m 24 0 m 672 176 q 684 149 672 158 q 713 139 696 139 l 753 139 l 729 6 q 615 -17 682 -17 q 527 14 561 -17 q 488 96 493 44 l 479 96 q 383 13 440 42 q 263 -17 326 -17 q 88 58 153 -17 q 24 272 24 132 q 58 489 24 379 q 167 673 93 599 q 350 747 240 747 q 474 722 424 747 q 557 646 524 696 l 565 646 l 608 731 l 769 731 l 711 397 q 672 176 672 178 m 336 149 q 444 199 401 149 q 505 318 486 249 q 524 447 524 388 q 407 588 524 588 q 296 537 338 588 q 238 417 254 486 q 221 283 221 347 q 336 149 221 149 m 413 814 q 253 858 303 814 q 203 969 203 901 q 206 1004 203 993 l 331 1004 q 351 957 331 976 q 417 938 371 938 q 491 958 461 938 q 529 1004 521 979 l 654 1004 q 624 925 646 964 q 567 860 601 886 q 413 814 506 814 m 407 1004 l 289 1183 l 290 1188 l 468 1188 l 546 1004 l 407 1004 z "},"ẳ":{"ha":821,"x_min":24,"x_max":769,"o":"m 24 0 m 672 176 q 684 149 672 158 q 713 139 696 139 l 753 139 l 729 6 q 615 -17 682 -17 q 527 14 561 -17 q 488 96 493 44 l 479 96 q 383 13 440 42 q 263 -17 326 -17 q 88 58 153 -17 q 24 272 24 132 q 58 489 24 379 q 167 673 93 599 q 350 747 240 747 q 474 722 424 747 q 557 646 524 696 l 565 646 l 608 731 l 769 731 l 711 397 q 672 176 672 178 m 336 149 q 444 199 401 149 q 505 318 486 249 q 524 447 524 388 q 407 588 524 588 q 296 537 338 588 q 238 417 254 486 q 221 283 221 347 q 336 149 221 149 m 413 814 q 253 858 303 814 q 203 969 203 901 q 206 1004 203 993 l 331 1004 q 351 957 331 976 q 417 938 371 938 q 491 958 461 938 q 529 1004 521 979 l 654 1004 q 624 925 646 964 q 567 860 601 886 q 413 814 506 814 m 388 1079 l 407 1079 q 444 1087 433 1079 q 456 1111 456 1094 q 445 1128 456 1124 q 411 1132 435 1132 l 331 1132 l 342 1193 q 460 1204 397 1204 q 563 1188 518 1204 q 608 1132 608 1171 q 570 1065 608 1088 q 475 1039 532 1043 l 468 1004 l 374 1004 l 388 1079 z "},"ẵ":{"ha":821,"x_min":24,"x_max":769,"o":"m 24 0 m 672 176 q 684 149 672 158 q 713 139 696 139 l 753 139 l 729 6 q 615 -17 682 -17 q 527 14 561 -17 q 488 96 493 44 l 479 96 q 383 13 440 42 q 263 -17 326 -17 q 88 58 153 -17 q 24 272 24 132 q 58 489 24 379 q 167 673 93 599 q 350 747 240 747 q 474 722 424 747 q 557 646 524 696 l 565 646 l 608 731 l 769 731 l 711 397 q 672 176 672 178 m 336 149 q 444 199 401 149 q 505 318 486 249 q 524 447 524 388 q 407 588 524 588 q 296 537 338 588 q 238 417 254 486 q 221 283 221 347 q 336 149 221 149 m 413 814 q 253 858 303 814 q 203 969 203 901 q 206 1004 203 993 l 331 1004 q 351 957 331 976 q 417 938 371 938 q 491 958 461 938 q 529 1004 521 979 l 654 1004 q 624 925 646 964 q 567 860 601 886 q 413 814 506 814 m 204 1057 q 256 1178 217 1131 q 361 1226 296 1226 q 405 1220 385 1226 q 457 1200 425 1214 q 504 1181 485 1188 q 544 1175 524 1175 q 578 1187 565 1175 q 601 1226 592 1199 l 699 1226 q 646 1105 686 1153 q 539 1057 606 1057 q 497 1063 517 1057 q 444 1083 476 1069 q 397 1102 417 1096 q 357 1108 378 1108 q 323 1097 336 1108 q 300 1057 310 1085 l 204 1057 z "},"ǎ":{"ha":821,"x_min":24,"x_max":769,"o":"m 24 0 m 672 176 q 684 149 672 158 q 713 139 696 139 l 753 139 l 729 6 q 615 -17 682 -17 q 527 14 561 -17 q 488 96 493 44 l 479 96 q 383 13 440 42 q 263 -17 326 -17 q 88 58 153 -17 q 24 272 24 132 q 58 489 24 379 q 167 673 93 599 q 350 747 240 747 q 474 722 424 747 q 557 646 524 696 l 565 646 l 608 731 l 769 731 l 711 397 q 672 176 672 178 m 336 149 q 444 199 401 149 q 505 318 486 249 q 524 447 524 388 q 407 588 524 588 q 296 537 338 588 q 238 417 254 486 q 221 283 221 347 q 336 149 221 149 m 328 817 l 214 1004 l 363 1004 l 425 908 l 511 1004 l 675 1004 l 497 817 l 328 817 z "},"â":{"ha":821,"x_min":24,"x_max":769,"o":"m 24 0 m 672 176 q 684 149 672 158 q 713 139 696 139 l 753 139 l 729 6 q 615 -17 682 -17 q 527 14 561 -17 q 488 96 493 44 l 479 96 q 383 13 440 42 q 263 -17 326 -17 q 88 58 153 -17 q 24 272 24 132 q 58 489 24 379 q 167 673 93 599 q 350 747 240 747 q 474 722 424 747 q 557 646 524 696 l 565 646 l 608 731 l 769 731 l 711 397 q 672 176 672 178 m 336 149 q 444 199 401 149 q 505 318 486 249 q 524 447 524 388 q 407 588 524 588 q 296 537 338 588 q 238 417 254 486 q 221 283 221 347 q 336 149 221 149 m 172 817 l 350 1004 l 519 1004 l 633 817 l 486 817 l 424 913 l 338 817 l 172 817 z "},"ấ":{"ha":821,"x_min":24,"x_max":900,"o":"m 24 0 m 672 176 q 684 149 672 158 q 713 139 696 139 l 753 139 l 729 6 q 615 -17 682 -17 q 527 14 561 -17 q 488 96 493 44 l 479 96 q 383 13 440 42 q 263 -17 326 -17 q 88 58 153 -17 q 24 272 24 132 q 58 489 24 379 q 167 673 93 599 q 350 747 240 747 q 474 722 424 747 q 557 646 524 696 l 565 646 l 608 731 l 769 731 l 711 397 q 672 176 672 178 m 336 149 q 444 199 401 149 q 505 318 486 249 q 524 447 524 388 q 407 588 524 588 q 296 537 338 588 q 238 417 254 486 q 221 283 221 347 q 336 149 221 149 m 172 817 l 350 1004 l 519 1004 l 633 817 l 486 817 l 424 913 l 338 817 l 172 817 m 565 953 l 707 1136 l 899 1136 l 900 1132 l 718 953 l 565 953 z "},"ậ":{"ha":821,"x_min":24,"x_max":769,"o":"m 24 0 m 672 176 q 684 149 672 158 q 713 139 696 139 l 753 139 l 729 6 q 615 -17 682 -17 q 527 14 561 -17 q 488 96 493 44 l 479 96 q 383 13 440 42 q 263 -17 326 -17 q 88 58 153 -17 q 24 272 24 132 q 58 489 24 379 q 167 673 93 599 q 350 747 240 747 q 474 722 424 747 q 557 646 524 696 l 565 646 l 608 731 l 769 731 l 711 397 q 672 176 672 178 m 336 149 q 444 199 401 149 q 505 318 486 249 q 524 447 524 388 q 407 588 524 588 q 296 537 338 588 q 238 417 254 486 q 221 283 221 347 q 336 149 221 149 m 172 817 l 350 1004 l 519 1004 l 633 817 l 486 817 l 424 913 l 338 817 l 172 817 m 154 -240 l 186 -60 l 374 -60 l 342 -240 l 154 -240 z "},"ầ":{"ha":821,"x_min":24,"x_max":769,"o":"m 24 0 m 672 176 q 684 149 672 158 q 713 139 696 139 l 753 139 l 729 6 q 615 -17 682 -17 q 527 14 561 -17 q 488 96 493 44 l 479 96 q 383 13 440 42 q 263 -17 326 -17 q 88 58 153 -17 q 24 272 24 132 q 58 489 24 379 q 167 673 93 599 q 350 747 240 747 q 474 722 424 747 q 557 646 524 696 l 565 646 l 608 731 l 769 731 l 711 397 q 672 176 672 178 m 336 149 q 444 199 401 149 q 505 318 486 249 q 524 447 524 388 q 407 588 524 588 q 296 537 338 588 q 238 417 254 486 q 221 283 221 347 q 336 149 221 149 m 172 817 l 350 1004 l 519 1004 l 633 817 l 486 817 l 424 913 l 338 817 l 172 817 m 628 953 l 510 1132 l 511 1136 l 689 1136 l 767 953 l 628 953 z "},"ẩ":{"ha":821,"x_min":24,"x_max":829,"o":"m 24 0 m 672 176 q 684 149 672 158 q 713 139 696 139 l 753 139 l 729 6 q 615 -17 682 -17 q 527 14 561 -17 q 488 96 493 44 l 479 96 q 383 13 440 42 q 263 -17 326 -17 q 88 58 153 -17 q 24 272 24 132 q 58 489 24 379 q 167 673 93 599 q 350 747 240 747 q 474 722 424 747 q 557 646 524 696 l 565 646 l 608 731 l 769 731 l 711 397 q 672 176 672 178 m 336 149 q 444 199 401 149 q 505 318 486 249 q 524 447 524 388 q 407 588 524 588 q 296 537 338 588 q 238 417 254 486 q 221 283 221 347 q 336 149 221 149 m 172 817 l 350 1004 l 519 1004 l 633 817 l 486 817 l 424 913 l 338 817 l 172 817 m 608 1028 l 628 1028 q 665 1035 654 1028 q 676 1060 676 1043 q 666 1076 676 1072 q 632 1081 656 1081 l 551 1081 l 563 1142 q 681 1153 618 1153 q 784 1136 739 1153 q 829 1081 829 1119 q 791 1014 829 1036 q 696 988 753 992 l 689 953 l 594 953 l 608 1028 z "},"ẫ":{"ha":821,"x_min":24,"x_max":769,"o":"m 24 0 m 672 176 q 684 149 672 158 q 713 139 696 139 l 753 139 l 729 6 q 615 -17 682 -17 q 527 14 561 -17 q 488 96 493 44 l 479 96 q 383 13 440 42 q 263 -17 326 -17 q 88 58 153 -17 q 24 272 24 132 q 58 489 24 379 q 167 673 93 599 q 350 747 240 747 q 474 722 424 747 q 557 646 524 696 l 565 646 l 608 731 l 769 731 l 711 397 q 672 176 672 178 m 336 149 q 444 199 401 149 q 505 318 486 249 q 524 447 524 388 q 407 588 524 588 q 296 537 338 588 q 238 417 254 486 q 221 283 221 347 q 336 149 221 149 m 172 817 l 350 1004 l 519 1004 l 633 817 l 486 817 l 424 913 l 338 817 l 172 817 m 214 1057 q 266 1178 226 1131 q 371 1226 306 1226 q 415 1220 394 1226 q 467 1200 435 1214 q 514 1181 494 1188 q 554 1175 533 1175 q 588 1187 575 1175 q 611 1226 601 1199 l 708 1226 q 656 1105 696 1153 q 549 1057 615 1057 q 506 1063 526 1057 q 454 1083 486 1069 q 407 1102 426 1096 q 367 1108 388 1108 q 333 1097 346 1108 q 310 1057 319 1085 l 214 1057 z "},"ȁ":{"ha":821,"x_min":24,"x_max":769,"o":"m 24 0 m 672 176 q 684 149 672 158 q 713 139 696 139 l 753 139 l 729 6 q 615 -17 682 -17 q 527 14 561 -17 q 488 96 493 44 l 479 96 q 383 13 440 42 q 263 -17 326 -17 q 88 58 153 -17 q 24 272 24 132 q 58 489 24 379 q 167 673 93 599 q 350 747 240 747 q 474 722 424 747 q 557 646 524 696 l 565 646 l 608 731 l 769 731 l 711 397 q 672 176 672 178 m 336 149 q 444 199 401 149 q 505 318 486 249 q 524 447 524 388 q 407 588 524 588 q 296 537 338 588 q 238 417 254 486 q 221 283 221 347 q 336 149 221 149 m 246 821 l 128 1000 l 131 1004 l 315 1004 l 392 821 l 246 821 m 489 821 l 371 1000 l 374 1004 l 558 1004 l 635 821 l 489 821 z "},"ä":{"ha":821,"x_min":24,"x_max":769,"o":"m 24 0 m 672 176 q 684 149 672 158 q 713 139 696 139 l 753 139 l 729 6 q 615 -17 682 -17 q 527 14 561 -17 q 488 96 493 44 l 479 96 q 383 13 440 42 q 263 -17 326 -17 q 88 58 153 -17 q 24 272 24 132 q 58 489 24 379 q 167 673 93 599 q 350 747 240 747 q 474 722 424 747 q 557 646 524 696 l 565 646 l 608 731 l 769 731 l 711 397 q 672 176 672 178 m 336 149 q 444 199 401 149 q 505 318 486 249 q 524 447 524 388 q 407 588 524 588 q 296 537 338 588 q 238 417 254 486 q 221 283 221 347 q 336 149 221 149 m 190 840 l 218 1004 l 382 1004 l 353 840 l 190 840 m 481 840 l 510 1004 l 675 1004 l 646 840 l 481 840 z "},"ạ":{"ha":821,"x_min":24,"x_max":769,"o":"m 24 0 m 672 176 q 684 149 672 158 q 713 139 696 139 l 753 139 l 729 6 q 615 -17 682 -17 q 527 14 561 -17 q 488 96 493 44 l 479 96 q 383 13 440 42 q 263 -17 326 -17 q 88 58 153 -17 q 24 272 24 132 q 58 489 24 379 q 167 673 93 599 q 350 747 240 747 q 474 722 424 747 q 557 646 524 696 l 565 646 l 608 731 l 769 731 l 711 397 q 672 176 672 178 m 336 149 q 444 199 401 149 q 505 318 486 249 q 524 447 524 388 q 407 588 524 588 q 296 537 338 588 q 238 417 254 486 q 221 283 221 347 q 336 149 221 149 m 154 -240 l 186 -60 l 374 -60 l 342 -240 l 154 -240 z "},"à":{"ha":821,"x_min":24,"x_max":769,"o":"m 24 0 m 672 176 q 684 149 672 158 q 713 139 696 139 l 753 139 l 729 6 q 615 -17 682 -17 q 527 14 561 -17 q 488 96 493 44 l 479 96 q 383 13 440 42 q 263 -17 326 -17 q 88 58 153 -17 q 24 272 24 132 q 58 489 24 379 q 167 673 93 599 q 350 747 240 747 q 474 722 424 747 q 557 646 524 696 l 565 646 l 608 731 l 769 731 l 711 397 q 672 176 672 178 m 336 149 q 444 199 401 149 q 505 318 486 249 q 524 447 524 388 q 407 588 524 588 q 296 537 338 588 q 238 417 254 486 q 221 283 221 347 q 336 149 221 149 m 343 821 l 225 1000 l 226 1004 l 404 1004 l 482 821 l 343 821 z "},"ả":{"ha":821,"x_min":24,"x_max":769,"o":"m 24 0 m 672 176 q 684 149 672 158 q 713 139 696 139 l 753 139 l 729 6 q 615 -17 682 -17 q 527 14 561 -17 q 488 96 493 44 l 479 96 q 383 13 440 42 q 263 -17 326 -17 q 88 58 153 -17 q 24 272 24 132 q 58 489 24 379 q 167 673 93 599 q 350 747 240 747 q 474 722 424 747 q 557 646 524 696 l 565 646 l 608 731 l 769 731 l 711 397 q 672 176 672 178 m 336 149 q 444 199 401 149 q 505 318 486 249 q 524 447 524 388 q 407 588 524 588 q 296 537 338 588 q 238 417 254 486 q 221 283 221 347 q 336 149 221 149 m 381 896 l 400 896 q 438 903 426 896 q 449 928 449 911 q 438 944 449 940 q 404 949 428 949 l 324 949 l 335 1010 q 453 1021 390 1021 q 556 1004 511 1021 q 601 949 601 988 q 563 882 601 904 q 468 856 525 860 l 461 821 l 367 821 l 381 896 z "},"ȃ":{"ha":821,"x_min":24,"x_max":769,"o":"m 24 0 m 672 176 q 684 149 672 158 q 713 139 696 139 l 753 139 l 729 6 q 615 -17 682 -17 q 527 14 561 -17 q 488 96 493 44 l 479 96 q 383 13 440 42 q 263 -17 326 -17 q 88 58 153 -17 q 24 272 24 132 q 58 489 24 379 q 167 673 93 599 q 350 747 240 747 q 474 722 424 747 q 557 646 524 696 l 565 646 l 608 731 l 769 731 l 711 397 q 672 176 672 178 m 336 149 q 444 199 401 149 q 505 318 486 249 q 524 447 524 388 q 407 588 524 588 q 296 537 338 588 q 238 417 254 486 q 221 283 221 347 q 336 149 221 149 m 188 814 q 260 949 201 894 q 444 1004 319 1004 q 548 981 504 1004 q 615 919 592 957 q 638 839 638 881 q 636 814 638 822 l 511 814 q 490 860 513 839 q 422 881 467 881 q 349 860 378 881 q 313 814 319 839 l 188 814 z "},"ā":{"ha":821,"x_min":24,"x_max":769,"o":"m 24 0 m 672 176 q 684 149 672 158 q 713 139 696 139 l 753 139 l 729 6 q 615 -17 682 -17 q 527 14 561 -17 q 488 96 493 44 l 479 96 q 383 13 440 42 q 263 -17 326 -17 q 88 58 153 -17 q 24 272 24 132 q 58 489 24 379 q 167 673 93 599 q 350 747 240 747 q 474 722 424 747 q 557 646 524 696 l 565 646 l 608 731 l 769 731 l 711 397 q 672 176 672 178 m 336 149 q 444 199 401 149 q 505 318 486 249 q 524 447 524 388 q 407 588 524 588 q 296 537 338 588 q 238 417 254 486 q 221 283 221 347 q 336 149 221 149 m 208 849 l 229 971 l 653 971 l 632 849 l 208 849 z "},"ą":{"ha":821,"x_min":24,"x_max":769,"o":"m 672 176 q 684 149 672 158 q 713 139 696 139 l 753 139 l 729 6 q 647 -48 682 -17 q 613 -112 613 -79 q 669 -157 613 -157 l 701 -157 l 688 -233 q 586 -253 629 -253 q 495 -227 532 -253 q 458 -146 458 -201 q 567 -8 458 -62 q 513 29 533 1 q 488 96 492 57 l 479 96 q 383 13 440 42 q 263 -17 326 -17 q 88 58 153 -17 q 24 272 24 132 q 58 489 24 379 q 167 673 93 599 q 350 747 240 747 q 474 722 424 747 q 557 646 524 696 l 565 646 l 608 731 l 769 731 l 711 397 q 672 176 672 178 m 336 149 q 444 199 401 149 q 505 318 486 249 q 524 447 524 388 q 407 588 524 588 q 296 537 338 588 q 238 417 254 486 q 221 283 221 347 q 336 149 221 149 z "},"å":{"ha":821,"x_min":24,"x_max":769,"o":"m 24 0 m 672 176 q 684 149 672 158 q 713 139 696 139 l 753 139 l 729 6 q 615 -17 682 -17 q 527 14 561 -17 q 488 96 493 44 l 479 96 q 383 13 440 42 q 263 -17 326 -17 q 88 58 153 -17 q 24 272 24 132 q 58 489 24 379 q 167 673 93 599 q 350 747 240 747 q 474 722 424 747 q 557 646 524 696 l 565 646 l 608 731 l 769 731 l 711 397 q 672 176 672 178 m 336 149 q 444 199 401 149 q 505 318 486 249 q 524 447 524 388 q 407 588 524 588 q 296 537 338 588 q 238 417 254 486 q 221 283 221 347 q 336 149 221 149 m 408 772 q 317 805 350 772 q 283 889 283 838 q 328 1004 283 956 q 443 1053 374 1053 q 535 1019 503 1053 q 568 933 568 986 q 522 819 568 867 q 408 772 476 772 m 415 851 q 467 873 444 851 q 489 924 489 894 q 474 960 489 946 q 436 974 460 974 q 385 952 406 974 q 364 899 364 931 q 378 865 364 878 q 415 851 392 851 z "},"ǻ":{"ha":821,"x_min":24,"x_max":769,"o":"m 24 0 m 672 176 q 684 149 672 158 q 713 139 696 139 l 753 139 l 729 6 q 615 -17 682 -17 q 527 14 561 -17 q 488 96 493 44 l 479 96 q 383 13 440 42 q 263 -17 326 -17 q 88 58 153 -17 q 24 272 24 132 q 58 489 24 379 q 167 673 93 599 q 350 747 240 747 q 474 722 424 747 q 557 646 524 696 l 565 646 l 608 731 l 769 731 l 711 397 q 672 176 672 178 m 336 149 q 444 199 401 149 q 505 318 486 249 q 524 447 524 388 q 407 588 524 588 q 296 537 338 588 q 238 417 254 486 q 221 283 221 347 q 336 149 221 149 m 408 772 q 317 805 350 772 q 283 889 283 838 q 328 1004 283 956 q 443 1053 374 1053 q 535 1019 503 1053 q 568 933 568 986 q 522 819 568 867 q 408 772 476 772 m 415 851 q 467 873 444 851 q 489 924 489 894 q 474 960 489 946 q 436 974 460 974 q 385 952 406 974 q 364 899 364 931 q 378 865 364 878 q 415 851 392 851 m 381 1079 l 522 1263 l 714 1263 l 715 1258 l 533 1079 l 381 1079 z "},"ã":{"ha":821,"x_min":24,"x_max":769,"o":"m 24 0 m 672 176 q 684 149 672 158 q 713 139 696 139 l 753 139 l 729 6 q 615 -17 682 -17 q 527 14 561 -17 q 488 96 493 44 l 479 96 q 383 13 440 42 q 263 -17 326 -17 q 88 58 153 -17 q 24 272 24 132 q 58 489 24 379 q 167 673 93 599 q 350 747 240 747 q 474 722 424 747 q 557 646 524 696 l 565 646 l 608 731 l 769 731 l 711 397 q 672 176 672 178 m 336 149 q 444 199 401 149 q 505 318 486 249 q 524 447 524 388 q 407 588 524 588 q 296 537 338 588 q 238 417 254 486 q 221 283 221 347 q 336 149 221 149 m 183 835 q 235 956 196 908 q 340 1004 275 1004 q 384 998 364 1004 q 436 978 404 992 q 483 959 464 965 q 524 953 503 953 q 558 965 544 953 q 581 1004 571 976 l 678 1004 q 625 883 665 931 q 518 835 585 835 q 476 841 496 835 q 424 861 456 847 q 376 880 396 874 q 336 886 357 886 q 302 874 315 886 q 279 835 289 863 l 183 835 z "},"æ":{"ha":1235,"x_min":-8,"x_max":1183,"o":"m 268 -17 q 76 22 160 -17 q -8 164 -8 61 q 128 385 -8 324 q 515 447 264 447 l 524 499 q 526 528 526 518 q 503 581 526 563 q 419 600 479 600 q 315 581 349 600 q 276 535 282 561 l 272 514 l 89 514 q 131 635 89 582 q 247 718 174 689 q 413 747 321 747 q 665 681 588 747 q 881 747 751 747 q 1108 681 1033 747 q 1183 474 1183 614 q 1172 365 1183 428 l 1164 321 l 683 321 q 678 257 678 289 q 709 162 678 193 q 810 131 740 131 q 965 258 942 131 l 1153 258 q 1042 52 1132 121 q 815 -17 953 -17 q 536 82 613 -17 q 268 -17 428 -17 m 989 447 q 993 494 993 472 q 889 599 993 599 q 774 561 817 599 q 708 447 731 524 l 989 447 m 285 133 q 425 178 375 133 q 489 299 475 224 l 493 321 q 190 194 190 321 q 214 150 190 167 q 285 133 238 133 z "},"ǽ":{"ha":1235,"x_min":-8,"x_max":1183,"o":"m 0 0 m 268 -17 q 76 22 160 -17 q -8 164 -8 61 q 128 385 -8 324 q 515 447 264 447 l 524 499 q 526 528 526 518 q 503 581 526 563 q 419 600 479 600 q 315 581 349 600 q 276 535 282 561 l 272 514 l 89 514 q 131 635 89 582 q 247 718 174 689 q 413 747 321 747 q 665 681 588 747 q 881 747 751 747 q 1108 681 1033 747 q 1183 474 1183 614 q 1172 365 1183 428 l 1164 321 l 683 321 q 678 257 678 289 q 709 162 678 193 q 810 131 740 131 q 965 258 942 131 l 1153 258 q 1042 52 1132 121 q 815 -17 953 -17 q 536 82 613 -17 q 268 -17 428 -17 m 989 447 q 993 494 993 472 q 889 599 993 599 q 774 561 817 599 q 708 447 731 524 l 989 447 m 285 133 q 425 178 375 133 q 489 299 475 224 l 493 321 q 190 194 190 321 q 214 150 190 167 q 285 133 238 133 m 621 821 l 763 1004 l 954 1004 l 956 1000 l 774 821 l 621 821 z "},"b":{"ha":849,"x_min":18,"x_max":792,"o":"m 436 -17 q 302 12 358 -17 q 219 96 246 40 l 210 96 l 181 0 l 18 0 l 194 1004 l 385 1004 l 322 646 l 331 646 q 420 721 367 694 q 539 747 474 747 q 724 675 656 747 q 792 460 792 603 q 756 241 792 350 q 640 58 719 132 q 436 -17 560 -17 m 390 143 q 513 194 467 143 q 576 314 558 244 q 594 447 594 383 q 564 548 594 514 q 469 582 533 582 q 351 532 397 582 q 284 413 304 482 q 264 283 264 343 q 296 178 264 214 q 390 143 328 143 z "},"c":{"ha":772,"x_min":24,"x_max":725,"o":"m 351 -17 q 105 51 186 -17 q 24 260 24 119 q 65 501 24 390 q 194 679 106 611 q 417 747 282 747 q 642 690 560 747 q 725 522 725 632 q 719 456 725 488 l 528 456 q 531 492 531 481 q 502 568 531 542 q 421 594 474 594 q 297 540 343 594 q 231 376 251 485 q 218 274 218 310 q 249 171 218 206 q 349 136 281 136 q 453 172 414 136 q 504 275 493 208 l 688 275 q 578 56 665 129 q 351 -17 492 -17 z "},"ć":{"ha":772,"x_min":24,"x_max":725,"o":"m 24 0 m 351 -17 q 105 51 186 -17 q 24 260 24 119 q 65 501 24 390 q 194 679 106 611 q 417 747 282 747 q 642 690 560 747 q 725 522 725 632 q 719 456 725 488 l 528 456 q 531 492 531 481 q 502 568 531 542 q 421 594 474 594 q 297 540 343 594 q 231 376 251 485 q 218 274 218 310 q 249 171 218 206 q 349 136 281 136 q 453 172 414 136 q 504 275 493 208 l 688 275 q 578 56 665 129 q 351 -17 492 -17 m 363 821 l 504 1004 l 696 1004 l 697 1000 l 515 821 l 363 821 z "},"č":{"ha":772,"x_min":24,"x_max":725,"o":"m 24 0 m 351 -17 q 105 51 186 -17 q 24 260 24 119 q 65 501 24 390 q 194 679 106 611 q 417 747 282 747 q 642 690 560 747 q 725 522 725 632 q 719 456 725 488 l 528 456 q 531 492 531 481 q 502 568 531 542 q 421 594 474 594 q 297 540 343 594 q 231 376 251 485 q 218 274 218 310 q 249 171 218 206 q 349 136 281 136 q 453 172 414 136 q 504 275 493 208 l 688 275 q 578 56 665 129 q 351 -17 492 -17 m 354 817 l 240 1004 l 389 1004 l 451 908 l 538 1004 l 701 1004 l 524 817 l 354 817 z "},"ç":{"ha":772,"x_min":24,"x_max":725,"o":"m 528 456 q 531 492 531 481 q 502 568 531 542 q 421 594 474 594 q 297 540 343 594 q 231 376 251 485 q 218 274 218 310 q 249 171 218 206 q 349 136 281 136 q 453 172 414 136 q 504 275 493 208 l 688 275 q 585 63 665 136 q 374 -17 506 -10 l 364 -46 q 451 -72 418 -49 q 485 -136 485 -94 q 418 -226 485 -200 q 274 -253 351 -253 q 132 -242 196 -253 l 144 -174 l 267 -174 q 317 -165 300 -174 q 335 -133 335 -156 q 323 -113 335 -119 q 282 -107 311 -107 l 225 -107 l 257 -10 q 81 74 139 8 q 24 260 24 140 q 65 501 24 390 q 194 679 106 611 q 417 747 282 747 q 642 690 560 747 q 725 522 725 632 q 719 456 725 488 l 528 456 z "},"ĉ":{"ha":772,"x_min":24,"x_max":725,"o":"m 24 0 m 351 -17 q 105 51 186 -17 q 24 260 24 119 q 65 501 24 390 q 194 679 106 611 q 417 747 282 747 q 642 690 560 747 q 725 522 725 632 q 719 456 725 488 l 528 456 q 531 492 531 481 q 502 568 531 542 q 421 594 474 594 q 297 540 343 594 q 231 376 251 485 q 218 274 218 310 q 249 171 218 206 q 349 136 281 136 q 453 172 414 136 q 504 275 493 208 l 688 275 q 578 56 665 129 q 351 -17 492 -17 m 199 817 l 376 1004 l 546 1004 l 660 817 l 513 817 l 450 913 l 364 817 l 199 817 z "},"ċ":{"ha":772,"x_min":24,"x_max":725,"o":"m 24 0 m 351 -17 q 105 51 186 -17 q 24 260 24 119 q 65 501 24 390 q 194 679 106 611 q 417 747 282 747 q 642 690 560 747 q 725 522 725 632 q 719 456 725 488 l 528 456 q 531 492 531 481 q 502 568 531 542 q 421 594 474 594 q 297 540 343 594 q 231 376 251 485 q 218 274 218 310 q 249 171 218 206 q 349 136 281 136 q 453 172 414 136 q 504 275 493 208 l 688 275 q 578 56 665 129 q 351 -17 492 -17 m 346 825 l 378 1006 l 565 1006 l 533 825 l 346 825 z "},"d":{"ha":849,"x_min":25,"x_max":847,"o":"m 289 -17 q 93 54 161 -17 q 25 272 25 125 q 61 489 25 379 q 174 673 97 599 q 365 747 251 747 q 497 722 444 747 q 586 646 550 696 l 594 646 l 657 1004 l 847 1004 l 671 0 l 513 0 l 513 96 l 503 96 q 406 13 461 43 q 289 -17 350 -17 m 347 149 q 503 240 454 149 q 553 447 553 331 q 521 552 553 517 q 426 588 489 588 q 267 491 313 588 q 222 283 222 394 q 253 183 222 217 q 347 149 283 149 z "},"ð":{"ha":849,"x_min":25,"x_max":843,"o":"m 368 -17 q 110 53 194 -17 q 25 267 25 122 q 58 485 25 388 q 154 644 92 582 q 255 710 197 688 q 375 733 313 733 q 524 707 456 733 l 531 713 q 467 826 507 769 l 233 810 l 250 911 l 393 921 q 317 997 369 947 l 324 1004 l 540 1004 q 606 936 588 960 l 843 953 l 825 851 l 682 842 q 792 483 792 676 q 692 119 792 254 q 368 -17 592 -17 m 367 139 q 511 191 461 139 q 581 349 561 243 q 592 440 592 411 q 556 544 592 510 q 444 578 521 578 q 301 526 351 578 q 233 371 251 475 q 222 276 222 306 q 257 173 222 207 q 367 139 292 139 z "},"ď":{"ha":999,"x_min":25,"x_max":1106,"o":"m 289 -17 q 93 54 161 -17 q 25 272 25 125 q 61 489 25 379 q 174 673 97 599 q 365 747 251 747 q 497 722 444 747 q 586 646 550 696 l 594 646 l 657 1004 l 847 1004 l 671 0 l 513 0 l 513 96 l 503 96 q 406 13 461 43 q 289 -17 350 -17 m 854 614 l 960 776 l 883 776 l 914 953 l 1106 953 l 1078 793 l 954 614 l 854 614 m 347 149 q 503 240 454 149 q 553 447 553 331 q 521 552 553 517 q 426 588 489 588 q 267 491 313 588 q 222 283 222 394 q 253 183 222 217 q 347 149 283 149 z "},"đ":{"ha":849,"x_min":25,"x_max":913,"o":"m 289 -17 q 93 54 161 -17 q 25 272 25 125 q 61 489 25 379 q 174 673 97 599 q 365 747 251 747 q 497 722 444 747 q 586 646 550 696 l 594 646 l 624 815 l 410 815 l 428 914 l 642 914 l 657 1004 l 847 1004 l 831 914 l 913 914 l 894 815 l 814 815 l 671 0 l 513 0 l 513 96 l 503 96 q 406 13 461 43 q 289 -17 350 -17 m 347 149 q 503 240 454 149 q 553 447 553 331 q 521 552 553 517 q 426 588 489 588 q 267 491 313 588 q 222 283 222 394 q 253 183 222 217 q 347 149 283 149 z "},"ḍ":{"ha":849,"x_min":25,"x_max":847,"o":"m 25 0 m 289 -17 q 93 54 161 -17 q 25 272 25 125 q 61 489 25 379 q 174 673 97 599 q 365 747 251 747 q 497 722 444 747 q 586 646 550 696 l 594 646 l 657 1004 l 847 1004 l 671 0 l 513 0 l 513 96 l 503 96 q 406 13 461 43 q 289 -17 350 -17 m 347 149 q 503 240 454 149 q 553 447 553 331 q 521 552 553 517 q 426 588 489 588 q 267 491 313 588 q 222 283 222 394 q 253 183 222 217 q 347 149 283 149 m 225 -240 l 257 -60 l 444 -60 l 413 -240 l 225 -240 z "},"ǳ":{"ha":1543,"x_min":25,"x_max":1564,"o":"m 25 0 m 289 -17 q 93 54 161 -17 q 25 272 25 125 q 61 489 25 379 q 174 673 97 599 q 365 747 251 747 q 497 722 444 747 q 586 646 550 696 l 594 646 l 657 1004 l 847 1004 l 671 0 l 513 0 l 513 96 l 503 96 q 406 13 461 43 q 289 -17 350 -17 m 347 149 q 503 240 454 149 q 553 447 553 331 q 521 552 553 517 q 426 588 489 588 q 267 491 313 588 q 222 283 222 394 q 253 183 222 217 q 347 149 283 149 m 814 0 l 829 85 l 1246 575 l 935 575 l 963 731 l 1564 731 l 1549 647 l 1129 156 l 1475 156 l 1447 0 l 814 0 z "},"ǆ":{"ha":1543,"x_min":25,"x_max":1564,"o":"m 25 0 m 289 -17 q 93 54 161 -17 q 25 272 25 125 q 61 489 25 379 q 174 673 97 599 q 365 747 251 747 q 497 722 444 747 q 586 646 550 696 l 594 646 l 657 1004 l 847 1004 l 671 0 l 513 0 l 513 96 l 503 96 q 406 13 461 43 q 289 -17 350 -17 m 347 149 q 503 240 454 149 q 553 447 553 331 q 521 552 553 517 q 426 588 489 588 q 267 491 313 588 q 222 283 222 394 q 253 183 222 217 q 347 149 283 149 m 814 0 l 829 85 l 1246 575 l 935 575 l 963 731 l 1564 731 l 1549 647 l 1129 156 l 1475 156 l 1447 0 l 814 0 m 1190 817 l 1076 1004 l 1225 1004 l 1288 908 l 1374 1004 l 1538 1004 l 1360 817 l 1190 817 z "},"e":{"ha":772,"x_min":24,"x_max":721,"o":"m 353 -17 q 106 51 188 -17 q 24 260 24 119 q 64 499 24 389 q 192 678 104 610 q 418 747 281 747 q 646 681 571 747 q 721 474 721 614 q 710 365 721 417 l 701 321 l 221 321 q 215 257 215 289 q 247 162 215 193 q 347 131 278 131 q 503 258 479 131 l 690 258 q 580 52 669 121 q 353 -17 490 -17 m 526 447 q 531 494 531 472 q 426 599 531 599 q 311 561 354 599 q 246 447 268 524 l 526 447 z "},"é":{"ha":772,"x_min":24,"x_max":721,"o":"m 24 0 m 353 -17 q 106 51 188 -17 q 24 260 24 119 q 64 499 24 389 q 192 678 104 610 q 418 747 281 747 q 646 681 571 747 q 721 474 721 614 q 710 365 721 417 l 701 321 l 221 321 q 215 257 215 289 q 247 162 215 193 q 347 131 278 131 q 503 258 479 131 l 690 258 q 580 52 669 121 q 353 -17 490 -17 m 526 447 q 531 494 531 472 q 426 599 531 599 q 311 561 354 599 q 246 447 268 524 l 526 447 m 367 821 l 508 1004 l 700 1004 l 701 1000 l 519 821 l 367 821 z "},"ĕ":{"ha":772,"x_min":24,"x_max":721,"o":"m 24 0 m 353 -17 q 106 51 188 -17 q 24 260 24 119 q 64 499 24 389 q 192 678 104 610 q 418 747 281 747 q 646 681 571 747 q 721 474 721 614 q 710 365 721 417 l 701 321 l 221 321 q 215 257 215 289 q 247 162 215 193 q 347 131 278 131 q 503 258 479 131 l 690 258 q 580 52 669 121 q 353 -17 490 -17 m 526 447 q 531 494 531 472 q 426 599 531 599 q 311 561 354 599 q 246 447 268 524 l 526 447 m 443 814 q 283 858 333 814 q 233 969 233 901 q 236 1004 233 993 l 361 1004 q 381 957 361 976 q 447 938 401 938 q 522 958 492 938 q 560 1004 551 979 l 685 1004 q 654 925 676 964 q 597 860 632 886 q 443 814 536 814 z "},"ě":{"ha":772,"x_min":24,"x_max":721,"o":"m 24 0 m 353 -17 q 106 51 188 -17 q 24 260 24 119 q 64 499 24 389 q 192 678 104 610 q 418 747 281 747 q 646 681 571 747 q 721 474 721 614 q 710 365 721 417 l 701 321 l 221 321 q 215 257 215 289 q 247 162 215 193 q 347 131 278 131 q 503 258 479 131 l 690 258 q 580 52 669 121 q 353 -17 490 -17 m 526 447 q 531 494 531 472 q 426 599 531 599 q 311 561 354 599 q 246 447 268 524 l 526 447 m 358 817 l 244 1004 l 393 1004 l 456 908 l 542 1004 l 706 1004 l 528 817 l 358 817 z "},"ê":{"ha":772,"x_min":24,"x_max":721,"o":"m 24 0 m 353 -17 q 106 51 188 -17 q 24 260 24 119 q 64 499 24 389 q 192 678 104 610 q 418 747 281 747 q 646 681 571 747 q 721 474 721 614 q 710 365 721 417 l 701 321 l 221 321 q 215 257 215 289 q 247 162 215 193 q 347 131 278 131 q 503 258 479 131 l 690 258 q 580 52 669 121 q 353 -17 490 -17 m 526 447 q 531 494 531 472 q 426 599 531 599 q 311 561 354 599 q 246 447 268 524 l 526 447 m 203 817 l 381 1004 l 550 1004 l 664 817 l 517 817 l 454 913 l 368 817 l 203 817 z "},"ế":{"ha":772,"x_min":24,"x_max":931,"o":"m 24 0 m 353 -17 q 106 51 188 -17 q 24 260 24 119 q 64 499 24 389 q 192 678 104 610 q 418 747 281 747 q 646 681 571 747 q 721 474 721 614 q 710 365 721 417 l 701 321 l 221 321 q 215 257 215 289 q 247 162 215 193 q 347 131 278 131 q 503 258 479 131 l 690 258 q 580 52 669 121 q 353 -17 490 -17 m 526 447 q 531 494 531 472 q 426 599 531 599 q 311 561 354 599 q 246 447 268 524 l 526 447 m 203 817 l 381 1004 l 550 1004 l 664 817 l 517 817 l 454 913 l 368 817 l 203 817 m 596 953 l 738 1136 l 929 1136 l 931 1132 l 749 953 l 596 953 z "},"ệ":{"ha":772,"x_min":24,"x_max":721,"o":"m 24 0 m 353 -17 q 106 51 188 -17 q 24 260 24 119 q 64 499 24 389 q 192 678 104 610 q 418 747 281 747 q 646 681 571 747 q 721 474 721 614 q 710 365 721 417 l 701 321 l 221 321 q 215 257 215 289 q 247 162 215 193 q 347 131 278 131 q 503 258 479 131 l 690 258 q 580 52 669 121 q 353 -17 490 -17 m 526 447 q 531 494 531 472 q 426 599 531 599 q 311 561 354 599 q 246 447 268 524 l 526 447 m 203 817 l 381 1004 l 550 1004 l 664 817 l 517 817 l 454 913 l 368 817 l 203 817 m 186 -240 l 218 -60 l 406 -60 l 374 -240 l 186 -240 z "},"ề":{"ha":772,"x_min":24,"x_max":797,"o":"m 24 0 m 353 -17 q 106 51 188 -17 q 24 260 24 119 q 64 499 24 389 q 192 678 104 610 q 418 747 281 747 q 646 681 571 747 q 721 474 721 614 q 710 365 721 417 l 701 321 l 221 321 q 215 257 215 289 q 247 162 215 193 q 347 131 278 131 q 503 258 479 131 l 690 258 q 580 52 669 121 q 353 -17 490 -17 m 526 447 q 531 494 531 472 q 426 599 531 599 q 311 561 354 599 q 246 447 268 524 l 526 447 m 203 817 l 381 1004 l 550 1004 l 664 817 l 517 817 l 454 913 l 368 817 l 203 817 m 658 953 l 540 1132 l 542 1136 l 719 1136 l 797 953 l 658 953 z "},"ể":{"ha":772,"x_min":24,"x_max":860,"o":"m 24 0 m 353 -17 q 106 51 188 -17 q 24 260 24 119 q 64 499 24 389 q 192 678 104 610 q 418 747 281 747 q 646 681 571 747 q 721 474 721 614 q 710 365 721 417 l 701 321 l 221 321 q 215 257 215 289 q 247 162 215 193 q 347 131 278 131 q 503 258 479 131 l 690 258 q 580 52 669 121 q 353 -17 490 -17 m 526 447 q 531 494 531 472 q 426 599 531 599 q 311 561 354 599 q 246 447 268 524 l 526 447 m 203 817 l 381 1004 l 550 1004 l 664 817 l 517 817 l 454 913 l 368 817 l 203 817 m 639 1028 l 658 1028 q 696 1035 685 1028 q 707 1060 707 1043 q 697 1076 707 1072 q 663 1081 686 1081 l 582 1081 l 593 1142 q 711 1153 649 1153 q 815 1136 769 1153 q 860 1081 860 1119 q 822 1014 860 1036 q 726 988 783 992 l 719 953 l 625 953 l 639 1028 z "},"ễ":{"ha":772,"x_min":24,"x_max":739,"o":"m 24 0 m 353 -17 q 106 51 188 -17 q 24 260 24 119 q 64 499 24 389 q 192 678 104 610 q 418 747 281 747 q 646 681 571 747 q 721 474 721 614 q 710 365 721 417 l 701 321 l 221 321 q 215 257 215 289 q 247 162 215 193 q 347 131 278 131 q 503 258 479 131 l 690 258 q 580 52 669 121 q 353 -17 490 -17 m 526 447 q 531 494 531 472 q 426 599 531 599 q 311 561 354 599 q 246 447 268 524 l 526 447 m 203 817 l 381 1004 l 550 1004 l 664 817 l 517 817 l 454 913 l 368 817 l 203 817 m 244 1057 q 297 1178 257 1131 q 401 1226 336 1226 q 445 1220 425 1226 q 497 1200 465 1214 q 544 1181 525 1188 q 585 1175 564 1175 q 619 1187 606 1175 q 642 1226 632 1199 l 739 1226 q 686 1105 726 1153 q 579 1057 646 1057 q 537 1063 557 1057 q 485 1083 517 1069 q 438 1102 457 1096 q 397 1108 418 1108 q 363 1097 376 1108 q 340 1057 350 1085 l 244 1057 z "},"ȅ":{"ha":772,"x_min":24,"x_max":721,"o":"m 24 0 m 353 -17 q 106 51 188 -17 q 24 260 24 119 q 64 499 24 389 q 192 678 104 610 q 418 747 281 747 q 646 681 571 747 q 721 474 721 614 q 710 365 721 417 l 701 321 l 221 321 q 215 257 215 289 q 247 162 215 193 q 347 131 278 131 q 503 258 479 131 l 690 258 q 580 52 669 121 q 353 -17 490 -17 m 526 447 q 531 494 531 472 q 426 599 531 599 q 311 561 354 599 q 246 447 268 524 l 526 447 m 276 821 l 158 1000 l 161 1004 l 346 1004 l 422 821 l 276 821 m 519 821 l 401 1000 l 404 1004 l 589 1004 l 665 821 l 519 821 z "},"ë":{"ha":772,"x_min":24,"x_max":721,"o":"m 24 0 m 353 -17 q 106 51 188 -17 q 24 260 24 119 q 64 499 24 389 q 192 678 104 610 q 418 747 281 747 q 646 681 571 747 q 721 474 721 614 q 710 365 721 417 l 701 321 l 221 321 q 215 257 215 289 q 247 162 215 193 q 347 131 278 131 q 503 258 479 131 l 690 258 q 580 52 669 121 q 353 -17 490 -17 m 526 447 q 531 494 531 472 q 426 599 531 599 q 311 561 354 599 q 246 447 268 524 l 526 447 m 221 840 l 249 1004 l 413 1004 l 383 840 l 221 840 m 511 840 l 540 1004 l 706 1004 l 676 840 l 511 840 z "},"ė":{"ha":772,"x_min":24,"x_max":721,"o":"m 24 0 m 353 -17 q 106 51 188 -17 q 24 260 24 119 q 64 499 24 389 q 192 678 104 610 q 418 747 281 747 q 646 681 571 747 q 721 474 721 614 q 710 365 721 417 l 701 321 l 221 321 q 215 257 215 289 q 247 162 215 193 q 347 131 278 131 q 503 258 479 131 l 690 258 q 580 52 669 121 q 353 -17 490 -17 m 526 447 q 531 494 531 472 q 426 599 531 599 q 311 561 354 599 q 246 447 268 524 l 526 447 m 350 825 l 382 1006 l 569 1006 l 538 825 l 350 825 z "},"ẹ":{"ha":772,"x_min":24,"x_max":721,"o":"m 24 0 m 353 -17 q 106 51 188 -17 q 24 260 24 119 q 64 499 24 389 q 192 678 104 610 q 418 747 281 747 q 646 681 571 747 q 721 474 721 614 q 710 365 721 417 l 701 321 l 221 321 q 215 257 215 289 q 247 162 215 193 q 347 131 278 131 q 503 258 479 131 l 690 258 q 580 52 669 121 q 353 -17 490 -17 m 526 447 q 531 494 531 472 q 426 599 531 599 q 311 561 354 599 q 246 447 268 524 l 526 447 m 186 -240 l 218 -60 l 406 -60 l 374 -240 l 186 -240 z "},"è":{"ha":772,"x_min":24,"x_max":721,"o":"m 24 0 m 353 -17 q 106 51 188 -17 q 24 260 24 119 q 64 499 24 389 q 192 678 104 610 q 418 747 281 747 q 646 681 571 747 q 721 474 721 614 q 710 365 721 417 l 701 321 l 221 321 q 215 257 215 289 q 247 162 215 193 q 347 131 278 131 q 503 258 479 131 l 690 258 q 580 52 669 121 q 353 -17 490 -17 m 526 447 q 531 494 531 472 q 426 599 531 599 q 311 561 354 599 q 246 447 268 524 l 526 447 m 374 821 l 256 1000 l 257 1004 l 435 1004 l 513 821 l 374 821 z "},"ẻ":{"ha":772,"x_min":24,"x_max":721,"o":"m 24 0 m 353 -17 q 106 51 188 -17 q 24 260 24 119 q 64 499 24 389 q 192 678 104 610 q 418 747 281 747 q 646 681 571 747 q 721 474 721 614 q 710 365 721 417 l 701 321 l 221 321 q 215 257 215 289 q 247 162 215 193 q 347 131 278 131 q 503 258 479 131 l 690 258 q 580 52 669 121 q 353 -17 490 -17 m 526 447 q 531 494 531 472 q 426 599 531 599 q 311 561 354 599 q 246 447 268 524 l 526 447 m 411 896 l 431 896 q 468 903 457 896 q 479 928 479 911 q 469 944 479 940 q 435 949 458 949 l 354 949 l 365 1010 q 483 1021 421 1021 q 587 1004 542 1021 q 632 949 632 988 q 594 882 632 904 q 499 856 556 860 l 492 821 l 397 821 l 411 896 z "},"ȇ":{"ha":772,"x_min":24,"x_max":721,"o":"m 24 0 m 353 -17 q 106 51 188 -17 q 24 260 24 119 q 64 499 24 389 q 192 678 104 610 q 418 747 281 747 q 646 681 571 747 q 721 474 721 614 q 710 365 721 417 l 701 321 l 221 321 q 215 257 215 289 q 247 162 215 193 q 347 131 278 131 q 503 258 479 131 l 690 258 q 580 52 669 121 q 353 -17 490 -17 m 526 447 q 531 494 531 472 q 426 599 531 599 q 311 561 354 599 q 246 447 268 524 l 526 447 m 218 814 q 291 949 232 894 q 475 1004 350 1004 q 578 981 535 1004 q 645 919 622 957 q 668 839 668 881 q 667 814 668 822 l 542 814 q 520 860 543 839 q 453 881 497 881 q 379 860 408 881 q 343 814 350 839 l 218 814 z "},"ē":{"ha":772,"x_min":24,"x_max":721,"o":"m 24 0 m 353 -17 q 106 51 188 -17 q 24 260 24 119 q 64 499 24 389 q 192 678 104 610 q 418 747 281 747 q 646 681 571 747 q 721 474 721 614 q 710 365 721 417 l 701 321 l 221 321 q 215 257 215 289 q 247 162 215 193 q 347 131 278 131 q 503 258 479 131 l 690 258 q 580 52 669 121 q 353 -17 490 -17 m 526 447 q 531 494 531 472 q 426 599 531 599 q 311 561 354 599 q 246 447 268 524 l 526 447 m 239 849 l 260 971 l 683 971 l 663 849 l 239 849 z "},"ę":{"ha":772,"x_min":24,"x_max":721,"o":"m 500 -253 q 408 -227 444 -253 q 372 -144 372 -201 q 438 -10 372 -75 q 353 -17 401 -17 q 106 51 188 -17 q 24 260 24 119 q 64 499 24 389 q 192 678 104 610 q 418 747 281 747 q 646 681 571 747 q 721 474 721 614 q 710 365 721 428 l 701 321 l 221 321 q 215 257 215 289 q 247 162 215 193 q 347 131 278 131 q 503 258 479 131 l 690 258 q 661 158 681 201 q 608 79 642 114 q 543 -15 558 26 q 528 -93 528 -57 q 547 -138 528 -119 q 594 -157 567 -157 l 617 -157 l 603 -233 q 500 -253 544 -253 m 526 447 q 531 494 531 472 q 426 599 531 599 q 311 561 354 599 q 246 447 268 524 l 526 447 z "},"ẽ":{"ha":772,"x_min":24,"x_max":721,"o":"m 24 0 m 353 -17 q 106 51 188 -17 q 24 260 24 119 q 64 499 24 389 q 192 678 104 610 q 418 747 281 747 q 646 681 571 747 q 721 474 721 614 q 710 365 721 417 l 701 321 l 221 321 q 215 257 215 289 q 247 162 215 193 q 347 131 278 131 q 503 258 479 131 l 690 258 q 580 52 669 121 q 353 -17 490 -17 m 526 447 q 531 494 531 472 q 426 599 531 599 q 311 561 354 599 q 246 447 268 524 l 526 447 m 214 835 q 266 956 226 908 q 371 1004 306 1004 q 415 998 394 1004 q 467 978 435 992 q 514 959 494 965 q 554 953 533 953 q 588 965 575 953 q 611 1004 601 976 l 708 1004 q 656 883 696 931 q 549 835 615 835 q 506 841 526 835 q 454 861 486 847 q 407 880 426 874 q 367 886 388 886 q 333 874 346 886 q 310 835 319 863 l 214 835 z "},"f":{"ha":463,"x_min":-136,"x_max":528,"o":"m -4 -253 q -74 -246 -36 -253 q -136 -231 -112 -239 l -112 -97 l -43 -97 q 26 -37 15 -97 l 135 575 l 31 575 l 58 731 l 163 731 l 176 814 q 244 958 190 900 q 396 1015 297 1015 q 466 1008 428 1015 q 528 993 504 1001 l 504 860 l 435 860 q 365 800 376 860 l 353 731 l 482 731 l 454 575 l 325 575 l 215 -51 q 148 -195 201 -137 q -4 -253 94 -253 z "},"g":{"ha":849,"x_min":-1,"x_max":799,"o":"m 300 -253 q 82 -201 164 -253 q -1 -49 0 -149 l -1 -35 l 183 -35 q 219 -83 189 -68 q 307 -97 249 -97 q 494 82 461 -97 l 503 126 l 494 126 q 405 51 456 76 q 283 25 354 25 q 101 94 172 25 q 31 300 31 164 q 69 510 31 407 q 186 680 107 613 q 382 747 265 747 q 514 719 458 747 q 597 635 569 690 l 607 635 l 636 731 l 799 731 l 685 88 q 563 -169 654 -86 q 300 -253 471 -253 m 351 190 q 471 232 425 190 q 537 335 517 274 q 557 457 557 396 q 525 551 557 519 q 431 582 493 582 q 274 498 319 582 q 228 311 228 414 q 258 220 228 250 q 351 190 288 190 z "},"ǵ":{"ha":849,"x_min":-1,"x_max":799,"o":"m 0 0 m 300 -253 q 82 -201 164 -253 q -1 -49 0 -149 l -1 -35 l 183 -35 q 219 -83 189 -68 q 307 -97 249 -97 q 494 82 461 -97 l 503 126 l 494 126 q 405 51 456 76 q 283 25 354 25 q 101 94 172 25 q 31 300 31 164 q 69 510 31 407 q 186 680 107 613 q 382 747 265 747 q 514 719 458 747 q 597 635 569 690 l 607 635 l 636 731 l 799 731 l 685 88 q 563 -169 654 -86 q 300 -253 471 -253 m 351 190 q 471 232 425 190 q 537 335 517 274 q 557 457 557 396 q 525 551 557 519 q 431 582 493 582 q 274 498 319 582 q 228 311 228 414 q 258 220 228 250 q 351 190 288 190 m 369 821 l 511 1004 l 703 1004 l 704 1000 l 522 821 l 369 821 z "},"ğ":{"ha":849,"x_min":-1,"x_max":799,"o":"m 0 0 m 300 -253 q 82 -201 164 -253 q -1 -49 0 -149 l -1 -35 l 183 -35 q 219 -83 189 -68 q 307 -97 249 -97 q 494 82 461 -97 l 503 126 l 494 126 q 405 51 456 76 q 283 25 354 25 q 101 94 172 25 q 31 300 31 164 q 69 510 31 407 q 186 680 107 613 q 382 747 265 747 q 514 719 458 747 q 597 635 569 690 l 607 635 l 636 731 l 799 731 l 685 88 q 563 -169 654 -86 q 300 -253 471 -253 m 351 190 q 471 232 425 190 q 537 335 517 274 q 557 457 557 396 q 525 551 557 519 q 431 582 493 582 q 274 498 319 582 q 228 311 228 414 q 258 220 228 250 q 351 190 288 190 m 446 814 q 286 858 336 814 q 236 969 236 901 q 239 1004 236 993 l 364 1004 q 384 957 364 976 q 450 938 404 938 q 524 958 494 938 q 563 1004 554 979 l 688 1004 q 657 925 679 964 q 600 860 635 886 q 446 814 539 814 z "},"ǧ":{"ha":849,"x_min":-1,"x_max":799,"o":"m 0 0 m 300 -253 q 82 -201 164 -253 q -1 -49 0 -149 l -1 -35 l 183 -35 q 219 -83 189 -68 q 307 -97 249 -97 q 494 82 461 -97 l 503 126 l 494 126 q 405 51 456 76 q 283 25 354 25 q 101 94 172 25 q 31 300 31 164 q 69 510 31 407 q 186 680 107 613 q 382 747 265 747 q 514 719 458 747 q 597 635 569 690 l 607 635 l 636 731 l 799 731 l 685 88 q 563 -169 654 -86 q 300 -253 471 -253 m 351 190 q 471 232 425 190 q 537 335 517 274 q 557 457 557 396 q 525 551 557 519 q 431 582 493 582 q 274 498 319 582 q 228 311 228 414 q 258 220 228 250 q 351 190 288 190 m 361 817 l 247 1004 l 396 1004 l 458 908 l 544 1004 l 708 1004 l 531 817 l 361 817 z "},"ĝ":{"ha":849,"x_min":-1,"x_max":799,"o":"m 0 0 m 300 -253 q 82 -201 164 -253 q -1 -49 0 -149 l -1 -35 l 183 -35 q 219 -83 189 -68 q 307 -97 249 -97 q 494 82 461 -97 l 503 126 l 494 126 q 405 51 456 76 q 283 25 354 25 q 101 94 172 25 q 31 300 31 164 q 69 510 31 407 q 186 680 107 613 q 382 747 265 747 q 514 719 458 747 q 597 635 569 690 l 607 635 l 636 731 l 799 731 l 685 88 q 563 -169 654 -86 q 300 -253 471 -253 m 351 190 q 471 232 425 190 q 537 335 517 274 q 557 457 557 396 q 525 551 557 519 q 431 582 493 582 q 274 498 319 582 q 228 311 228 414 q 258 220 228 250 q 351 190 288 190 m 206 817 l 383 1004 l 553 1004 l 667 817 l 519 817 l 457 913 l 371 817 l 206 817 z "},"ģ":{"ha":849,"x_min":-1,"x_max":799,"o":"m 364 813 l 385 932 l 504 1083 l 604 1083 l 507 949 l 581 949 l 556 813 l 364 813 m 300 -253 q 82 -201 164 -253 q -1 -49 0 -149 l -1 -35 l 183 -35 q 219 -83 189 -68 q 307 -97 249 -97 q 494 82 461 -97 l 503 126 l 494 126 q 405 51 456 76 q 283 25 354 25 q 101 94 172 25 q 31 300 31 164 q 69 510 31 407 q 186 680 107 613 q 382 747 265 747 q 514 719 458 747 q 597 635 569 690 l 607 635 l 636 731 l 799 731 l 685 88 q 563 -169 654 -86 q 300 -253 471 -253 m 351 190 q 471 232 425 190 q 537 335 517 274 q 557 457 557 396 q 525 551 557 519 q 431 582 493 582 q 274 498 319 582 q 228 311 228 414 q 258 220 228 250 q 351 190 288 190 z "},"ġ":{"ha":849,"x_min":-1,"x_max":799,"o":"m 0 0 m 300 -253 q 82 -201 164 -253 q -1 -49 0 -149 l -1 -35 l 183 -35 q 219 -83 189 -68 q 307 -97 249 -97 q 494 82 461 -97 l 503 126 l 494 126 q 405 51 456 76 q 283 25 354 25 q 101 94 172 25 q 31 300 31 164 q 69 510 31 407 q 186 680 107 613 q 382 747 265 747 q 514 719 458 747 q 597 635 569 690 l 607 635 l 636 731 l 799 731 l 685 88 q 563 -169 654 -86 q 300 -253 471 -253 m 351 190 q 471 232 425 190 q 537 335 517 274 q 557 457 557 396 q 525 551 557 519 q 431 582 493 582 q 274 498 319 582 q 228 311 228 414 q 258 220 228 250 q 351 190 288 190 m 353 825 l 385 1006 l 572 1006 l 540 825 l 353 825 z "},"h":{"ha":849,"x_min":24,"x_max":771,"o":"m 200 1004 l 390 1004 l 328 646 l 338 646 q 438 719 379 690 q 563 747 497 747 q 713 700 654 747 q 771 553 771 653 q 757 435 771 508 l 679 0 l 489 0 l 564 422 q 572 489 572 472 q 479 579 572 579 q 352 528 406 579 q 282 381 299 476 l 214 0 l 24 0 l 200 1004 z "},"ħ":{"ha":849,"x_min":24,"x_max":771,"o":"m 167 815 l 86 815 l 104 914 l 183 914 l 200 1004 l 390 1004 l 375 914 l 589 914 l 571 815 l 357 815 l 328 646 l 338 646 q 438 719 379 690 q 563 747 497 747 q 713 700 654 747 q 771 553 771 653 q 757 435 771 508 l 679 0 l 489 0 l 564 422 q 572 489 572 472 q 479 579 572 579 q 352 528 406 579 q 282 381 299 476 l 214 0 l 24 0 l 167 815 z "},"ĥ":{"ha":849,"x_min":24,"x_max":771,"o":"m 24 0 m 200 1004 l 390 1004 l 328 646 l 338 646 q 438 719 379 690 q 563 747 497 747 q 713 700 654 747 q 771 553 771 653 q 757 435 771 508 l 679 0 l 489 0 l 564 422 q 572 489 572 472 q 479 579 572 579 q 352 528 406 579 q 282 381 299 476 l 214 0 l 24 0 l 200 1004 m 61 1039 l 239 1226 l 408 1226 l 522 1039 l 375 1039 l 313 1135 l 226 1039 l 61 1039 z "},"ḥ":{"ha":849,"x_min":24,"x_max":771,"o":"m 24 0 m 200 1004 l 390 1004 l 328 646 l 338 646 q 438 719 379 690 q 563 747 497 747 q 713 700 654 747 q 771 553 771 653 q 757 435 771 508 l 679 0 l 489 0 l 564 422 q 572 489 572 472 q 479 579 572 579 q 352 528 406 579 q 282 381 299 476 l 214 0 l 24 0 l 200 1004 m 225 -240 l 257 -60 l 444 -60 l 413 -240 l 225 -240 z "},"i":{"ha":386,"x_min":18,"x_max":385,"o":"m 164 832 l 194 1004 l 385 1004 l 354 832 l 164 832 m 18 0 l 147 731 l 338 731 l 208 0 l 18 0 z "},"ı":{"ha":386,"x_min":18,"x_max":338,"o":"m 18 0 l 147 731 l 338 731 l 208 0 l 18 0 z "},"í":{"ha":386,"x_min":18,"x_max":492,"o":"m 157 821 l 299 1004 l 490 1004 l 492 1000 l 310 821 l 157 821 m 18 0 l 147 731 l 338 731 l 208 0 l 18 0 z "},"ĭ":{"ha":386,"x_min":18,"x_max":500,"o":"m 18 0 m 18 0 l 147 731 l 338 731 l 208 0 l 18 0 m 258 814 q 99 858 149 814 q 49 969 49 901 q 51 1004 49 993 l 176 1004 q 197 957 176 976 q 263 938 217 938 q 337 958 307 938 q 375 1004 367 979 l 500 1004 q 469 925 492 964 q 413 860 447 886 q 258 814 351 814 z "},"ǐ":{"ha":386,"x_min":18,"x_max":521,"o":"m 18 0 m 18 0 l 147 731 l 338 731 l 208 0 l 18 0 m 174 817 l 60 1004 l 208 1004 l 271 908 l 357 1004 l 521 1004 l 343 817 l 174 817 z "},"î":{"ha":386,"x_min":14,"x_max":475,"o":"m 14 817 l 192 1004 l 361 1004 l 475 817 l 328 817 l 265 913 l 179 817 l 14 817 m 18 0 l 147 731 l 338 731 l 208 0 l 18 0 z "},"ȉ":{"ha":386,"x_min":-26,"x_max":481,"o":"m 0 0 m 18 0 l 147 731 l 338 731 l 208 0 l 18 0 m 92 821 l -26 1000 l -24 1004 l 161 1004 l 238 821 l 92 821 m 335 821 l 217 1000 l 219 1004 l 404 1004 l 481 821 l 335 821 z "},"ï":{"ha":386,"x_min":18,"x_max":513,"o":"m 28 840 l 56 1004 l 219 1004 l 190 840 l 28 840 m 318 840 l 347 1004 l 513 1004 l 483 840 l 318 840 m 18 0 l 147 731 l 338 731 l 208 0 l 18 0 z "},"ị":{"ha":386,"x_min":-22,"x_max":385,"o":"m 0 0 m 164 832 l 194 1004 l 385 1004 l 354 832 l 164 832 m 18 0 l 147 731 l 338 731 l 208 0 l 18 0 m -22 -240 l 10 -60 l 197 -60 l 165 -240 l -22 -240 z "},"ì":{"ha":386,"x_min":18,"x_max":344,"o":"m 206 821 l 88 1000 l 89 1004 l 267 1004 l 344 821 l 206 821 m 18 0 l 147 731 l 338 731 l 208 0 l 18 0 z "},"ỉ":{"ha":386,"x_min":18,"x_max":447,"o":"m 18 0 m 18 0 l 147 731 l 338 731 l 208 0 l 18 0 m 226 896 l 246 896 q 283 903 272 896 q 294 928 294 911 q 284 944 294 940 q 250 949 274 949 l 169 949 l 181 1010 q 299 1021 236 1021 q 402 1004 357 1021 q 447 949 447 988 q 409 882 447 904 q 314 856 371 860 l 307 821 l 213 821 l 226 896 z "},"ȋ":{"ha":386,"x_min":18,"x_max":483,"o":"m 18 0 m 18 0 l 147 731 l 338 731 l 208 0 l 18 0 m 33 814 q 106 949 47 894 q 290 1004 165 1004 q 394 981 350 1004 q 460 919 438 957 q 483 839 483 881 q 482 814 483 822 l 357 814 q 335 860 358 839 q 268 881 313 881 q 194 860 224 881 q 158 814 165 839 l 33 814 z "},"ĳ":{"ha":772,"x_min":18,"x_max":771,"o":"m 18 0 m 164 832 l 194 1004 l 385 1004 l 354 832 l 164 832 m 18 0 l 147 731 l 338 731 l 208 0 l 18 0 m 550 832 l 581 1004 l 771 1004 l 740 832 l 550 832 m 374 -253 q 298 -246 339 -253 q 233 -231 257 -239 l 256 -97 l 328 -97 q 397 -37 386 -97 l 533 731 l 724 731 l 585 -57 q 519 -197 571 -140 q 374 -253 468 -253 z "},"ī":{"ha":386,"x_min":18,"x_max":488,"o":"m 43 888 l 64 1010 l 488 1010 l 467 888 l 43 888 m 18 0 l 147 731 l 338 731 l 208 0 l 18 0 z "},"į":{"ha":386,"x_min":-76,"x_max":385,"o":"m 197 1006 l 385 1006 l 353 825 l 165 825 l 197 1006 m 147 731 l 338 731 l 208 0 l 142 0 q 98 -52 117 -21 q 79 -115 79 -83 q 92 -153 79 -139 q 135 -168 106 -168 l 168 -168 l 154 -244 q 51 -264 96 -264 q -40 -238 -3 -264 q -76 -157 -76 -212 q -51 -70 -76 -107 q 18 1 -25 -33 l 147 731 z "},"ĩ":{"ha":386,"x_min":-3,"x_max":492,"o":"m -3 835 q 49 956 10 908 q 154 1004 89 1004 q 198 998 178 1004 q 250 978 218 992 q 297 959 278 965 q 338 953 317 953 q 372 965 358 953 q 394 1004 385 976 l 492 1004 q 439 883 479 931 q 332 835 399 835 q 290 841 310 835 q 238 861 269 847 q 190 880 210 874 q 150 886 171 886 q 116 874 129 886 q 93 835 103 863 l -3 835 m 18 0 l 147 731 l 338 731 l 208 0 l 18 0 z "},"j":{"ha":386,"x_min":-153,"x_max":385,"o":"m 164 832 l 194 1004 l 385 1004 l 354 832 l 164 832 m -12 -253 q -88 -246 -47 -253 q -153 -231 -129 -239 l -131 -97 l -58 -97 q 11 -37 0 -97 l 147 731 l 338 731 l 199 -57 q 133 -197 185 -140 q -12 -253 82 -253 z "},"ȷ":{"ha":386,"x_min":-153,"x_max":338,"o":"m -12 -253 q -88 -246 -47 -253 q -153 -231 -129 -239 l -131 -97 l -58 -97 q 11 -37 0 -97 l 147 731 l 338 731 l 199 -57 q 133 -197 185 -140 q -12 -253 82 -253 z "},"ĵ":{"ha":386,"x_min":-153,"x_max":467,"o":"m 6 817 l 183 1004 l 353 1004 l 467 817 l 319 817 l 257 913 l 171 817 l 6 817 m -12 -253 q -88 -246 -47 -253 q -153 -231 -129 -239 l -131 -97 l -58 -97 q 11 -37 0 -97 l 147 731 l 338 731 l 199 -57 q 133 -197 185 -140 q -12 -253 82 -253 z "},"k":{"ha":772,"x_min":18,"x_max":799,"o":"m 18 0 l 194 1004 l 385 1004 l 285 438 l 579 731 l 799 731 l 508 443 l 683 0 l 479 0 l 372 308 l 246 211 l 208 0 l 18 0 z "},"ķ":{"ha":772,"x_min":18,"x_max":799,"o":"m 18 0 m 18 0 l 194 1004 l 385 1004 l 285 438 l 579 731 l 799 731 l 508 443 l 683 0 l 479 0 l 372 308 l 246 211 l 208 0 l 18 0 m 194 -319 l 286 -192 l 214 -192 l 239 -56 l 431 -56 l 410 -175 l 296 -319 l 194 -319 z "},"ĸ":{"ha":772,"x_min":18,"x_max":799,"o":"m 18 0 l 146 731 l 336 731 l 285 438 l 579 731 l 799 731 l 508 443 l 683 0 l 479 0 l 372 308 l 246 211 l 208 0 l 18 0 z "},"l":{"ha":386,"x_min":18,"x_max":385,"o":"m 18 0 l 194 1004 l 385 1004 l 208 0 l 18 0 z "},"ĺ":{"ha":386,"x_min":18,"x_max":564,"o":"m 18 0 m 18 0 l 194 1004 l 385 1004 l 208 0 l 18 0 m 229 1043 l 371 1226 l 563 1226 l 564 1222 l 382 1043 l 229 1043 z "},"ľ":{"ha":535,"x_min":18,"x_max":646,"o":"m 18 0 l 194 1004 l 385 1004 l 208 0 l 18 0 m 394 614 l 497 776 l 424 776 l 454 953 l 646 953 l 618 793 l 494 614 l 394 614 z "},"ļ":{"ha":386,"x_min":-36,"x_max":385,"o":"m 0 0 m 18 0 l 194 1004 l 385 1004 l 208 0 l 18 0 m -36 -319 l 56 -192 l -17 -192 l 8 -56 l 200 -56 l 179 -175 l 65 -319 l -36 -319 z "},"ŀ":{"ha":511,"x_min":18,"x_max":572,"o":"m 18 0 m 18 0 l 194 1004 l 385 1004 l 208 0 l 18 0 m 346 401 l 381 592 l 572 592 l 538 401 l 346 401 z "},"ǉ":{"ha":772,"x_min":18,"x_max":771,"o":"m 18 0 m 18 0 l 194 1004 l 385 1004 l 208 0 l 18 0 m 550 832 l 581 1004 l 771 1004 l 740 832 l 550 832 m 374 -253 q 298 -246 339 -253 q 233 -231 257 -239 l 256 -97 l 328 -97 q 397 -37 386 -97 l 533 731 l 724 731 l 585 -57 q 519 -197 571 -140 q 374 -253 468 -253 z "},"ł":{"ha":386,"x_min":-31,"x_max":426,"o":"m 18 0 l 79 347 l -31 281 l -6 422 l 104 489 l 194 1004 l 385 1004 l 317 619 l 426 686 l 401 544 l 292 478 l 208 0 l 18 0 z "},"m":{"ha":1235,"x_min":24,"x_max":1158,"o":"m 153 731 l 313 731 l 313 632 l 322 632 q 543 747 421 747 q 658 719 611 747 q 722 632 704 690 l 733 632 q 963 747 835 747 q 1106 700 1053 747 q 1158 551 1158 653 q 1144 435 1158 508 l 1065 0 l 875 0 l 950 422 q 958 493 958 475 q 871 579 958 579 q 769 527 813 579 q 711 394 725 475 l 640 0 l 450 0 l 525 422 q 533 493 533 475 q 446 579 533 579 q 343 526 388 579 q 285 394 299 474 l 214 0 l 24 0 l 153 731 z "},"n":{"ha":849,"x_min":24,"x_max":771,"o":"m 153 731 l 313 731 l 313 632 l 322 632 q 427 715 363 682 q 563 747 492 747 q 713 700 654 747 q 771 553 771 653 q 757 435 771 508 l 679 0 l 489 0 l 564 422 q 572 489 572 472 q 479 579 572 579 q 352 528 406 579 q 282 381 299 476 l 214 0 l 24 0 l 153 731 z "},"ń":{"ha":849,"x_min":24,"x_max":771,"o":"m 24 0 m 153 731 l 313 731 l 313 632 l 322 632 q 427 715 363 682 q 563 747 492 747 q 713 700 654 747 q 771 553 771 653 q 757 435 771 508 l 679 0 l 489 0 l 564 422 q 572 489 572 472 q 479 579 572 579 q 352 528 406 579 q 282 381 299 476 l 214 0 l 24 0 l 153 731 m 428 821 l 569 1004 l 761 1004 l 763 1000 l 581 821 l 428 821 z "},"ŉ":{"ha":983,"x_min":31,"x_max":906,"o":"m 31 614 l 132 776 l 60 776 l 89 953 l 281 953 l 253 793 l 129 614 l 31 614 m 288 731 l 447 731 l 447 632 l 457 632 q 562 715 497 682 q 697 747 626 747 q 847 700 789 747 q 906 553 906 653 q 892 435 906 508 l 814 0 l 624 0 l 699 422 q 707 489 707 472 q 614 579 707 579 q 487 528 540 579 q 417 381 433 476 l 349 0 l 158 0 l 288 731 z "},"ň":{"ha":849,"x_min":24,"x_max":771,"o":"m 24 0 m 153 731 l 313 731 l 313 632 l 322 632 q 427 715 363 682 q 563 747 492 747 q 713 700 654 747 q 771 553 771 653 q 757 435 771 508 l 679 0 l 489 0 l 564 422 q 572 489 572 472 q 479 579 572 579 q 352 528 406 579 q 282 381 299 476 l 214 0 l 24 0 l 153 731 m 419 817 l 306 1004 l 454 1004 l 517 908 l 603 1004 l 767 1004 l 589 817 l 419 817 z "},"ņ":{"ha":849,"x_min":24,"x_max":771,"o":"m 24 0 m 153 731 l 313 731 l 313 632 l 322 632 q 427 715 363 682 q 563 747 492 747 q 713 700 654 747 q 771 553 771 653 q 757 435 771 508 l 679 0 l 489 0 l 564 422 q 572 489 572 472 q 479 579 572 579 q 352 528 406 579 q 282 381 299 476 l 214 0 l 24 0 l 153 731 m 211 -319 l 303 -192 l 231 -192 l 256 -56 l 447 -56 l 426 -175 l 313 -319 l 211 -319 z "},"ṅ":{"ha":849,"x_min":24,"x_max":771,"o":"m 24 0 m 153 731 l 313 731 l 313 632 l 322 632 q 427 715 363 682 q 563 747 492 747 q 713 700 654 747 q 771 553 771 653 q 757 435 771 508 l 679 0 l 489 0 l 564 422 q 572 489 572 472 q 479 579 572 579 q 352 528 406 579 q 282 381 299 476 l 214 0 l 24 0 l 153 731 m 411 825 l 443 1006 l 631 1006 l 599 825 l 411 825 z "},"ŋ":{"ha":849,"x_min":24,"x_max":771,"o":"m 458 -253 q 383 -246 424 -253 q 318 -231 342 -239 l 340 -97 l 413 -97 q 482 -37 471 -97 l 564 422 q 572 489 572 472 q 479 579 572 579 q 352 528 406 579 q 282 381 299 476 l 214 0 l 24 0 l 153 731 l 313 731 l 313 632 l 322 632 q 427 715 363 682 q 563 747 492 747 q 713 700 654 747 q 771 553 771 653 q 757 435 771 508 l 669 -57 q 604 -197 656 -140 q 458 -253 553 -253 z "},"ɲ":{"ha":849,"x_min":-147,"x_max":771,"o":"m -7 -253 q -83 -246 -42 -253 q -147 -231 -124 -239 l -125 -97 l -53 -97 q 17 -37 6 -97 l 153 731 l 313 731 l 313 632 l 322 632 q 427 715 363 682 q 563 747 492 747 q 713 700 654 747 q 771 553 771 653 q 757 435 771 508 l 679 0 l 489 0 l 564 422 q 572 489 572 472 q 479 579 572 579 q 352 528 406 579 q 282 381 299 476 l 204 -57 q 139 -197 190 -140 q -7 -253 88 -253 z "},"ǌ":{"ha":1235,"x_min":24,"x_max":1233,"o":"m 24 0 m 153 731 l 313 731 l 313 632 l 322 632 q 427 715 363 682 q 563 747 492 747 q 713 700 654 747 q 771 553 771 653 q 757 435 771 508 l 679 0 l 489 0 l 564 422 q 572 489 572 472 q 479 579 572 579 q 352 528 406 579 q 282 381 299 476 l 214 0 l 24 0 l 153 731 m 1013 832 l 1043 1004 l 1233 1004 l 1203 832 l 1013 832 m 836 -253 q 760 -246 801 -253 q 696 -231 719 -239 l 718 -97 l 790 -97 q 860 -37 849 -97 l 996 731 l 1186 731 l 1047 -57 q 982 -197 1033 -140 q 836 -253 931 -253 z "},"ñ":{"ha":849,"x_min":24,"x_max":771,"o":"m 24 0 m 153 731 l 313 731 l 313 632 l 322 632 q 427 715 363 682 q 563 747 492 747 q 713 700 654 747 q 771 553 771 653 q 757 435 771 508 l 679 0 l 489 0 l 564 422 q 572 489 572 472 q 479 579 572 579 q 352 528 406 579 q 282 381 299 476 l 214 0 l 24 0 l 153 731 m 275 835 q 327 956 288 908 q 432 1004 367 1004 q 476 998 456 1004 q 528 978 496 992 q 575 959 556 965 q 615 953 594 953 q 649 965 636 953 q 672 1004 663 976 l 769 1004 q 717 883 757 931 q 610 835 676 835 q 567 841 588 835 q 515 861 547 847 q 468 880 488 874 q 428 886 449 886 q 394 874 407 886 q 371 835 381 863 l 275 835 z "},"o":{"ha":849,"x_min":33,"x_max":782,"o":"m 365 -17 q 197 22 271 -17 q 78 131 122 61 q 33 288 35 200 q 43 408 33 356 q 171 660 71 572 q 447 747 271 747 q 618 708 543 747 q 737 600 693 669 q 782 443 781 531 q 772 322 782 375 q 644 71 744 158 q 365 -17 543 -17 m 379 139 q 526 193 474 139 q 592 360 578 247 q 597 440 597 397 q 553 551 596 511 q 436 592 511 592 q 290 538 342 592 q 224 371 238 483 q 218 290 218 333 q 262 179 219 219 q 379 139 304 139 z "},"ó":{"ha":849,"x_min":33,"x_max":782,"o":"m 33 0 m 365 -17 q 197 22 271 -17 q 78 131 122 61 q 33 288 35 200 q 43 408 33 356 q 171 660 71 572 q 447 747 271 747 q 618 708 543 747 q 737 600 693 669 q 782 443 781 531 q 772 322 782 375 q 644 71 744 158 q 365 -17 543 -17 m 379 139 q 526 193 474 139 q 592 360 578 247 q 597 440 597 397 q 553 551 596 511 q 436 592 511 592 q 290 538 342 592 q 224 371 238 483 q 218 290 218 333 q 262 179 219 219 q 379 139 304 139 m 383 821 l 525 1004 l 717 1004 l 718 1000 l 536 821 l 383 821 z "},"ŏ":{"ha":849,"x_min":33,"x_max":782,"o":"m 33 0 m 365 -17 q 197 22 271 -17 q 78 131 122 61 q 33 288 35 200 q 43 408 33 356 q 171 660 71 572 q 447 747 271 747 q 618 708 543 747 q 737 600 693 669 q 782 443 781 531 q 772 322 782 375 q 644 71 744 158 q 365 -17 543 -17 m 379 139 q 526 193 474 139 q 592 360 578 247 q 597 440 597 397 q 553 551 596 511 q 436 592 511 592 q 290 538 342 592 q 224 371 238 483 q 218 290 218 333 q 262 179 219 219 q 379 139 304 139 m 460 814 q 300 858 350 814 q 250 969 250 901 q 253 1004 250 993 l 378 1004 q 398 957 378 976 q 464 938 418 938 q 538 958 508 938 q 576 1004 568 979 l 701 1004 q 671 925 693 964 q 614 860 649 886 q 460 814 553 814 z "},"ǒ":{"ha":849,"x_min":33,"x_max":782,"o":"m 33 0 m 365 -17 q 197 22 271 -17 q 78 131 122 61 q 33 288 35 200 q 43 408 33 356 q 171 660 71 572 q 447 747 271 747 q 618 708 543 747 q 737 600 693 669 q 782 443 781 531 q 772 322 782 375 q 644 71 744 158 q 365 -17 543 -17 m 379 139 q 526 193 474 139 q 592 360 578 247 q 597 440 597 397 q 553 551 596 511 q 436 592 511 592 q 290 538 342 592 q 224 371 238 483 q 218 290 218 333 q 262 179 219 219 q 379 139 304 139 m 375 817 l 261 1004 l 410 1004 l 472 908 l 558 1004 l 722 1004 l 544 817 l 375 817 z "},"ô":{"ha":849,"x_min":33,"x_max":782,"o":"m 33 0 m 365 -17 q 197 22 271 -17 q 78 131 122 61 q 33 288 35 200 q 43 408 33 356 q 171 660 71 572 q 447 747 271 747 q 618 708 543 747 q 737 600 693 669 q 782 443 781 531 q 772 322 782 375 q 644 71 744 158 q 365 -17 543 -17 m 379 139 q 526 193 474 139 q 592 360 578 247 q 597 440 597 397 q 553 551 596 511 q 436 592 511 592 q 290 538 342 592 q 224 371 238 483 q 218 290 218 333 q 262 179 219 219 q 379 139 304 139 m 219 817 l 397 1004 l 567 1004 l 681 817 l 533 817 l 471 913 l 385 817 l 219 817 z "},"ố":{"ha":849,"x_min":33,"x_max":947,"o":"m 33 0 m 365 -17 q 197 22 271 -17 q 78 131 122 61 q 33 288 35 200 q 43 408 33 356 q 171 660 71 572 q 447 747 271 747 q 618 708 543 747 q 737 600 693 669 q 782 443 781 531 q 772 322 782 375 q 644 71 744 158 q 365 -17 543 -17 m 379 139 q 526 193 474 139 q 592 360 578 247 q 597 440 597 397 q 553 551 596 511 q 436 592 511 592 q 290 538 342 592 q 224 371 238 483 q 218 290 218 333 q 262 179 219 219 q 379 139 304 139 m 219 817 l 397 1004 l 567 1004 l 681 817 l 533 817 l 471 913 l 385 817 l 219 817 m 613 953 l 754 1136 l 946 1136 l 947 1132 l 765 953 l 613 953 z "},"ộ":{"ha":849,"x_min":33,"x_max":782,"o":"m 33 0 m 365 -17 q 197 22 271 -17 q 78 131 122 61 q 33 288 35 200 q 43 408 33 356 q 171 660 71 572 q 447 747 271 747 q 618 708 543 747 q 737 600 693 669 q 782 443 781 531 q 772 322 782 375 q 644 71 744 158 q 365 -17 543 -17 m 379 139 q 526 193 474 139 q 592 360 578 247 q 597 440 597 397 q 553 551 596 511 q 436 592 511 592 q 290 538 342 592 q 224 371 238 483 q 218 290 218 333 q 262 179 219 219 q 379 139 304 139 m 219 817 l 397 1004 l 567 1004 l 681 817 l 533 817 l 471 913 l 385 817 l 219 817 m 225 -240 l 257 -60 l 444 -60 l 413 -240 l 225 -240 z "},"ồ":{"ha":849,"x_min":33,"x_max":814,"o":"m 33 0 m 365 -17 q 197 22 271 -17 q 78 131 122 61 q 33 288 35 200 q 43 408 33 356 q 171 660 71 572 q 447 747 271 747 q 618 708 543 747 q 737 600 693 669 q 782 443 781 531 q 772 322 782 375 q 644 71 744 158 q 365 -17 543 -17 m 379 139 q 526 193 474 139 q 592 360 578 247 q 597 440 597 397 q 553 551 596 511 q 436 592 511 592 q 290 538 342 592 q 224 371 238 483 q 218 290 218 333 q 262 179 219 219 q 379 139 304 139 m 219 817 l 397 1004 l 567 1004 l 681 817 l 533 817 l 471 913 l 385 817 l 219 817 m 675 953 l 557 1132 l 558 1136 l 736 1136 l 814 953 l 675 953 z "},"ổ":{"ha":849,"x_min":33,"x_max":876,"o":"m 33 0 m 365 -17 q 197 22 271 -17 q 78 131 122 61 q 33 288 35 200 q 43 408 33 356 q 171 660 71 572 q 447 747 271 747 q 618 708 543 747 q 737 600 693 669 q 782 443 781 531 q 772 322 782 375 q 644 71 744 158 q 365 -17 543 -17 m 379 139 q 526 193 474 139 q 592 360 578 247 q 597 440 597 397 q 553 551 596 511 q 436 592 511 592 q 290 538 342 592 q 224 371 238 483 q 218 290 218 333 q 262 179 219 219 q 379 139 304 139 m 219 817 l 397 1004 l 567 1004 l 681 817 l 533 817 l 471 913 l 385 817 l 219 817 m 656 1028 l 675 1028 q 713 1035 701 1028 q 724 1060 724 1043 q 713 1076 724 1072 q 679 1081 703 1081 l 599 1081 l 610 1142 q 728 1153 665 1153 q 831 1136 786 1153 q 876 1081 876 1119 q 838 1014 876 1036 q 743 988 800 992 l 736 953 l 642 953 l 656 1028 z "},"ỗ":{"ha":849,"x_min":33,"x_max":782,"o":"m 33 0 m 365 -17 q 197 22 271 -17 q 78 131 122 61 q 33 288 35 200 q 43 408 33 356 q 171 660 71 572 q 447 747 271 747 q 618 708 543 747 q 737 600 693 669 q 782 443 781 531 q 772 322 782 375 q 644 71 744 158 q 365 -17 543 -17 m 379 139 q 526 193 474 139 q 592 360 578 247 q 597 440 597 397 q 553 551 596 511 q 436 592 511 592 q 290 538 342 592 q 224 371 238 483 q 218 290 218 333 q 262 179 219 219 q 379 139 304 139 m 219 817 l 397 1004 l 567 1004 l 681 817 l 533 817 l 471 913 l 385 817 l 219 817 m 261 1057 q 313 1178 274 1131 q 418 1226 353 1226 q 462 1220 442 1226 q 514 1200 482 1214 q 561 1181 542 1188 q 601 1175 581 1175 q 635 1187 622 1175 q 658 1226 649 1199 l 756 1226 q 703 1105 743 1153 q 596 1057 663 1057 q 553 1063 574 1057 q 501 1083 533 1069 q 454 1102 474 1096 q 414 1108 435 1108 q 380 1097 393 1108 q 357 1057 367 1085 l 261 1057 z "},"ȍ":{"ha":849,"x_min":33,"x_max":782,"o":"m 33 0 m 365 -17 q 197 22 271 -17 q 78 131 122 61 q 33 288 35 200 q 43 408 33 356 q 171 660 71 572 q 447 747 271 747 q 618 708 543 747 q 737 600 693 669 q 782 443 781 531 q 772 322 782 375 q 644 71 744 158 q 365 -17 543 -17 m 379 139 q 526 193 474 139 q 592 360 578 247 q 597 440 597 397 q 553 551 596 511 q 436 592 511 592 q 290 538 342 592 q 224 371 238 483 q 218 290 218 333 q 262 179 219 219 q 379 139 304 139 m 293 821 l 175 1000 l 178 1004 l 363 1004 l 439 821 l 293 821 m 536 821 l 418 1000 l 421 1004 l 606 1004 l 682 821 l 536 821 z "},"ö":{"ha":849,"x_min":33,"x_max":782,"o":"m 33 0 m 365 -17 q 197 22 271 -17 q 78 131 122 61 q 33 288 35 200 q 43 408 33 356 q 171 660 71 572 q 447 747 271 747 q 618 708 543 747 q 737 600 693 669 q 782 443 781 531 q 772 322 782 375 q 644 71 744 158 q 365 -17 543 -17 m 379 139 q 526 193 474 139 q 592 360 578 247 q 597 440 597 397 q 553 551 596 511 q 436 592 511 592 q 290 538 342 592 q 224 371 238 483 q 218 290 218 333 q 262 179 219 219 q 379 139 304 139 m 238 840 l 265 1004 l 429 1004 l 400 840 l 238 840 m 528 840 l 557 1004 l 722 1004 l 693 840 l 528 840 z "},"ọ":{"ha":849,"x_min":33,"x_max":782,"o":"m 33 0 m 365 -17 q 197 22 271 -17 q 78 131 122 61 q 33 288 35 200 q 43 408 33 356 q 171 660 71 572 q 447 747 271 747 q 618 708 543 747 q 737 600 693 669 q 782 443 781 531 q 772 322 782 375 q 644 71 744 158 q 365 -17 543 -17 m 379 139 q 526 193 474 139 q 592 360 578 247 q 597 440 597 397 q 553 551 596 511 q 436 592 511 592 q 290 538 342 592 q 224 371 238 483 q 218 290 218 333 q 262 179 219 219 q 379 139 304 139 m 225 -240 l 257 -60 l 444 -60 l 413 -240 l 225 -240 z "},"ò":{"ha":849,"x_min":33,"x_max":782,"o":"m 33 0 m 365 -17 q 197 22 271 -17 q 78 131 122 61 q 33 288 35 200 q 43 408 33 356 q 171 660 71 572 q 447 747 271 747 q 618 708 543 747 q 737 600 693 669 q 782 443 781 531 q 772 322 782 375 q 644 71 744 158 q 365 -17 543 -17 m 379 139 q 526 193 474 139 q 592 360 578 247 q 597 440 597 397 q 553 551 596 511 q 436 592 511 592 q 290 538 342 592 q 224 371 238 483 q 218 290 218 333 q 262 179 219 219 q 379 139 304 139 m 390 821 l 272 1000 l 274 1004 l 451 1004 l 529 821 l 390 821 z "},"ỏ":{"ha":849,"x_min":33,"x_max":782,"o":"m 33 0 m 365 -17 q 197 22 271 -17 q 78 131 122 61 q 33 288 35 200 q 43 408 33 356 q 171 660 71 572 q 447 747 271 747 q 618 708 543 747 q 737 600 693 669 q 782 443 781 531 q 772 322 782 375 q 644 71 744 158 q 365 -17 543 -17 m 379 139 q 526 193 474 139 q 592 360 578 247 q 597 440 597 397 q 553 551 596 511 q 436 592 511 592 q 290 538 342 592 q 224 371 238 483 q 218 290 218 333 q 262 179 219 219 q 379 139 304 139 m 428 896 l 447 896 q 485 903 474 896 q 496 928 496 911 q 485 944 496 940 q 451 949 475 949 l 371 949 l 382 1010 q 500 1021 438 1021 q 603 1004 558 1021 q 649 949 649 988 q 610 882 649 904 q 515 856 572 860 l 508 821 l 414 821 l 428 896 z "},"ơ":{"ha":849,"x_min":33,"x_max":956,"o":"m 956 953 l 942 878 q 873 701 922 768 q 738 600 824 635 q 782 443 779 532 q 772 322 782 375 q 644 71 744 158 q 365 -17 543 -17 q 197 22 271 -17 q 78 131 122 61 q 33 288 35 200 q 43 408 33 356 q 170 659 71 571 q 444 747 269 747 q 672 674 579 747 q 797 763 758 699 l 715 763 l 750 953 l 956 953 m 592 360 q 597 440 597 397 q 553 551 596 511 q 436 592 511 592 q 290 538 342 592 q 224 371 238 483 q 218 290 218 333 q 262 179 219 219 q 379 139 304 139 q 526 193 474 139 q 592 360 578 247 z "},"ớ":{"ha":849,"x_min":33,"x_max":956,"o":"m 33 0 m 956 953 l 942 878 q 873 701 922 768 q 738 600 824 635 q 782 443 779 532 q 772 322 782 375 q 644 71 744 158 q 365 -17 543 -17 q 197 22 271 -17 q 78 131 122 61 q 33 288 35 200 q 43 408 33 356 q 170 659 71 571 q 444 747 269 747 q 672 674 579 747 q 797 763 758 699 l 715 763 l 750 953 l 956 953 m 592 360 q 597 440 597 397 q 553 551 596 511 q 436 592 511 592 q 290 538 342 592 q 224 371 238 483 q 218 290 218 333 q 262 179 219 219 q 379 139 304 139 q 526 193 474 139 q 592 360 578 247 m 383 821 l 525 1004 l 717 1004 l 718 1000 l 536 821 l 383 821 z "},"ợ":{"ha":849,"x_min":33,"x_max":956,"o":"m 33 0 m 956 953 l 942 878 q 873 701 922 768 q 738 600 824 635 q 782 443 779 532 q 772 322 782 375 q 644 71 744 158 q 365 -17 543 -17 q 197 22 271 -17 q 78 131 122 61 q 33 288 35 200 q 43 408 33 356 q 170 659 71 571 q 444 747 269 747 q 672 674 579 747 q 797 763 758 699 l 715 763 l 750 953 l 956 953 m 592 360 q 597 440 597 397 q 553 551 596 511 q 436 592 511 592 q 290 538 342 592 q 224 371 238 483 q 218 290 218 333 q 262 179 219 219 q 379 139 304 139 q 526 193 474 139 q 592 360 578 247 m 225 -240 l 257 -60 l 444 -60 l 413 -240 l 225 -240 z "},"ờ":{"ha":849,"x_min":33,"x_max":956,"o":"m 33 0 m 956 953 l 942 878 q 873 701 922 768 q 738 600 824 635 q 782 443 779 532 q 772 322 782 375 q 644 71 744 158 q 365 -17 543 -17 q 197 22 271 -17 q 78 131 122 61 q 33 288 35 200 q 43 408 33 356 q 170 659 71 571 q 444 747 269 747 q 672 674 579 747 q 797 763 758 699 l 715 763 l 750 953 l 956 953 m 592 360 q 597 440 597 397 q 553 551 596 511 q 436 592 511 592 q 290 538 342 592 q 224 371 238 483 q 218 290 218 333 q 262 179 219 219 q 379 139 304 139 q 526 193 474 139 q 592 360 578 247 m 390 821 l 272 1000 l 274 1004 l 451 1004 l 529 821 l 390 821 z "},"ở":{"ha":849,"x_min":33,"x_max":956,"o":"m 33 0 m 956 953 l 942 878 q 873 701 922 768 q 738 600 824 635 q 782 443 779 532 q 772 322 782 375 q 644 71 744 158 q 365 -17 543 -17 q 197 22 271 -17 q 78 131 122 61 q 33 288 35 200 q 43 408 33 356 q 170 659 71 571 q 444 747 269 747 q 672 674 579 747 q 797 763 758 699 l 715 763 l 750 953 l 956 953 m 592 360 q 597 440 597 397 q 553 551 596 511 q 436 592 511 592 q 290 538 342 592 q 224 371 238 483 q 218 290 218 333 q 262 179 219 219 q 379 139 304 139 q 526 193 474 139 q 592 360 578 247 m 428 896 l 447 896 q 485 903 474 896 q 496 928 496 911 q 485 944 496 940 q 451 949 475 949 l 371 949 l 382 1010 q 500 1021 438 1021 q 603 1004 558 1021 q 649 949 649 988 q 610 882 649 904 q 515 856 572 860 l 508 821 l 414 821 l 428 896 z "},"ỡ":{"ha":849,"x_min":33,"x_max":956,"o":"m 33 0 m 956 953 l 942 878 q 873 701 922 768 q 738 600 824 635 q 782 443 779 532 q 772 322 782 375 q 644 71 744 158 q 365 -17 543 -17 q 197 22 271 -17 q 78 131 122 61 q 33 288 35 200 q 43 408 33 356 q 170 659 71 571 q 444 747 269 747 q 672 674 579 747 q 797 763 758 699 l 715 763 l 750 953 l 956 953 m 592 360 q 597 440 597 397 q 553 551 596 511 q 436 592 511 592 q 290 538 342 592 q 224 371 238 483 q 218 290 218 333 q 262 179 219 219 q 379 139 304 139 q 526 193 474 139 q 592 360 578 247 m 231 835 q 283 956 243 908 q 388 1004 322 1004 q 431 998 411 1004 q 483 978 451 992 q 531 959 511 965 q 571 953 550 953 q 605 965 592 953 q 628 1004 618 976 l 725 1004 q 672 883 713 931 q 565 835 632 835 q 523 841 543 835 q 471 861 503 847 q 424 880 443 874 q 383 886 404 886 q 349 874 363 886 q 326 835 336 863 l 231 835 z "},"ő":{"ha":849,"x_min":33,"x_max":842,"o":"m 33 0 m 365 -17 q 197 22 271 -17 q 78 131 122 61 q 33 288 35 200 q 43 408 33 356 q 171 660 71 572 q 447 747 271 747 q 618 708 543 747 q 737 600 693 669 q 782 443 781 531 q 772 322 782 375 q 644 71 744 158 q 365 -17 543 -17 m 379 139 q 526 193 474 139 q 592 360 578 247 q 597 440 597 397 q 553 551 596 511 q 436 592 511 592 q 290 538 342 592 q 224 371 238 483 q 218 290 218 333 q 262 179 219 219 q 379 139 304 139 m 261 821 l 401 1004 l 592 1004 l 593 1000 l 411 821 l 261 821 m 508 821 l 650 1004 l 840 1004 l 842 1000 l 660 821 l 508 821 z "},"ȏ":{"ha":849,"x_min":33,"x_max":782,"o":"m 33 0 m 365 -17 q 197 22 271 -17 q 78 131 122 61 q 33 288 35 200 q 43 408 33 356 q 171 660 71 572 q 447 747 271 747 q 618 708 543 747 q 737 600 693 669 q 782 443 781 531 q 772 322 782 375 q 644 71 744 158 q 365 -17 543 -17 m 379 139 q 526 193 474 139 q 592 360 578 247 q 597 440 597 397 q 553 551 596 511 q 436 592 511 592 q 290 538 342 592 q 224 371 238 483 q 218 290 218 333 q 262 179 219 219 q 379 139 304 139 m 235 814 q 308 949 249 894 q 492 1004 367 1004 q 595 981 551 1004 q 662 919 639 957 q 685 839 685 881 q 683 814 685 822 l 558 814 q 537 860 560 839 q 469 881 514 881 q 396 860 425 881 q 360 814 367 839 l 235 814 z "},"ō":{"ha":849,"x_min":33,"x_max":782,"o":"m 33 0 m 365 -17 q 197 22 271 -17 q 78 131 122 61 q 33 288 35 200 q 43 408 33 356 q 171 660 71 572 q 447 747 271 747 q 618 708 543 747 q 737 600 693 669 q 782 443 781 531 q 772 322 782 375 q 644 71 744 158 q 365 -17 543 -17 m 379 139 q 526 193 474 139 q 592 360 578 247 q 597 440 597 397 q 553 551 596 511 q 436 592 511 592 q 290 538 342 592 q 224 371 238 483 q 218 290 218 333 q 262 179 219 219 q 379 139 304 139 m 256 849 l 276 971 l 700 971 l 679 849 l 256 849 z "},"ǫ":{"ha":849,"x_min":33,"x_max":782,"o":"m 447 747 q 618 708 543 747 q 737 600 693 669 q 782 443 781 531 q 772 322 782 375 q 695 128 751 207 q 544 13 639 49 l 544 11 q 501 -41 519 -10 q 482 -104 482 -72 q 495 -142 482 -128 q 538 -157 508 -157 l 571 -157 l 557 -233 q 454 -253 499 -253 q 363 -227 400 -253 q 326 -146 326 -201 q 388 -17 326 -78 l 368 -17 q 198 22 274 -17 q 78 129 122 60 q 33 288 35 199 q 43 408 33 356 q 171 660 71 572 q 447 747 271 747 m 592 360 q 597 440 597 397 q 553 551 596 511 q 436 592 511 592 q 290 538 342 592 q 224 371 238 483 q 218 290 218 333 q 262 179 219 219 q 379 139 304 139 q 526 193 474 139 q 592 360 578 247 z "},"ø":{"ha":849,"x_min":-31,"x_max":846,"o":"m 92 71 q 25 265 25 140 q 65 502 25 393 q 197 679 106 611 q 432 747 288 747 q 650 708 567 747 l 729 799 l 846 799 l 722 658 q 790 463 790 589 q 749 226 790 335 q 617 51 708 118 q 381 -17 525 -17 q 164 21 247 -17 l 86 -68 l -31 -68 l 92 71 m 532 574 q 446 592 500 592 q 304 538 354 592 q 233 376 254 485 q 222 279 222 319 q 228 226 222 247 l 532 574 m 367 139 q 511 192 460 139 q 581 354 563 246 q 592 451 592 421 q 586 501 592 471 l 282 156 q 367 139 315 139 z "},"ǿ":{"ha":849,"x_min":-31,"x_max":846,"o":"m 0 0 m 92 71 q 25 265 25 140 q 65 502 25 393 q 197 679 106 611 q 432 747 288 747 q 650 708 567 747 l 729 799 l 846 799 l 722 658 q 790 463 790 589 q 749 226 790 335 q 617 51 708 118 q 381 -17 525 -17 q 164 21 247 -17 l 86 -68 l -31 -68 l 92 71 m 532 574 q 446 592 500 592 q 304 538 354 592 q 233 376 254 485 q 222 279 222 319 q 228 226 222 247 l 532 574 m 367 139 q 511 192 460 139 q 581 354 563 246 q 592 451 592 421 q 586 501 592 471 l 282 156 q 367 139 315 139 m 393 821 l 535 1004 l 726 1004 l 728 1000 l 546 821 l 393 821 z "},"õ":{"ha":849,"x_min":33,"x_max":782,"o":"m 33 0 m 365 -17 q 197 22 271 -17 q 78 131 122 61 q 33 288 35 200 q 43 408 33 356 q 171 660 71 572 q 447 747 271 747 q 618 708 543 747 q 737 600 693 669 q 782 443 781 531 q 772 322 782 375 q 644 71 744 158 q 365 -17 543 -17 m 379 139 q 526 193 474 139 q 592 360 578 247 q 597 440 597 397 q 553 551 596 511 q 436 592 511 592 q 290 538 342 592 q 224 371 238 483 q 218 290 218 333 q 262 179 219 219 q 379 139 304 139 m 231 835 q 283 956 243 908 q 388 1004 322 1004 q 431 998 411 1004 q 483 978 451 992 q 531 959 511 965 q 571 953 550 953 q 605 965 592 953 q 628 1004 618 976 l 725 1004 q 672 883 713 931 q 565 835 632 835 q 523 841 543 835 q 471 861 503 847 q 424 880 443 874 q 383 886 404 886 q 349 874 363 886 q 326 835 336 863 l 231 835 z "},"œ":{"ha":1311,"x_min":25,"x_max":1261,"o":"m 374 -17 q 112 52 199 -17 q 25 265 25 121 q 65 502 25 393 q 194 679 104 611 q 425 747 283 747 q 703 644 618 747 q 958 747 803 747 q 1186 681 1111 747 q 1261 474 1261 614 q 1250 365 1261 417 l 1242 321 l 761 321 q 756 257 756 289 q 787 162 756 193 q 888 131 818 131 q 1043 258 1019 131 l 1231 258 q 1120 52 1210 121 q 893 -17 1031 -17 q 621 82 701 -17 q 374 -17 525 -17 m 1067 447 q 1071 494 1071 472 q 967 599 1071 599 q 851 561 894 599 q 786 447 808 524 l 1067 447 m 360 139 q 500 192 450 139 q 567 354 550 246 q 578 451 578 421 q 544 556 578 521 q 439 592 511 592 q 303 539 350 592 q 233 376 256 486 q 222 279 222 319 q 255 174 222 208 q 360 139 288 139 z "},"p":{"ha":849,"x_min":-26,"x_max":790,"o":"m 144 731 l 303 731 l 303 635 l 313 635 q 410 717 354 688 q 526 747 465 747 q 722 676 654 747 q 790 458 790 606 q 754 242 790 351 q 641 58 718 132 q 450 -17 564 -17 q 318 9 371 -17 q 229 85 265 35 l 221 85 l 164 -240 l -26 -240 l 144 731 m 389 143 q 548 240 503 143 q 593 447 593 336 q 563 548 593 514 q 468 582 532 582 q 312 491 361 582 q 263 283 263 400 q 294 178 263 214 q 389 143 326 143 z "},"þ":{"ha":849,"x_min":-26,"x_max":790,"o":"m 196 1024 l 386 1024 l 319 646 l 329 646 q 421 719 367 692 q 533 747 475 747 q 724 676 657 747 q 790 458 790 606 q 754 242 790 351 q 641 58 718 132 q 450 -17 564 -17 q 318 9 371 -17 q 229 85 265 35 l 221 85 l 164 -240 l -26 -240 l 196 1024 m 389 143 q 548 240 503 143 q 593 447 593 336 q 563 548 593 514 q 468 582 532 582 q 312 491 361 582 q 263 283 263 400 q 294 178 263 214 q 389 143 326 143 z "},"q":{"ha":849,"x_min":25,"x_max":799,"o":"m 494 85 l 486 85 q 397 10 450 36 q 278 -17 343 -17 q 93 56 161 -17 q 25 271 25 128 q 61 490 25 381 q 177 673 97 599 q 381 747 257 747 q 515 719 458 747 q 597 635 571 690 l 607 635 l 636 731 l 799 731 l 628 -240 l 438 -240 l 494 85 m 347 149 q 466 199 419 149 q 533 318 513 249 q 553 447 553 388 q 521 552 553 517 q 426 588 489 588 q 304 537 350 588 q 240 417 258 486 q 222 283 222 347 q 253 183 222 217 q 347 149 283 149 z "},"r":{"ha":540,"x_min":24,"x_max":572,"o":"m 153 731 l 310 731 l 310 613 l 319 613 q 393 713 354 678 q 494 747 432 747 q 548 742 524 747 q 572 735 572 736 l 542 557 l 489 557 q 345 506 396 557 q 276 353 294 456 l 214 0 l 24 0 l 153 731 z "},"ŕ":{"ha":540,"x_min":24,"x_max":608,"o":"m 24 0 m 153 731 l 310 731 l 310 613 l 319 613 q 393 713 354 678 q 494 747 432 747 q 548 742 524 747 q 572 735 572 736 l 542 557 l 489 557 q 345 506 396 557 q 276 353 294 456 l 214 0 l 24 0 l 153 731 m 274 821 l 415 1004 l 607 1004 l 608 1000 l 426 821 l 274 821 z "},"ř":{"ha":540,"x_min":24,"x_max":613,"o":"m 24 0 m 153 731 l 310 731 l 310 613 l 319 613 q 393 713 354 678 q 494 747 432 747 q 548 742 524 747 q 572 735 572 736 l 542 557 l 489 557 q 345 506 396 557 q 276 353 294 456 l 214 0 l 24 0 l 153 731 m 265 817 l 151 1004 l 300 1004 l 363 908 l 449 1004 l 613 1004 l 435 817 l 265 817 z "},"ŗ":{"ha":540,"x_min":-31,"x_max":572,"o":"m 0 0 m 153 731 l 310 731 l 310 613 l 319 613 q 393 713 354 678 q 494 747 432 747 q 548 742 524 747 q 572 735 572 736 l 542 557 l 489 557 q 345 506 396 557 q 276 353 294 456 l 214 0 l 24 0 l 153 731 m -31 -319 l 61 -192 l -11 -192 l 14 -56 l 206 -56 l 185 -175 l 71 -319 l -31 -319 z "},"ȑ":{"ha":540,"x_min":24,"x_max":572,"o":"m 24 0 m 153 731 l 310 731 l 310 613 l 319 613 q 393 713 354 678 q 494 747 432 747 q 548 742 524 747 q 572 735 572 736 l 542 557 l 489 557 q 345 506 396 557 q 276 353 294 456 l 214 0 l 24 0 l 153 731 m 183 821 l 65 1000 l 68 1004 l 253 1004 l 329 821 l 183 821 m 426 821 l 308 1000 l 311 1004 l 496 1004 l 572 821 l 426 821 z "},"ṛ":{"ha":540,"x_min":-17,"x_max":572,"o":"m 0 0 m 153 731 l 310 731 l 310 613 l 319 613 q 393 713 354 678 q 494 747 432 747 q 548 742 524 747 q 572 735 572 736 l 542 557 l 489 557 q 345 506 396 557 q 276 353 294 456 l 214 0 l 24 0 l 153 731 m -17 -240 l 15 -60 l 203 -60 l 171 -240 l -17 -240 z "},"ȓ":{"ha":540,"x_min":24,"x_max":575,"o":"m 24 0 m 153 731 l 310 731 l 310 613 l 319 613 q 393 713 354 678 q 494 747 432 747 q 548 742 524 747 q 572 735 572 736 l 542 557 l 489 557 q 345 506 396 557 q 276 353 294 456 l 214 0 l 24 0 l 153 731 m 125 814 q 198 949 139 894 q 382 1004 257 1004 q 485 981 442 1004 q 552 919 529 957 q 575 839 575 881 q 574 814 575 822 l 449 814 q 427 860 450 839 q 360 881 404 881 q 286 860 315 881 q 250 814 257 839 l 125 814 z "},"s":{"ha":772,"x_min":11,"x_max":717,"o":"m 329 -17 q 94 35 178 -17 q 11 178 11 88 q 15 213 11 197 q 21 232 19 228 l 206 232 q 201 211 201 222 q 240 150 201 169 q 335 131 278 131 q 440 148 396 131 q 485 206 485 165 q 448 258 485 240 q 331 297 411 275 q 203 336 253 317 q 117 394 153 356 q 81 496 81 433 q 175 682 81 617 q 417 747 269 747 q 633 702 550 747 q 717 578 717 657 q 713 540 717 558 q 707 517 708 522 l 522 517 l 524 531 q 494 583 524 565 q 411 600 464 600 q 313 583 350 600 q 276 533 276 565 q 313 486 276 503 q 424 453 349 469 q 555 415 503 435 q 644 356 607 396 q 682 250 682 317 q 582 47 682 110 q 329 -17 482 -17 z "},"ś":{"ha":772,"x_min":11,"x_max":717,"o":"m 11 0 m 329 -17 q 94 35 178 -17 q 11 178 11 88 q 15 213 11 197 q 21 232 19 228 l 206 232 q 201 211 201 222 q 240 150 201 169 q 335 131 278 131 q 440 148 396 131 q 485 206 485 165 q 448 258 485 240 q 331 297 411 275 q 203 336 253 317 q 117 394 153 356 q 81 496 81 433 q 175 682 81 617 q 417 747 269 747 q 633 702 550 747 q 717 578 717 657 q 713 540 717 558 q 707 517 708 522 l 522 517 l 524 531 q 494 583 524 565 q 411 600 464 600 q 313 583 350 600 q 276 533 276 565 q 313 486 276 503 q 424 453 349 469 q 555 415 503 435 q 644 356 607 396 q 682 250 682 317 q 582 47 682 110 q 329 -17 482 -17 m 358 821 l 500 1004 l 692 1004 l 693 1000 l 511 821 l 358 821 z "},"ꞌ":{"ha":275,"x_min":63,"x_max":349,"o":"m 63 399 l 169 1004 l 349 1004 l 322 851 l 182 399 l 63 399 z "},"š":{"ha":772,"x_min":11,"x_max":717,"o":"m 11 0 m 329 -17 q 94 35 178 -17 q 11 178 11 88 q 15 213 11 197 q 21 232 19 228 l 206 232 q 201 211 201 222 q 240 150 201 169 q 335 131 278 131 q 440 148 396 131 q 485 206 485 165 q 448 258 485 240 q 331 297 411 275 q 203 336 253 317 q 117 394 153 356 q 81 496 81 433 q 175 682 81 617 q 417 747 269 747 q 633 702 550 747 q 717 578 717 657 q 713 540 717 558 q 707 517 708 522 l 522 517 l 524 531 q 494 583 524 565 q 411 600 464 600 q 313 583 350 600 q 276 533 276 565 q 313 486 276 503 q 424 453 349 469 q 555 415 503 435 q 644 356 607 396 q 682 250 682 317 q 582 47 682 110 q 329 -17 482 -17 m 350 817 l 236 1004 l 385 1004 l 447 908 l 533 1004 l 697 1004 l 519 817 l 350 817 z "},"ş":{"ha":772,"x_min":11,"x_max":717,"o":"m 522 517 l 524 531 q 494 583 524 565 q 411 600 464 600 q 313 583 350 600 q 276 533 276 565 q 313 486 276 503 q 424 453 349 469 q 555 415 503 435 q 644 356 607 396 q 682 250 682 317 q 596 57 682 121 q 374 -15 510 -7 l 364 -46 q 451 -72 418 -49 q 485 -136 485 -94 q 418 -226 485 -200 q 274 -253 351 -253 q 132 -242 196 -253 l 144 -174 l 267 -174 q 317 -165 300 -174 q 335 -133 335 -156 q 323 -113 335 -119 q 282 -107 311 -107 l 225 -107 l 256 -12 q 75 49 139 -1 q 11 178 11 100 q 15 213 11 197 q 21 232 19 228 l 206 232 q 201 211 201 222 q 240 150 201 169 q 335 131 278 131 q 440 148 396 131 q 485 206 485 165 q 448 258 485 240 q 331 297 411 275 q 203 336 253 317 q 117 394 153 356 q 81 496 81 433 q 175 682 81 617 q 417 747 269 747 q 633 702 550 747 q 717 578 717 657 q 713 540 717 558 q 707 517 708 522 l 522 517 z "},"ŝ":{"ha":772,"x_min":11,"x_max":717,"o":"m 11 0 m 329 -17 q 94 35 178 -17 q 11 178 11 88 q 15 213 11 197 q 21 232 19 228 l 206 232 q 201 211 201 222 q 240 150 201 169 q 335 131 278 131 q 440 148 396 131 q 485 206 485 165 q 448 258 485 240 q 331 297 411 275 q 203 336 253 317 q 117 394 153 356 q 81 496 81 433 q 175 682 81 617 q 417 747 269 747 q 633 702 550 747 q 717 578 717 657 q 713 540 717 558 q 707 517 708 522 l 522 517 l 524 531 q 494 583 524 565 q 411 600 464 600 q 313 583 350 600 q 276 533 276 565 q 313 486 276 503 q 424 453 349 469 q 555 415 503 435 q 644 356 607 396 q 682 250 682 317 q 582 47 682 110 q 329 -17 482 -17 m 194 817 l 372 1004 l 542 1004 l 656 817 l 508 817 l 446 913 l 360 817 l 194 817 z "},"ș":{"ha":772,"x_min":11,"x_max":717,"o":"m 11 0 m 329 -17 q 94 35 178 -17 q 11 178 11 88 q 15 213 11 197 q 21 232 19 228 l 206 232 q 201 211 201 222 q 240 150 201 169 q 335 131 278 131 q 440 148 396 131 q 485 206 485 165 q 448 258 485 240 q 331 297 411 275 q 203 336 253 317 q 117 394 153 356 q 81 496 81 433 q 175 682 81 617 q 417 747 269 747 q 633 702 550 747 q 717 578 717 657 q 713 540 717 558 q 707 517 708 522 l 522 517 l 524 531 q 494 583 524 565 q 411 600 464 600 q 313 583 350 600 q 276 533 276 565 q 313 486 276 503 q 424 453 349 469 q 555 415 503 435 q 644 356 607 396 q 682 250 682 317 q 582 47 682 110 q 329 -17 482 -17 m 172 -319 l 264 -192 l 192 -192 l 217 -56 l 408 -56 l 388 -175 l 274 -319 l 172 -319 z "},"ṣ":{"ha":772,"x_min":11,"x_max":717,"o":"m 11 0 m 329 -17 q 94 35 178 -17 q 11 178 11 88 q 15 213 11 197 q 21 232 19 228 l 206 232 q 201 211 201 222 q 240 150 201 169 q 335 131 278 131 q 440 148 396 131 q 485 206 485 165 q 448 258 485 240 q 331 297 411 275 q 203 336 253 317 q 117 394 153 356 q 81 496 81 433 q 175 682 81 617 q 417 747 269 747 q 633 702 550 747 q 717 578 717 657 q 713 540 717 558 q 707 517 708 522 l 522 517 l 524 531 q 494 583 524 565 q 411 600 464 600 q 313 583 350 600 q 276 533 276 565 q 313 486 276 503 q 424 453 349 469 q 555 415 503 435 q 644 356 607 396 q 682 250 682 317 q 582 47 682 110 q 329 -17 482 -17 m 186 -240 l 218 -60 l 406 -60 l 374 -240 l 186 -240 z "},"ß":{"ha":849,"x_min":13,"x_max":819,"o":"m 138 710 q 261 949 167 871 q 499 1021 351 1021 q 737 960 654 1021 q 819 789 819 900 q 767 640 819 701 q 624 550 715 578 l 624 544 q 735 461 700 517 q 771 317 771 406 q 670 86 771 172 q 385 0 569 0 l 285 0 l 311 154 l 393 154 q 531 203 483 154 q 579 319 579 251 q 544 410 579 375 q 451 446 510 446 l 363 446 l 392 614 l 476 614 q 581 653 540 614 q 621 757 621 692 q 591 838 621 808 q 499 868 561 868 q 388 829 433 868 q 329 721 342 790 l 203 0 l 13 0 l 138 710 z "},"ſ":{"ha":386,"x_min":-136,"x_max":528,"o":"m -4 -253 q -74 -246 -36 -253 q -136 -231 -112 -239 l -112 -97 l -43 -97 q 26 -37 15 -97 l 135 575 l 31 575 l 58 731 l 163 731 l 176 814 q 244 958 190 900 q 396 1015 297 1015 q 466 1008 428 1015 q 528 993 504 1001 l 504 860 l 435 860 q 365 800 376 860 l 215 -51 q 147 -195 200 -137 q -4 -253 94 -253 z "},"ə":{"ha":772,"x_min":40,"x_max":733,"o":"m 314 -17 q 111 56 182 -17 q 40 261 40 128 q 50 365 40 313 l 58 410 l 539 410 q 544 471 544 439 q 514 567 544 535 q 418 600 483 600 q 310 567 353 600 q 257 472 267 535 l 69 472 q 197 685 94 614 q 444 747 290 747 q 658 674 583 747 q 733 465 733 600 q 694 244 733 358 q 586 69 654 129 q 314 -17 492 -17 m 336 132 q 514 283 471 132 l 233 283 q 228 233 228 257 q 336 132 228 132 z "},"t":{"ha":463,"x_min":35,"x_max":467,"o":"m 224 -17 q 89 24 129 -17 q 49 129 49 64 q 67 257 49 153 l 122 575 l 35 575 l 63 731 l 150 731 l 186 936 l 386 936 l 340 731 l 467 731 l 439 575 l 313 575 l 253 236 q 244 179 244 190 q 258 149 244 160 q 296 139 271 139 l 363 139 l 339 6 q 283 -10 315 -3 q 224 -17 250 -17 z "},"ŧ":{"ha":463,"x_min":-3,"x_max":467,"o":"m 313 575 l 290 451 l 417 451 l 400 353 l 274 353 l 253 236 q 244 179 244 190 q 258 149 244 160 q 296 139 271 139 l 363 139 l 339 6 q 283 -10 315 -3 q 224 -17 250 -17 q 89 24 129 -17 q 49 129 49 64 q 67 257 49 153 l 83 353 l -3 353 l 13 451 l 100 451 l 122 575 l 35 575 l 63 731 l 150 731 l 186 936 l 386 936 l 340 731 l 467 731 l 439 575 l 313 575 z "},"ť":{"ha":665,"x_min":35,"x_max":763,"o":"m 511 614 l 614 776 l 540 776 l 571 953 l 763 953 l 735 793 l 611 614 l 511 614 m 224 -17 q 89 24 129 -17 q 49 129 49 64 q 67 257 49 153 l 122 575 l 35 575 l 63 731 l 150 731 l 186 936 l 386 936 l 340 731 l 467 731 l 439 575 l 313 575 l 253 236 q 244 179 244 190 q 258 149 244 160 q 296 139 271 139 l 363 139 l 339 6 q 283 -10 315 -3 q 224 -17 250 -17 z "},"ţ":{"ha":463,"x_min":-22,"x_max":467,"o":"m 253 236 q 244 179 244 190 q 258 149 244 160 q 296 139 271 139 l 363 139 l 339 6 q 283 -10 315 -3 q 224 -17 250 -17 l 219 -17 l 210 -46 q 297 -72 264 -49 q 331 -136 331 -94 q 264 -226 331 -200 q 119 -253 197 -253 q -22 -242 42 -253 l -10 -174 l 113 -174 q 163 -165 146 -174 q 181 -133 181 -156 q 169 -113 181 -119 q 128 -107 157 -107 l 71 -107 l 110 8 q 49 129 49 46 q 67 257 49 153 l 122 575 l 35 575 l 63 731 l 150 731 l 186 936 l 386 936 l 340 731 l 467 731 l 439 575 l 313 575 l 253 236 z "},"ț":{"ha":463,"x_min":18,"x_max":467,"o":"m 18 0 m 224 -17 q 89 24 129 -17 q 49 129 49 64 q 67 257 49 153 l 122 575 l 35 575 l 63 731 l 150 731 l 186 936 l 386 936 l 340 731 l 467 731 l 439 575 l 313 575 l 253 236 q 244 179 244 190 q 258 149 244 160 q 296 139 271 139 l 363 139 l 339 6 q 283 -10 315 -3 q 224 -17 250 -17 m 18 -319 l 110 -192 l 38 -192 l 63 -56 l 254 -56 l 233 -175 l 119 -319 l 18 -319 z "},"ṭ":{"ha":463,"x_min":32,"x_max":467,"o":"m 32 0 m 224 -17 q 89 24 129 -17 q 49 129 49 64 q 67 257 49 153 l 122 575 l 35 575 l 63 731 l 150 731 l 186 936 l 386 936 l 340 731 l 467 731 l 439 575 l 313 575 l 253 236 q 244 179 244 190 q 258 149 244 160 q 296 139 271 139 l 363 139 l 339 6 q 283 -10 315 -3 q 224 -17 250 -17 m 32 -240 l 64 -60 l 251 -60 l 219 -240 l 32 -240 z "},"u":{"ha":849,"x_min":50,"x_max":799,"o":"m 260 -17 q 109 31 168 -17 q 50 178 50 78 q 65 296 50 214 l 143 731 l 333 731 l 258 308 q 250 242 250 258 q 343 151 250 151 q 470 203 417 151 q 540 350 524 254 l 608 731 l 799 731 l 669 0 l 510 0 l 510 99 l 500 99 q 395 16 460 49 q 260 -17 331 -17 z "},"ú":{"ha":849,"x_min":50,"x_max":799,"o":"m 50 0 m 260 -17 q 109 31 168 -17 q 50 178 50 78 q 65 296 50 214 l 143 731 l 333 731 l 258 308 q 250 242 250 258 q 343 151 250 151 q 470 203 417 151 q 540 350 524 254 l 608 731 l 799 731 l 669 0 l 510 0 l 510 99 l 500 99 q 395 16 460 49 q 260 -17 331 -17 m 410 821 l 551 1004 l 743 1004 l 744 1000 l 563 821 l 410 821 z "},"ŭ":{"ha":849,"x_min":50,"x_max":799,"o":"m 50 0 m 260 -17 q 109 31 168 -17 q 50 178 50 78 q 65 296 50 214 l 143 731 l 333 731 l 258 308 q 250 242 250 258 q 343 151 250 151 q 470 203 417 151 q 540 350 524 254 l 608 731 l 799 731 l 669 0 l 510 0 l 510 99 l 500 99 q 395 16 460 49 q 260 -17 331 -17 m 486 814 q 326 858 376 814 q 276 969 276 901 q 279 1004 276 993 l 404 1004 q 424 957 404 976 q 490 938 444 938 q 565 958 535 938 q 603 1004 594 979 l 728 1004 q 697 925 719 964 q 640 860 675 886 q 486 814 579 814 z "},"ǔ":{"ha":849,"x_min":50,"x_max":799,"o":"m 50 0 m 260 -17 q 109 31 168 -17 q 50 178 50 78 q 65 296 50 214 l 143 731 l 333 731 l 258 308 q 250 242 250 258 q 343 151 250 151 q 470 203 417 151 q 540 350 524 254 l 608 731 l 799 731 l 669 0 l 510 0 l 510 99 l 500 99 q 395 16 460 49 q 260 -17 331 -17 m 401 817 l 288 1004 l 436 1004 l 499 908 l 585 1004 l 749 1004 l 571 817 l 401 817 z "},"û":{"ha":849,"x_min":50,"x_max":799,"o":"m 50 0 m 260 -17 q 109 31 168 -17 q 50 178 50 78 q 65 296 50 214 l 143 731 l 333 731 l 258 308 q 250 242 250 258 q 343 151 250 151 q 470 203 417 151 q 540 350 524 254 l 608 731 l 799 731 l 669 0 l 510 0 l 510 99 l 500 99 q 395 16 460 49 q 260 -17 331 -17 m 246 817 l 424 1004 l 593 1004 l 707 817 l 560 817 l 497 913 l 411 817 l 246 817 z "},"ȕ":{"ha":849,"x_min":50,"x_max":799,"o":"m 50 0 m 260 -17 q 109 31 168 -17 q 50 178 50 78 q 65 296 50 214 l 143 731 l 333 731 l 258 308 q 250 242 250 258 q 343 151 250 151 q 470 203 417 151 q 540 350 524 254 l 608 731 l 799 731 l 669 0 l 510 0 l 510 99 l 500 99 q 395 16 460 49 q 260 -17 331 -17 m 319 821 l 201 1000 l 204 1004 l 389 1004 l 465 821 l 319 821 m 563 821 l 444 1000 l 447 1004 l 632 1004 l 708 821 l 563 821 z "},"ü":{"ha":849,"x_min":50,"x_max":799,"o":"m 50 0 m 260 -17 q 109 31 168 -17 q 50 178 50 78 q 65 296 50 214 l 143 731 l 333 731 l 258 308 q 250 242 250 258 q 343 151 250 151 q 470 203 417 151 q 540 350 524 254 l 608 731 l 799 731 l 669 0 l 510 0 l 510 99 l 500 99 q 395 16 460 49 q 260 -17 331 -17 m 264 840 l 292 1004 l 456 1004 l 426 840 l 264 840 m 554 840 l 583 1004 l 749 1004 l 719 840 l 554 840 z "},"ǘ":{"ha":849,"x_min":50,"x_max":799,"o":"m 50 0 m 260 -17 q 109 31 168 -17 q 50 178 50 78 q 65 296 50 214 l 143 731 l 333 731 l 258 308 q 250 242 250 258 q 343 151 250 151 q 470 203 417 151 q 540 350 524 254 l 608 731 l 799 731 l 669 0 l 510 0 l 510 99 l 500 99 q 395 16 460 49 q 260 -17 331 -17 m 264 840 l 292 1004 l 456 1004 l 426 840 l 264 840 m 554 840 l 583 1004 l 749 1004 l 719 840 l 554 840 m 451 1053 l 593 1236 l 785 1236 l 786 1232 l 604 1053 l 451 1053 z "},"ǚ":{"ha":849,"x_min":50,"x_max":799,"o":"m 50 0 m 260 -17 q 109 31 168 -17 q 50 178 50 78 q 65 296 50 214 l 143 731 l 333 731 l 258 308 q 250 242 250 258 q 343 151 250 151 q 470 203 417 151 q 540 350 524 254 l 608 731 l 799 731 l 669 0 l 510 0 l 510 99 l 500 99 q 395 16 460 49 q 260 -17 331 -17 m 264 840 l 292 1004 l 456 1004 l 426 840 l 264 840 m 554 840 l 583 1004 l 749 1004 l 719 840 l 554 840 m 443 1049 l 329 1236 l 478 1236 l 540 1140 l 626 1236 l 790 1236 l 613 1049 l 443 1049 z "},"ǜ":{"ha":849,"x_min":50,"x_max":799,"o":"m 50 0 m 260 -17 q 109 31 168 -17 q 50 178 50 78 q 65 296 50 214 l 143 731 l 333 731 l 258 308 q 250 242 250 258 q 343 151 250 151 q 470 203 417 151 q 540 350 524 254 l 608 731 l 799 731 l 669 0 l 510 0 l 510 99 l 500 99 q 395 16 460 49 q 260 -17 331 -17 m 264 840 l 292 1004 l 456 1004 l 426 840 l 264 840 m 554 840 l 583 1004 l 749 1004 l 719 840 l 554 840 m 458 1053 l 340 1232 l 342 1236 l 519 1236 l 597 1053 l 458 1053 z "},"ǖ":{"ha":849,"x_min":50,"x_max":799,"o":"m 50 0 m 260 -17 q 109 31 168 -17 q 50 178 50 78 q 65 296 50 214 l 143 731 l 333 731 l 258 308 q 250 242 250 258 q 343 151 250 151 q 470 203 417 151 q 540 350 524 254 l 608 731 l 799 731 l 669 0 l 510 0 l 510 99 l 500 99 q 395 16 460 49 q 260 -17 331 -17 m 264 840 l 292 1004 l 456 1004 l 426 840 l 264 840 m 554 840 l 583 1004 l 749 1004 l 719 840 l 554 840 m 324 1081 l 344 1203 l 768 1203 l 747 1081 l 324 1081 z "},"ụ":{"ha":849,"x_min":50,"x_max":799,"o":"m 50 0 m 260 -17 q 109 31 168 -17 q 50 178 50 78 q 65 296 50 214 l 143 731 l 333 731 l 258 308 q 250 242 250 258 q 343 151 250 151 q 470 203 417 151 q 540 350 524 254 l 608 731 l 799 731 l 669 0 l 510 0 l 510 99 l 500 99 q 395 16 460 49 q 260 -17 331 -17 m 225 -240 l 257 -60 l 444 -60 l 413 -240 l 225 -240 z "},"ù":{"ha":849,"x_min":50,"x_max":799,"o":"m 50 0 m 260 -17 q 109 31 168 -17 q 50 178 50 78 q 65 296 50 214 l 143 731 l 333 731 l 258 308 q 250 242 250 258 q 343 151 250 151 q 470 203 417 151 q 540 350 524 254 l 608 731 l 799 731 l 669 0 l 510 0 l 510 99 l 500 99 q 395 16 460 49 q 260 -17 331 -17 m 417 821 l 299 1000 l 300 1004 l 478 1004 l 556 821 l 417 821 z "},"ủ":{"ha":849,"x_min":50,"x_max":799,"o":"m 50 0 m 260 -17 q 109 31 168 -17 q 50 178 50 78 q 65 296 50 214 l 143 731 l 333 731 l 258 308 q 250 242 250 258 q 343 151 250 151 q 470 203 417 151 q 540 350 524 254 l 608 731 l 799 731 l 669 0 l 510 0 l 510 99 l 500 99 q 395 16 460 49 q 260 -17 331 -17 m 454 896 l 474 896 q 511 903 500 896 q 522 928 522 911 q 512 944 522 940 q 478 949 501 949 l 397 949 l 408 1010 q 526 1021 464 1021 q 630 1004 585 1021 q 675 949 675 988 q 637 882 675 904 q 542 856 599 860 l 535 821 l 440 821 l 454 896 z "},"ư":{"ha":849,"x_min":50,"x_max":1018,"o":"m 1018 1004 l 1004 929 q 931 746 985 814 q 783 644 878 678 l 669 0 l 510 0 l 510 99 l 500 99 q 395 16 460 49 q 260 -17 331 -17 q 109 31 168 -17 q 50 178 50 78 q 65 296 50 214 l 143 731 l 333 731 l 258 308 q 250 242 250 258 q 343 151 250 151 q 470 203 417 151 q 540 350 524 254 l 608 731 l 750 731 q 860 814 826 758 l 778 814 l 813 1004 l 1018 1004 z "},"ứ":{"ha":849,"x_min":50,"x_max":1018,"o":"m 50 0 m 1018 1004 l 1004 929 q 931 746 985 814 q 783 644 878 678 l 669 0 l 510 0 l 510 99 l 500 99 q 395 16 460 49 q 260 -17 331 -17 q 109 31 168 -17 q 50 178 50 78 q 65 296 50 214 l 143 731 l 333 731 l 258 308 q 250 242 250 258 q 343 151 250 151 q 470 203 417 151 q 540 350 524 254 l 608 731 l 750 731 q 860 814 826 758 l 778 814 l 813 1004 l 1018 1004 m 410 821 l 551 1004 l 743 1004 l 744 1000 l 563 821 l 410 821 z "},"ự":{"ha":849,"x_min":50,"x_max":1018,"o":"m 50 0 m 1018 1004 l 1004 929 q 931 746 985 814 q 783 644 878 678 l 669 0 l 510 0 l 510 99 l 500 99 q 395 16 460 49 q 260 -17 331 -17 q 109 31 168 -17 q 50 178 50 78 q 65 296 50 214 l 143 731 l 333 731 l 258 308 q 250 242 250 258 q 343 151 250 151 q 470 203 417 151 q 540 350 524 254 l 608 731 l 750 731 q 860 814 826 758 l 778 814 l 813 1004 l 1018 1004 m 225 -240 l 257 -60 l 444 -60 l 413 -240 l 225 -240 z "},"ừ":{"ha":849,"x_min":50,"x_max":1018,"o":"m 50 0 m 1018 1004 l 1004 929 q 931 746 985 814 q 783 644 878 678 l 669 0 l 510 0 l 510 99 l 500 99 q 395 16 460 49 q 260 -17 331 -17 q 109 31 168 -17 q 50 178 50 78 q 65 296 50 214 l 143 731 l 333 731 l 258 308 q 250 242 250 258 q 343 151 250 151 q 470 203 417 151 q 540 350 524 254 l 608 731 l 750 731 q 860 814 826 758 l 778 814 l 813 1004 l 1018 1004 m 417 821 l 299 1000 l 300 1004 l 478 1004 l 556 821 l 417 821 z "},"ử":{"ha":849,"x_min":50,"x_max":1018,"o":"m 50 0 m 1018 1004 l 1004 929 q 931 746 985 814 q 783 644 878 678 l 669 0 l 510 0 l 510 99 l 500 99 q 395 16 460 49 q 260 -17 331 -17 q 109 31 168 -17 q 50 178 50 78 q 65 296 50 214 l 143 731 l 333 731 l 258 308 q 250 242 250 258 q 343 151 250 151 q 470 203 417 151 q 540 350 524 254 l 608 731 l 750 731 q 860 814 826 758 l 778 814 l 813 1004 l 1018 1004 m 454 896 l 474 896 q 511 903 500 896 q 522 928 522 911 q 512 944 522 940 q 478 949 501 949 l 397 949 l 408 1010 q 526 1021 464 1021 q 630 1004 585 1021 q 675 949 675 988 q 637 882 675 904 q 542 856 599 860 l 535 821 l 440 821 l 454 896 z "},"ữ":{"ha":849,"x_min":50,"x_max":1018,"o":"m 50 0 m 1018 1004 l 1004 929 q 931 746 985 814 q 783 644 878 678 l 669 0 l 510 0 l 510 99 l 500 99 q 395 16 460 49 q 260 -17 331 -17 q 109 31 168 -17 q 50 178 50 78 q 65 296 50 214 l 143 731 l 333 731 l 258 308 q 250 242 250 258 q 343 151 250 151 q 470 203 417 151 q 540 350 524 254 l 608 731 l 750 731 q 860 814 826 758 l 778 814 l 813 1004 l 1018 1004 m 257 835 q 309 956 269 908 q 414 1004 349 1004 q 458 998 438 1004 q 510 978 478 992 q 557 959 538 965 q 597 953 576 953 q 631 965 618 953 q 654 1004 644 976 l 751 1004 q 699 883 739 931 q 592 835 658 835 q 549 841 569 835 q 497 861 529 847 q 450 880 469 874 q 410 886 431 886 q 376 874 389 886 q 353 835 363 863 l 257 835 z "},"ű":{"ha":849,"x_min":50,"x_max":868,"o":"m 50 0 m 260 -17 q 109 31 168 -17 q 50 178 50 78 q 65 296 50 214 l 143 731 l 333 731 l 258 308 q 250 242 250 258 q 343 151 250 151 q 470 203 417 151 q 540 350 524 254 l 608 731 l 799 731 l 669 0 l 510 0 l 510 99 l 500 99 q 395 16 460 49 q 260 -17 331 -17 m 288 821 l 428 1004 l 618 1004 l 619 1000 l 438 821 l 288 821 m 535 821 l 676 1004 l 867 1004 l 868 1000 l 686 821 l 535 821 z "},"ȗ":{"ha":849,"x_min":50,"x_max":799,"o":"m 50 0 m 260 -17 q 109 31 168 -17 q 50 178 50 78 q 65 296 50 214 l 143 731 l 333 731 l 258 308 q 250 242 250 258 q 343 151 250 151 q 470 203 417 151 q 540 350 524 254 l 608 731 l 799 731 l 669 0 l 510 0 l 510 99 l 500 99 q 395 16 460 49 q 260 -17 331 -17 m 261 814 q 334 949 275 894 q 518 1004 393 1004 q 622 981 578 1004 q 688 919 665 957 q 711 839 711 881 q 710 814 711 822 l 585 814 q 563 860 586 839 q 496 881 540 881 q 422 860 451 881 q 386 814 393 839 l 261 814 z "},"ū":{"ha":849,"x_min":50,"x_max":799,"o":"m 50 0 m 260 -17 q 109 31 168 -17 q 50 178 50 78 q 65 296 50 214 l 143 731 l 333 731 l 258 308 q 250 242 250 258 q 343 151 250 151 q 470 203 417 151 q 540 350 524 254 l 608 731 l 799 731 l 669 0 l 510 0 l 510 99 l 500 99 q 395 16 460 49 q 260 -17 331 -17 m 282 849 l 303 971 l 726 971 l 706 849 l 282 849 z "},"ų":{"ha":849,"x_min":50,"x_max":799,"o":"m 525 -253 q 434 -227 471 -253 q 397 -146 397 -201 q 428 -66 397 -101 q 510 0 458 -31 l 510 99 l 500 99 q 395 16 460 49 q 260 -17 331 -17 q 109 31 168 -17 q 50 178 50 78 q 65 296 50 214 l 143 731 l 333 731 l 258 308 q 250 242 250 258 q 343 151 250 151 q 470 203 417 151 q 540 350 524 254 l 608 731 l 799 731 l 669 0 q 553 -110 553 -50 q 567 -144 553 -131 q 608 -157 582 -157 l 642 -157 l 628 -233 q 525 -253 569 -253 z "},"ů":{"ha":849,"x_min":50,"x_max":799,"o":"m 50 0 m 260 -17 q 109 31 168 -17 q 50 178 50 78 q 65 296 50 214 l 143 731 l 333 731 l 258 308 q 250 242 250 258 q 343 151 250 151 q 470 203 417 151 q 540 350 524 254 l 608 731 l 799 731 l 669 0 l 510 0 l 510 99 l 500 99 q 395 16 460 49 q 260 -17 331 -17 m 482 772 q 390 805 424 772 q 357 889 357 838 q 402 1004 357 956 q 517 1053 447 1053 q 609 1019 576 1053 q 642 933 642 986 q 596 819 642 867 q 482 772 550 772 m 489 851 q 540 873 518 851 q 563 924 563 894 q 548 960 563 946 q 510 974 533 974 q 458 952 479 974 q 438 899 438 931 q 451 865 438 878 q 489 851 465 851 z "},"ũ":{"ha":849,"x_min":50,"x_max":799,"o":"m 50 0 m 260 -17 q 109 31 168 -17 q 50 178 50 78 q 65 296 50 214 l 143 731 l 333 731 l 258 308 q 250 242 250 258 q 343 151 250 151 q 470 203 417 151 q 540 350 524 254 l 608 731 l 799 731 l 669 0 l 510 0 l 510 99 l 500 99 q 395 16 460 49 q 260 -17 331 -17 m 257 835 q 309 956 269 908 q 414 1004 349 1004 q 458 998 438 1004 q 510 978 478 992 q 557 959 538 965 q 597 953 576 953 q 631 965 618 953 q 654 1004 644 976 l 751 1004 q 699 883 739 931 q 592 835 658 835 q 549 841 569 835 q 497 861 529 847 q 450 880 469 874 q 410 886 431 886 q 376 874 389 886 q 353 835 363 863 l 257 835 z "},"v":{"ha":772,"x_min":65,"x_max":813,"o":"m 65 731 l 256 731 l 314 417 q 331 302 321 381 q 343 197 340 224 l 350 197 q 390 299 360 222 q 443 417 421 376 l 611 731 l 813 731 l 410 0 l 208 0 l 65 731 z "},"w":{"ha":1081,"x_min":60,"x_max":1129,"o":"m 60 731 l 247 731 l 274 431 q 279 322 276 399 q 282 221 282 246 l 288 221 q 323 317 296 244 q 367 429 350 390 l 494 731 l 690 731 l 715 428 q 723 306 719 367 q 728 221 726 244 l 733 221 q 765 310 740 242 q 811 428 790 379 l 940 731 l 1129 731 l 783 0 l 586 0 l 564 349 q 560 443 561 392 q 560 510 560 494 l 553 510 q 532 444 549 494 q 496 350 515 394 l 346 0 l 149 0 l 60 731 z "},"ẃ":{"ha":1081,"x_min":60,"x_max":1129,"o":"m 60 0 m 60 731 l 247 731 l 274 431 q 279 322 276 399 q 282 221 282 246 l 288 221 q 323 317 296 244 q 367 429 350 390 l 494 731 l 690 731 l 715 428 q 723 306 719 367 q 728 221 726 244 l 733 221 q 765 310 740 242 q 811 428 790 379 l 940 731 l 1129 731 l 783 0 l 586 0 l 564 349 q 560 443 561 392 q 560 510 560 494 l 553 510 q 532 444 549 494 q 496 350 515 394 l 346 0 l 149 0 l 60 731 m 532 821 l 674 1004 l 865 1004 l 867 1000 l 685 821 l 532 821 z "},"ŵ":{"ha":1081,"x_min":60,"x_max":1129,"o":"m 60 0 m 60 731 l 247 731 l 274 431 q 279 322 276 399 q 282 221 282 246 l 288 221 q 323 317 296 244 q 367 429 350 390 l 494 731 l 690 731 l 715 428 q 723 306 719 367 q 728 221 726 244 l 733 221 q 765 310 740 242 q 811 428 790 379 l 940 731 l 1129 731 l 783 0 l 586 0 l 564 349 q 560 443 561 392 q 560 510 560 494 l 553 510 q 532 444 549 494 q 496 350 515 394 l 346 0 l 149 0 l 60 731 m 368 817 l 546 1004 l 715 1004 l 829 817 l 682 817 l 619 913 l 533 817 l 368 817 z "},"ẅ":{"ha":1081,"x_min":60,"x_max":1129,"o":"m 60 0 m 60 731 l 247 731 l 274 431 q 279 322 276 399 q 282 221 282 246 l 288 221 q 323 317 296 244 q 367 429 350 390 l 494 731 l 690 731 l 715 428 q 723 306 719 367 q 728 221 726 244 l 733 221 q 765 310 740 242 q 811 428 790 379 l 940 731 l 1129 731 l 783 0 l 586 0 l 564 349 q 560 443 561 392 q 560 510 560 494 l 553 510 q 532 444 549 494 q 496 350 515 394 l 346 0 l 149 0 l 60 731 m 386 840 l 414 1004 l 578 1004 l 549 840 l 386 840 m 676 840 l 706 1004 l 871 1004 l 842 840 l 676 840 z "},"ẁ":{"ha":1081,"x_min":60,"x_max":1129,"o":"m 60 0 m 60 731 l 247 731 l 274 431 q 279 322 276 399 q 282 221 282 246 l 288 221 q 323 317 296 244 q 367 429 350 390 l 494 731 l 690 731 l 715 428 q 723 306 719 367 q 728 221 726 244 l 733 221 q 765 310 740 242 q 811 428 790 379 l 940 731 l 1129 731 l 783 0 l 586 0 l 564 349 q 560 443 561 392 q 560 510 560 494 l 553 510 q 532 444 549 494 q 496 350 515 394 l 346 0 l 149 0 l 60 731 m 539 821 l 421 1000 l 422 1004 l 600 1004 l 678 821 l 539 821 z "},"x":{"ha":772,"x_min":-74,"x_max":794,"o":"m -74 0 l 264 381 l 75 731 l 285 731 l 390 519 l 399 519 l 576 731 l 794 731 l 476 372 l 679 0 l 468 0 l 353 231 l 344 231 l 146 0 l -74 0 z "},"y":{"ha":772,"x_min":-37,"x_max":813,"o":"m 89 -253 q 25 -249 53 -253 q -18 -240 -3 -244 q -37 -235 -33 -236 l -15 -101 l 75 -101 q 158 -78 124 -101 q 222 0 193 -54 l 65 731 l 253 731 l 329 388 q 346 285 338 351 q 357 197 354 219 l 364 197 q 398 282 372 218 q 443 386 424 346 l 613 731 l 813 731 l 453 38 q 296 -176 381 -100 q 89 -253 211 -253 z "},"ý":{"ha":772,"x_min":-37,"x_max":813,"o":"m 0 0 m 89 -253 q 25 -249 53 -253 q -18 -240 -3 -244 q -37 -235 -33 -236 l -15 -101 l 75 -101 q 158 -78 124 -101 q 222 0 193 -54 l 65 731 l 253 731 l 329 388 q 346 285 338 351 q 357 197 354 219 l 364 197 q 398 282 372 218 q 443 386 424 346 l 613 731 l 813 731 l 453 38 q 296 -176 381 -100 q 89 -253 211 -253 m 372 821 l 514 1004 l 706 1004 l 707 1000 l 525 821 l 372 821 z "}}}
